<?xml version="1.0" encoding="UTF-8"?>
<svg width="1129px" height="1080px" viewBox="0 0 1129 1080" version="1.1" xmlns="http://www.w3.org/2000/svg" xmlns:xlink="http://www.w3.org/1999/xlink">
    <title>feature5_fg@0.5x</title>
    <g id="feature5_fg" stroke="none" stroke-width="1" fill="none" fill-rule="evenodd">
        <path d="M873,656 L839.47658,480 C838.795518,480.152381 838.038781,480.228571 837.357718,480.228571 L307.642282,480.228571 C306.885545,480.228571 306.204482,480.152381 305.52342,480 L272,656 L873,656 Z M800.958701,584.838095 L807.012591,623.771429 C807.239612,625.447619 806.78557,627.12381 805.72614,628.342857 C804.666709,629.638095 803.077562,630.32381 801.412742,630.32381 L727.403928,630.32381 C724.604004,630.32381 722.258121,628.266667 721.80408,625.52381 L715.750189,586.590476 C715.523168,584.914286 715.97721,583.238095 717.036641,582.019048 C718.096072,580.72381 719.685218,580.038095 721.350038,580.038095 L795.358852,580.038095 C798.158776,580.038095 800.504659,582.095238 800.958701,584.838095 Z M701.977588,502.019048 C703.037018,500.72381 704.626165,500.038095 706.290985,500.038095 L780.299799,500.038095 C783.099723,500.038095 785.445606,502.095238 785.899647,504.838095 L791.953538,543.771429 C792.180559,545.447619 791.726517,547.12381 790.667086,548.342857 C789.607656,549.638095 788.018509,550.32381 786.353689,550.32381 L712.344875,550.32381 C709.544951,550.32381 707.199068,548.266667 706.745026,545.52381 L700.691136,506.590476 C700.464115,504.914286 700.918157,503.238095 701.977588,502.019048 Z M638.790103,560.152381 L635.990179,505.980952 C635.838832,502.857143 638.260388,500.114286 641.363007,499.961905 C644.389952,499.809524 647.189877,502.247619 647.341224,505.371429 L650.141148,559.847619 C661.719214,562.285714 670.497356,572.647619 670.497356,585.066667 C670.497356,596.495238 663.005666,606.171429 652.714052,609.52381 L653.773483,630.095238 C653.92483,633.219048 651.503274,635.961905 648.400655,636.114286 C648.324981,636.114286 648.173634,636.114286 648.09796,636.114286 C645.071015,636.114286 642.573785,633.752381 642.422438,630.704762 L641.363007,610.514286 C628.876857,608.761905 619.190632,598.095238 619.190632,585.066667 C619.190632,572.952381 627.514732,562.819048 638.71443,560.07619 L638.790103,560.152381 Z M566.748804,519.847619 L566.748804,505.67619 C566.748804,502.552381 569.321707,499.961905 572.424326,499.961905 C575.526945,499.961905 578.099849,502.552381 578.099849,505.67619 L578.099849,519.847619 C589.526568,522.438095 598.077688,532.72381 598.077688,544.990476 C598.077688,557.257143 589.526568,567.466667 578.099849,570.133333 L578.099849,630.552381 C578.099849,633.67619 575.526945,636.266667 572.424326,636.266667 C569.321707,636.266667 566.748804,633.67619 566.748804,630.552381 L566.748804,570.133333 C555.322085,567.542857 546.770964,557.257143 546.770964,544.990476 C546.770964,532.72381 555.322085,522.514286 566.748804,519.847619 Z M494.480484,564.72381 L497.507429,505.447619 C497.658776,502.32381 500.23168,499.885714 503.485646,500.038095 C506.588265,500.190476 509.009821,502.857143 508.858474,506.057143 L505.755855,565.714286 C516.123143,569.066667 523.614833,578.666667 523.614833,590.171429 C523.614833,602.590476 514.836691,613.028571 503.182951,615.466667 L502.426215,630.857143 C502.274868,633.904762 499.777638,636.266667 496.750693,636.266667 C496.675019,636.266667 496.523672,636.266667 496.447998,636.266667 C493.345379,636.114286 490.923823,633.447619 491.07517,630.247619 L491.831906,615.161905 C480.707882,612.342857 472.383782,602.285714 472.383782,590.171429 C472.383782,577.142857 481.994334,566.47619 494.40481,564.72381 L494.480484,564.72381 Z M427.282297,515.2 L428.341728,505.142857 C428.644422,502.019048 431.444347,499.733333 434.546965,500.038095 C437.649584,500.342857 439.919794,503.161905 439.617099,506.285714 L438.633342,516.190476 C448.924956,519.542857 456.416646,529.142857 456.416646,540.647619 C456.416646,553.980952 446.352052,564.8 433.487535,566.171429 L426.752581,631.085714 C426.449887,634.057143 423.952657,636.190476 421.077059,636.190476 C420.850038,636.190476 420.698691,636.190476 420.47167,636.190476 C417.369051,635.885714 415.098842,633.066667 415.401536,629.942857 L422.13649,564.87619 C412.223244,561.295238 405.109922,551.847619 405.109922,540.647619 C405.109922,527.619048 414.796147,516.952381 427.282297,515.2 L427.282297,515.2 Z M351.003274,557.485714 L359.176026,504.914286 C359.630068,501.790476 362.58134,499.657143 365.683959,500.114286 C368.786578,500.571429 370.905439,503.542857 370.451398,506.666667 L362.278645,559.161905 C371.737849,562.971429 378.472803,572.266667 378.472803,583.085714 C378.472803,596.72381 367.878494,607.771429 354.635608,608.685714 L351.154621,631.390476 C350.700579,634.209524 348.279023,636.190476 345.554772,636.190476 C345.252078,636.190476 344.949383,636.190476 344.646688,636.190476 C341.54407,635.733333 339.425208,632.761905 339.87925,629.638095 L343.360237,607.009524 C333.901032,603.2 327.166079,593.904762 327.166079,583.085714 C327.166079,569.447619 337.760388,558.4 351.003274,557.485714 L351.003274,557.485714 Z" id="Shape" fill="#000000" fill-rule="nonzero"></path>
        <rect id="Rectangle" fill="#000000" fill-rule="nonzero" x="270" y="667" width="606" height="68"></rect>
        <path d="M308,470 L838,470 L838,356 L308,356 L308,470 Z M704.97,388.832 C718.22,388.832 729.047143,399.7 729.047143,413 C729.047143,426.3 718.22,437.168 704.97,437.168 C691.72,437.168 680.892857,426.3 680.892857,413 C680.892857,399.7 691.72,388.832 704.97,388.832 Z M627.06,388.832 C640.31,388.832 651.137143,399.7 651.137143,413 C651.137143,426.3 640.31,437.168 627.06,437.168 C613.81,437.168 602.982857,426.3 602.982857,413 C602.982857,399.7 613.81,388.832 627.06,388.832 Z M360.015714,393.392 C360.015714,390.276 362.59,387.692 365.694286,387.692 L553.087143,387.692 C556.191429,387.692 558.765714,390.276 558.765714,393.392 L558.765714,432.608 C558.765714,435.724 556.191429,438.308 553.087143,438.308 L365.694286,438.308 C362.59,438.308 360.015714,435.724 360.015714,432.608 L360.015714,393.392 L360.015714,393.392 Z" id="Shape" fill="#000000" fill-rule="nonzero"></path>
        <path d="M339,583.5 C339,591.478836 345.521164,598 353.5,598 C361.478836,598 368,591.478836 368,583.5 C368,575.521164 361.478836,569 353.5,569 C345.521164,569 339,575.521164 339,583.5 Z" id="Path" fill="#000000" fill-rule="nonzero"></path>
        <circle id="Oval" fill="#000000" fill-rule="nonzero" cx="431.5" cy="541.5" r="14.5"></circle>
        <rect id="Rectangle" fill="#000000" fill-rule="nonzero" x="371" y="399" width="177" height="28"></rect>
        <path d="M626,426 C633.196429,426 639,420.196429 639,413 C639,405.803571 633.196429,400 626,400 C618.803571,400 613,405.803571 613,413 C613,420.196429 618.803571,426 626,426 Z" id="Path" fill="#000000" fill-rule="nonzero"></path>
        <circle id="Oval" fill="#000000" fill-rule="nonzero" cx="705" cy="413" r="13"></circle>
        <path d="M484,589.5 C484,597.478836 490.521164,604 498.5,604 C506.478836,604 513,597.478836 513,589.5 C513,581.521164 506.478836,575 498.5,575 C490.521164,575 484,581.521164 484,589.5 Z" id="Path" fill="#000000" fill-rule="nonzero"></path>
        <circle id="Oval" fill="#000000" fill-rule="nonzero" cx="572.5" cy="544.5" r="14.5"></circle>
        <circle id="Oval" fill="#000000" fill-rule="nonzero" cx="644.5" cy="585.5" r="14.5"></circle>
        <polygon id="Path" fill="#000000" fill-rule="nonzero" points="713 512 717.325028 540 780 540 775.750849 512"></polygon>
        <polygon id="Path" fill="#000000" fill-rule="nonzero" points="728 591 732.320136 619 795 619 790.679864 591"></polygon>
        <path d="M856,638 L822.47658,462 C821.795518,462.152381 821.038781,462.228571 820.357718,462.228571 L290.642282,462.228571 C289.885545,462.228571 289.204482,462.152381 288.52342,462 L255,638 L856,638 Z M783.958701,566.838095 L790.012591,605.771429 C790.239612,607.447619 789.78557,609.12381 788.72614,610.342857 C787.666709,611.638095 786.077562,612.32381 784.412742,612.32381 L710.403928,612.32381 C707.604004,612.32381 705.258121,610.266667 704.80408,607.52381 L698.750189,568.590476 C698.523168,566.914286 698.97721,565.238095 700.036641,564.019048 C701.096072,562.72381 702.685218,562.038095 704.350038,562.038095 L778.358852,562.038095 C781.158776,562.038095 783.504659,564.095238 783.958701,566.838095 Z M684.977588,484.019048 C686.037018,482.72381 687.626165,482.038095 689.290985,482.038095 L763.299799,482.038095 C766.099723,482.038095 768.445606,484.095238 768.899647,486.838095 L774.953538,525.771429 C775.180559,527.447619 774.726517,529.12381 773.667086,530.342857 C772.607656,531.638095 771.018509,532.32381 769.353689,532.32381 L695.344875,532.32381 C692.544951,532.32381 690.199068,530.266667 689.745026,527.52381 L683.691136,488.590476 C683.464115,486.914286 683.918157,485.238095 684.977588,484.019048 Z M621.790103,542.152381 L618.990179,487.980952 C618.838832,484.857143 621.260388,482.114286 624.363007,481.961905 C627.389952,481.809524 630.189877,484.247619 630.341224,487.371429 L633.141148,541.847619 C644.719214,544.285714 653.497356,554.647619 653.497356,567.066667 C653.497356,578.495238 646.005666,588.171429 635.714052,591.52381 L636.773483,612.095238 C636.92483,615.219048 634.503274,617.961905 631.400655,618.114286 C631.324981,618.114286 631.173634,618.114286 631.09796,618.114286 C628.071015,618.114286 625.573785,615.752381 625.422438,612.704762 L624.363007,592.514286 C611.876857,590.761905 602.190632,580.095238 602.190632,567.066667 C602.190632,554.952381 610.514732,544.819048 621.71443,542.07619 L621.790103,542.152381 Z M549.748804,501.847619 L549.748804,487.67619 C549.748804,484.552381 552.321707,481.961905 555.424326,481.961905 C558.526945,481.961905 561.099849,484.552381 561.099849,487.67619 L561.099849,501.847619 C572.526568,504.438095 581.077688,514.72381 581.077688,526.990476 C581.077688,539.257143 572.526568,549.466667 561.099849,552.133333 L561.099849,612.552381 C561.099849,615.67619 558.526945,618.266667 555.424326,618.266667 C552.321707,618.266667 549.748804,615.67619 549.748804,612.552381 L549.748804,552.133333 C538.322085,549.542857 529.770964,539.257143 529.770964,526.990476 C529.770964,514.72381 538.322085,504.514286 549.748804,501.847619 Z M477.480484,546.72381 L480.507429,487.447619 C480.658776,484.32381 483.23168,481.885714 486.485646,482.038095 C489.588265,482.190476 492.009821,484.857143 491.858474,488.057143 L488.755855,547.714286 C499.123143,551.066667 506.614833,560.666667 506.614833,572.171429 C506.614833,584.590476 497.836691,595.028571 486.182951,597.466667 L485.426215,612.857143 C485.274868,615.904762 482.777638,618.266667 479.750693,618.266667 C479.675019,618.266667 479.523672,618.266667 479.447998,618.266667 C476.345379,618.114286 473.923823,615.447619 474.07517,612.247619 L474.831906,597.161905 C463.707882,594.342857 455.383782,584.285714 455.383782,572.171429 C455.383782,559.142857 464.994334,548.47619 477.40481,546.72381 L477.480484,546.72381 Z M410.282297,497.2 L411.341728,487.142857 C411.644422,484.019048 414.444347,481.733333 417.546965,482.038095 C420.649584,482.342857 422.919794,485.161905 422.617099,488.285714 L421.633342,498.190476 C431.924956,501.542857 439.416646,511.142857 439.416646,522.647619 C439.416646,535.980952 429.352052,546.8 416.487535,548.171429 L409.752581,613.085714 C409.449887,616.057143 406.952657,618.190476 404.077059,618.190476 C403.850038,618.190476 403.698691,618.190476 403.47167,618.190476 C400.369051,617.885714 398.098842,615.066667 398.401536,611.942857 L405.13649,546.87619 C395.223244,543.295238 388.109922,533.847619 388.109922,522.647619 C388.109922,509.619048 397.796147,498.952381 410.282297,497.2 L410.282297,497.2 Z M334.003274,539.485714 L342.176026,486.914286 C342.630068,483.790476 345.58134,481.657143 348.683959,482.114286 C351.786578,482.571429 353.905439,485.542857 353.451398,488.666667 L345.278645,541.161905 C354.737849,544.971429 361.472803,554.266667 361.472803,565.085714 C361.472803,578.72381 350.878494,589.771429 337.635608,590.685714 L334.154621,613.390476 C333.700579,616.209524 331.279023,618.190476 328.554772,618.190476 C328.252078,618.190476 327.949383,618.190476 327.646688,618.190476 C324.54407,617.733333 322.425208,614.761905 322.87925,611.638095 L326.360237,589.009524 C316.901032,585.2 310.166079,575.904762 310.166079,565.085714 C310.166079,551.447619 320.760388,540.4 334.003274,539.485714 L334.003274,539.485714 Z" id="Shape" fill="#FFFFFF" fill-rule="nonzero"></path>
        <rect id="Rectangle" fill="#FFFFFF" fill-rule="nonzero" x="253" y="649" width="606" height="68"></rect>
        <path d="M291,452 L821,452 L821,338 L291,338 L291,452 Z M687.97,370.832 C701.22,370.832 712.047143,381.7 712.047143,395 C712.047143,408.3 701.22,419.168 687.97,419.168 C674.72,419.168 663.892857,408.3 663.892857,395 C663.892857,381.7 674.72,370.832 687.97,370.832 Z M610.06,370.832 C623.31,370.832 634.137143,381.7 634.137143,395 C634.137143,408.3 623.31,419.168 610.06,419.168 C596.81,419.168 585.982857,408.3 585.982857,395 C585.982857,381.7 596.81,370.832 610.06,370.832 Z M343.015714,375.392 C343.015714,372.276 345.59,369.692 348.694286,369.692 L536.087143,369.692 C539.191429,369.692 541.765714,372.276 541.765714,375.392 L541.765714,414.608 C541.765714,417.724 539.191429,420.308 536.087143,420.308 L348.694286,420.308 C345.59,420.308 343.015714,417.724 343.015714,414.608 L343.015714,375.392 L343.015714,375.392 Z" id="Shape" fill="#FFFFFF" fill-rule="nonzero"></path>
        <path d="M322,565.5 C322,573.478836 328.521164,580 336.5,580 C344.478836,580 351,573.478836 351,565.5 C351,557.521164 344.478836,551 336.5,551 C328.521164,551 322,557.521164 322,565.5 Z" id="Path" fill="#FFFFFF" fill-rule="nonzero"></path>
        <circle id="Oval" fill="#FFFFFF" fill-rule="nonzero" cx="414.5" cy="523.5" r="14.5"></circle>
        <rect id="Rectangle" fill="#FFFFFF" fill-rule="nonzero" x="354" y="381" width="177" height="28"></rect>
        <path d="M609,408 C616.196429,408 622,402.196429 622,395 C622,387.803571 616.196429,382 609,382 C601.803571,382 596,387.803571 596,395 C596,402.196429 601.803571,408 609,408 Z" id="Path" fill="#FFFFFF" fill-rule="nonzero"></path>
        <circle id="Oval" fill="#FFFFFF" fill-rule="nonzero" cx="688" cy="395" r="13"></circle>
        <path d="M467,571.5 C467,579.478836 473.521164,586 481.5,586 C489.478836,586 496,579.478836 496,571.5 C496,563.521164 489.478836,557 481.5,557 C473.521164,557 467,563.521164 467,571.5 Z" id="Path" fill="#FFFFFF" fill-rule="nonzero"></path>
        <circle id="Oval" fill="#FFFFFF" fill-rule="nonzero" cx="555.5" cy="526.5" r="14.5"></circle>
        <circle id="Oval" fill="#FFFFFF" fill-rule="nonzero" cx="627.5" cy="567.5" r="14.5"></circle>
        <polygon id="Path" fill="#FFFFFF" fill-rule="nonzero" points="696 494 700.325028 522 763 522 758.750849 494"></polygon>
        <polygon id="Path" fill="#FFFFFF" fill-rule="nonzero" points="711 573 715.320136 601 778 601 773.679864 573"></polygon>
    </g>
</svg>