<?xml version="1.0" encoding="UTF-8"?>
<svg width="1129px" height="1080px" viewBox="0 0 1129 1080" version="1.1" xmlns="http://www.w3.org/2000/svg" xmlns:xlink="http://www.w3.org/1999/xlink">
    <title>feature1_fg</title>
    <g id="feature1_fg" stroke="none" stroke-width="1" fill="none" fill-rule="evenodd">
        <polygon id="Path" fill="#010202" fill-rule="nonzero" points="700.548638 574.222785 700.548638 547.908931 670.805447 547.908931 670.805447 520.968558 640.354086 520.968558 640.354086 494.028184 609.902724 494.028184 609.902724 467.087811 579.451362 467.087811 579.451362 440.147437 549 440.147437 549 413.207063 518.548638 413.207063 518.548638 386.26669 488.097276 386.26669 488.097276 359.952837 458.354086 359.952837 458.354086 333.012463 427.902724 333.012463 427.902724 306.072089 397.451362 306.072089 397.451362 279.131716 367 279.131716 367 735.865026 397.451362 735.865026 397.451362 708.924652 427.902724 708.924652 427.902724 681.984279 458.354086 681.984279 458.354086 655.043905 488.097276 655.043905 518.548638 655.043905 518.548638 681.984279 518.548638 708.924652 549 708.924652 549 735.865026 549 762.178879 579.451362 762.178879 579.451362 789.119253 579.451362 816.059626 609.902724 816.059626 609.902724 843 640.354086 843 670.805447 843 670.805447 816.059626 700.548638 816.059626 700.548638 789.119253 700.548638 762.178879 670.805447 762.178879 670.805447 735.865026 670.805447 708.924652 640.354086 708.924652 640.354086 681.984279 640.354086 655.043905 609.902724 655.043905 609.902724 628.103532 609.902724 601.163158 640.354086 601.163158 670.805447 601.163158 700.548638 601.163158 731 601.163158 731 574.222785"></polygon>
        <polygon id="Path-Copy" fill="#FFFFFF" fill-rule="nonzero" points="731.548638 531.091069 731.548638 504.777215 701.805447 504.777215 701.805447 477.836842 671.354086 477.836842 671.354086 450.896468 640.902724 450.896468 640.902724 423.956095 610.451362 423.956095 610.451362 397.015721 580 397.015721 580 370.075348 549.548638 370.075348 549.548638 343.134974 519.097276 343.134974 519.097276 316.821121 489.354086 316.821121 489.354086 289.880747 458.902724 289.880747 458.902724 262.940374 428.451362 262.940374 428.451362 236 398 236 398 692.73331 428.451362 692.73331 428.451362 665.792937 458.902724 665.792937 458.902724 638.852563 489.354086 638.852563 489.354086 611.912189 519.097276 611.912189 549.548638 611.912189 549.548638 638.852563 549.548638 665.792937 580 665.792937 580 692.73331 580 719.047163 610.451362 719.047163 610.451362 745.987537 610.451362 772.927911 640.902724 772.927911 640.902724 799.868284 671.354086 799.868284 701.805447 799.868284 701.805447 772.927911 731.548638 772.927911 731.548638 745.987537 731.548638 719.047163 701.805447 719.047163 701.805447 692.73331 701.805447 665.792937 671.354086 665.792937 671.354086 638.852563 671.354086 611.912189 640.902724 611.912189 640.902724 584.971816 640.902724 558.031442 671.354086 558.031442 701.805447 558.031442 731.548638 558.031442 762 558.031442 762 531.091069"></polygon>
    </g>
</svg>