<?xml version="1.0" encoding="UTF-8"?>
<svg width="1129px" height="1080px" viewBox="0 0 1129 1080" version="1.1" xmlns="http://www.w3.org/2000/svg" xmlns:xlink="http://www.w3.org/1999/xlink">
    <title>feature4_fg@0.5x</title>
    <g id="feature4_fg" stroke="none" stroke-width="1" fill="none" fill-rule="evenodd">
        <g id="Shape" transform="translate(236, 236)" fill="#000000">
            <g>
                <path d="M172.75,141.300021 L31.4090909,141.300021 C14.0555682,141.300021 0,127.248519 0,109.900016 L0,78.5000118 C0,61.1515092 14.0555682,47.1000071 31.4090909,47.1000071 L172.75,47.1000071 C172.75,34.6028052 177.712636,22.6237034 186.554295,13.8003021 C195.38025,4.96120074 207.362818,0 219.863636,0 L235.568182,0 C248.069,0 260.051568,4.96120074 268.877523,13.8003021 C277.719182,22.6237034 282.681818,34.6028052 282.681818,47.1000071 L659.590909,47.1000071 C676.944432,47.1000071 691,61.1515092 691,78.5000118 L691,109.900016 C691,127.248519 676.944432,141.300021 659.590909,141.300021 L282.681818,141.300021 C282.681818,153.797223 277.719182,165.776325 268.877523,174.599726 C260.051568,183.438828 248.069,188.400028 235.568182,188.400028 L219.863636,188.400028 C207.362818,188.400028 195.38025,183.438828 186.554295,174.599726 C177.712636,165.776325 172.75,153.797223 172.75,141.300021 Z M172.75,78.5000118 L31.4090909,78.5000118 L31.4090909,109.900016 L172.75,109.900016 L172.75,78.5000118 Z M282.681818,109.900016 L659.590909,109.900016 L659.590909,78.5000118 L282.681818,78.5000118 L282.681818,109.900016 Z"></path>
            </g>
            <g transform="translate(0, 219.8)">
                <path d="M424.022727,141.300021 L31.4090909,141.300021 C14.0555682,141.300021 0,127.248519 0,109.900016 L0,78.5000118 C0,61.1515092 14.0555682,47.1000071 31.4090909,47.1000071 L424.022727,47.1000071 C424.022727,34.6028052 428.985364,22.6237034 437.827023,13.8003021 C446.652977,4.96120074 458.635545,-2.84217094e-14 471.136364,-2.84217094e-14 L486.840909,-2.84217094e-14 C499.341727,-2.84217094e-14 511.324295,4.96120074 520.15025,13.8003021 C528.991909,22.6237034 533.954545,34.6028052 533.954545,47.1000071 L659.590909,47.1000071 C676.944432,47.1000071 691,61.1515092 691,78.5000118 L691,109.900016 C691,127.248519 676.944432,141.300021 659.590909,141.300021 L533.954545,141.300021 C533.954545,153.797223 528.991909,165.776325 520.15025,174.599726 C511.324295,183.438828 499.341727,188.400028 486.840909,188.400028 L471.136364,188.400028 C458.635545,188.400028 446.652977,183.438828 437.827023,174.599726 C428.985364,165.776325 424.022727,153.797223 424.022727,141.300021 Z M533.954545,109.900016 L659.590909,109.900016 L659.590909,78.5000118 L533.954545,78.5000118 L533.954545,109.900016 Z M424.022727,78.5000118 L31.4090909,78.5000118 L31.4090909,109.900016 L424.022727,109.900016 L424.022727,78.5000118 Z"></path>
            </g>
            <g transform="translate(0, 439.6001)">
                <path d="M78.5227273,141.300021 L31.4090909,141.300021 C14.0555682,141.300021 0,127.248519 0,109.900016 L0,78.5000118 C0,61.1515092 14.0555682,47.1000071 31.4090909,47.1000071 L78.5227273,47.1000071 C78.5227273,34.6028052 83.4853636,22.6237034 92.3270227,13.8003021 C101.152977,4.96120074 113.135545,0 125.636364,0 L141.340909,0 C153.841727,0 165.824295,4.96120074 174.65025,13.8003021 C183.491909,22.6237034 188.454545,34.6028052 188.454545,47.1000071 L659.590909,47.1000071 C676.944432,47.1000071 691,61.1515092 691,78.5000118 L691,109.900016 C691,127.248519 676.944432,141.300021 659.590909,141.300021 L188.454545,141.300021 C188.454545,153.797223 183.491909,165.776325 174.65025,174.599726 C165.824295,183.438828 153.841727,188.400028 141.340909,188.400028 L125.636364,188.400028 C113.135545,188.400028 101.152977,183.438828 92.3270227,174.599726 C83.4853636,165.776325 78.5227273,153.797223 78.5227273,141.300021 Z M78.5227273,78.5000118 L31.4090909,78.5000118 L31.4090909,109.900016 L78.5227273,109.900016 L78.5227273,78.5000118 Z M188.454545,109.900016 L659.590909,109.900016 L659.590909,78.5000118 L188.454545,78.5000118 L188.454545,109.900016 Z"></path>
            </g>
        </g>
        <g id="Shape" transform="translate(202, 216)" fill="#FFFFFF">
            <g>
                <path d="M172.75,141.300021 L31.4090909,141.300021 C14.0555682,141.300021 0,127.248519 0,109.900016 L0,78.5000118 C0,61.1515092 14.0555682,47.1000071 31.4090909,47.1000071 L172.75,47.1000071 C172.75,34.6028052 177.712636,22.6237034 186.554295,13.8003021 C195.38025,4.96120074 207.362818,0 219.863636,0 L235.568182,0 C248.069,0 260.051568,4.96120074 268.877523,13.8003021 C277.719182,22.6237034 282.681818,34.6028052 282.681818,47.1000071 L659.590909,47.1000071 C676.944432,47.1000071 691,61.1515092 691,78.5000118 L691,109.900016 C691,127.248519 676.944432,141.300021 659.590909,141.300021 C534.570779,141.300021 440.805682,141.300021 378.295617,141.300021 C315.785552,141.300021 283.914286,141.300021 282.681818,141.300021 C282.681818,153.797223 277.719182,165.776325 268.877523,174.599726 C260.051568,183.438828 248.069,188.400028 235.568182,188.400028 L219.863636,188.400028 C207.362818,188.400028 195.38025,183.438828 186.554295,174.599726 C177.712636,165.776325 172.75,153.797223 172.75,141.300021 Z M172.75,78.5000118 L31.4090909,78.5000118 L31.4090909,109.900016 L172.75,109.900016 L172.75,78.5000118 Z M282.681818,109.900016 L659.590909,109.900016 L659.590909,78.5000118 L282.681818,78.5000118 L282.681818,109.900016 Z"></path>
            </g>
            <g transform="translate(0, 219.8)">
                <path d="M424.022727,141.300021 L31.4090909,141.300021 C14.0555682,141.300021 0,127.248519 0,109.900016 L0,78.5000118 C0,61.1515092 14.0555682,47.1000071 31.4090909,47.1000071 L424.022727,47.1000071 C424.022727,34.6028052 428.985364,22.6237034 437.827023,13.8003021 C446.652977,4.96120074 458.635545,-2.84217094e-14 471.136364,-2.84217094e-14 L486.840909,-2.84217094e-14 C499.341727,-2.84217094e-14 511.324295,4.96120074 520.15025,13.8003021 C528.991909,22.6237034 533.954545,34.6028052 533.954545,47.1000071 L659.590909,47.1000071 C676.944432,47.1000071 691,61.1515092 691,78.5000118 L691,109.900016 C691,127.248519 676.944432,141.300021 659.590909,141.300021 L533.954545,141.300021 C533.954545,153.797223 528.991909,165.776325 520.15025,174.599726 C511.324295,183.438828 499.341727,188.400028 486.840909,188.400028 L471.136364,188.400028 C458.635545,188.400028 446.652977,183.438828 437.827023,174.599726 C428.985364,165.776325 424.022727,153.797223 424.022727,141.300021 Z M533.954545,109.900016 L659.590909,109.900016 L659.590909,78.5000118 L533.954545,78.5000118 L533.954545,109.900016 Z M424.022727,78.5000118 L31.4090909,78.5000118 L31.4090909,109.900016 L424.022727,109.900016 L424.022727,78.5000118 Z"></path>
            </g>
            <g transform="translate(0, 439.6001)">
                <path d="M78.5227273,141.300021 L31.4090909,141.300021 C14.0555682,141.300021 0,127.248519 0,109.900016 L0,78.5000118 C0,61.1515092 14.0555682,47.1000071 31.4090909,47.1000071 L78.5227273,47.1000071 C78.5227273,34.6028052 83.4853636,22.6237034 92.3270227,13.8003021 C101.152977,4.96120074 113.135545,0 125.636364,0 L141.340909,0 C153.841727,0 165.824295,4.96120074 174.65025,13.8003021 C183.491909,22.6237034 188.454545,34.6028052 188.454545,47.1000071 L659.590909,47.1000071 C676.944432,47.1000071 691,61.1515092 691,78.5000118 L691,109.900016 C691,127.248519 676.944432,141.300021 659.590909,141.300021 L188.454545,141.300021 C188.454545,153.797223 183.491909,165.776325 174.65025,174.599726 C165.824295,183.438828 153.841727,188.400028 141.340909,188.400028 L125.636364,188.400028 C113.135545,188.400028 101.152977,183.438828 92.3270227,174.599726 C83.4853636,165.776325 78.5227273,153.797223 78.5227273,141.300021 Z M78.5227273,78.5000118 L31.4090909,78.5000118 L31.4090909,109.900016 L78.5227273,109.900016 L78.5227273,78.5000118 Z M188.454545,109.900016 L659.590909,109.900016 L659.590909,78.5000118 L188.454545,78.5000118 L188.454545,109.900016 Z"></path>
            </g>
        </g>
    </g>
</svg>