<?xml version="1.0" encoding="UTF-8"?>
<svg width="1129px" height="1080px" viewBox="0 0 1129 1080" version="1.1" xmlns="http://www.w3.org/2000/svg" xmlns:xlink="http://www.w3.org/1999/xlink">
    <title>feature8_fg@0.5x</title>
    <g id="feature8_fg" stroke="none" stroke-width="1" fill="none" fill-rule="evenodd">
        <g id="Group" transform="translate(326.7914, 298.4446)" fill="#000000">
            <g id="Shape" transform="translate(0, 0)">
                <g transform="translate(251.9021, 274.8183) rotate(1.7321) translate(-251.9021, -274.8183)translate(7.9761, 7.2507)">
                    <path d="M133.133239,268.826454 C114.626371,265.018068 94.482842,258.188152 73.7098276,246.353829 C54.7623205,235.551862 40.7247987,223.585346 30.3382915,212.216842 C11.5166815,191.626378 4.15170365,172.71664 1.75965957,164.866959 C-1.07302422,157.974095 -0.380590403,150.464336 3.08157866,144.433867 C5.97721097,139.240613 10.8242477,135.161548 16.9932035,133.424169 C24.798821,130.434114 44.1240192,124.529542 71.8213718,126.518715 C87.2437612,127.62661 105.309989,131.214676 125.516467,139.372805 C149.814599,149.180186 168.950951,162.179057 184.121547,175.587093 C177.826694,157.78525 173.2944,136.980761 172.727863,113.098089 C172.224275,91.3053086 175.245804,73.1131839 179.652201,58.3454591 C187.583716,31.5923345 199.984576,15.5467546 205.461098,9.40927306 C209.867495,3.422868 216.728884,0.168429077 223.653222,0.0110577555 C229.570384,-0.171492977 235.613443,1.90580846 240.271634,6.27443634 C246.818281,11.3984466 261.862979,24.938675 274.452685,49.7215107 C281.439972,63.4568796 287.671876,80.8117889 291.134045,102.333891 C295.225699,128.218326 293.966729,151.326731 290.315714,171.212171 C302.338883,156.664766 317.761273,142.041823 337.96775,129.250682 C356.411669,117.580024 373.533669,110.787878 388.45247,106.929133 C415.457389,99.9418467 435.600918,102.308711 443.658329,103.832066 C451.086256,104.549679 457.381109,108.704282 461.095072,114.571085 C464.368395,119.575493 465.627366,125.801102 464.305447,132.045596 C463.29827,140.317033 459.45841,160.183588 444.728454,183.738928 C436.545146,196.800747 424.899668,211.096358 408.218308,225.13388 C388.137727,242.010381 367.679456,252.837528 348.794897,259.931827 C367.427662,262.733036 387.948882,268.467647 409.288433,279.162602 C428.802477,288.919624 443.469484,300.111872 454.422528,310.90125 C474.377211,330.446768 482.749366,348.934751 485.582049,356.639651 C488.792424,363.368849 488.477682,370.910082 485.393204,377.110512 C482.749366,382.454843 478.091175,386.791996 472.048116,388.863003 C464.431344,392.268518 445.420888,399.211741 417.660587,398.714447 C402.238198,398.443769 383.983124,395.8377 363.336007,388.78117 C337.464162,379.936901 317.068839,367.322016 300.891067,354.153184 C295.099802,349.444634 289.875074,344.660546 285.153935,339.939406 C287.105339,344.459111 288.930846,349.236904 290.567508,354.266491 C297.240052,374.038624 301.835295,397.619143 300.954015,424.951394 C300.32453,446.73788 296.295824,464.741159 291.134045,479.250795 C281.754714,505.531805 268.472575,520.891246 262.68131,526.72028 C257.96017,532.461186 250.972884,535.337934 244.048546,535.123909 C238.068435,534.985422 232.214222,532.580788 227.744877,527.966661 C221.512972,522.496434 207.223657,508.169349 195.95587,482.738143 C189.786914,468.650263 184.436289,450.986905 182.170142,429.307432 C179.463355,403.234152 181.981297,380.232759 186.765385,360.573934 C173.923885,374.44779 157.683165,388.214633 136.847202,399.89788 C117.836746,410.555066 100.337055,416.409279 85.2294083,419.455988 C57.909747,424.976574 37.8921149,421.526994 29.8976518,419.569295 C22.532674,418.448811 16.4896152,413.960581 13.0903947,407.904933 C10.1318139,402.736858 9.18758593,396.4483 10.8242477,390.279345 C12.2720638,382.077151 17.182049,362.4498 33.2339238,339.725381 C42.1096663,327.123086 54.4475779,313.475845 71.8843203,300.357372 C92.8461803,284.588765 113.80804,274.882102 133.133239,268.826454 Z M289.182641,302.012918 C300.954015,299.180234 317.509478,296.265717 337.275316,297.090343 C354.334368,297.801661 373.785463,301.238651 394.495529,309.900369 C410.925095,316.768053 423.577749,325.033195 433.145925,333.222798 C438.93719,338.195732 443.595381,343.112012 447.372293,347.612832 C453.163557,354.593824 456.625726,360.573934 458.514182,364.218654 C459.45841,366.157469 460.024947,367.435324 460.213792,367.844489 C460.213792,367.982976 460.276741,368.121463 460.33969,368.266244 C461.095072,370.356135 463.235322,371.577337 465.312623,371.155582 C465.501469,371.124107 465.690314,371.080043 465.816212,371.029685 C467.138131,370.607929 468.145307,369.632227 468.585947,368.4425 C468.900689,367.580105 468.963638,366.604403 468.711844,365.647585 C468.711844,365.616111 468.648895,365.578342 468.648895,365.546868 C468.648895,365.44615 468.522998,364.999216 468.271204,364.237538 C467.201079,361.329316 464.305447,353.876211 457.884697,344.358393 C453.855991,338.315334 448.442418,331.44765 441.203337,324.37853 C431.383366,314.734816 418.290073,304.770064 400.85333,296.045397 C378.695448,284.947572 357.544743,279.741729 338.723133,277.658132 C325.818684,276.229201 313.984361,276.323624 303.786699,277.104185 C301.457604,281.712018 298.687868,286.33244 295.666339,290.663298 C293.90378,294.698299 291.76353,298.50039 289.182641,302.012918 Z M241.089965,226.814606 C218.743237,226.814606 200.614061,244.950077 200.614061,267.29051 C200.614061,289.630942 218.743237,307.766413 241.089965,307.766413 C263.436692,307.766413 281.565869,289.630942 281.565869,267.29051 C281.565869,244.950077 263.436692,226.814606 241.089965,226.814606 Z M313.417824,250.432894 C321.601133,248.783642 330.539824,246.429367 339.919155,243.055326 C357.733588,236.653461 377.058786,226.65094 396.069242,210.687193 C410.988043,198.141551 421.37455,185.388179 428.739528,173.717522 C434.027205,165.169112 437.741168,157.225008 440.259109,150.401387 C439.188984,150.344733 438.118859,150.212542 437.048734,149.998517 C436.104506,149.87262 433.334771,149.589351 429.243116,149.696364 C426.662227,154.939976 423.263006,160.819369 418.793661,167.013504 C411.365734,177.204871 401.042176,188.183094 386.626963,198.701793 C368.497786,211.952458 350.431559,219.827319 333.939044,224.51069 C330.036236,225.631174 326.196375,226.562812 322.419464,227.337079 C318.201912,236.023976 315.369228,243.974375 313.417824,250.432894 Z M404.944984,153.863556 C404.126654,154.102761 403.371271,154.36085 402.55294,154.631528 C392.166433,158.093697 380.33211,163.828308 367.868301,173.006204 C354.64911,182.700277 344.514397,193.332284 336.70878,203.850983 C349.10964,199.557893 362.265882,193.118259 375.485073,183.455659 C388.01183,174.302943 397.076418,164.785126 403.497168,155.915678 C404.000757,155.229539 404.441396,154.5434 404.944984,153.863556 Z M192.304855,211.291499 C186.95423,204.795211 180.722326,198.003064 173.357348,191.299046 C159.319826,178.583443 141.442444,166.163699 118.466231,156.885086 C100.400004,149.595646 84.2222319,146.341207 70.4994527,145.35921 C60.4276881,144.635302 51.6778426,145.107416 44.5017104,146.064234 C44.9423501,147.039936 45.3200413,148.059702 45.6347839,149.117237 C45.9495266,150.017401 47.0196515,152.547932 49.0340045,156.129703 C54.8252691,155.953447 61.6237101,156.211536 69.2404821,157.281661 C81.7042907,159.04422 96.2454008,163.028862 112.297276,170.8093 C132.440805,180.616681 147.863194,192.910528 159.760466,205.267325 C162.59315,208.219611 165.236988,211.184486 167.629032,214.117888 C177.323105,213.777966 185.632311,212.550469 192.304855,211.291499 Z M249.210325,208.483994 C241.152913,199.413111 230.829355,186.156151 222.331303,168.366897 C214.966326,152.913033 208.860318,134.141782 206.845965,111.782465 C205.209304,94.0372747 206.594171,79.0240507 209.363906,66.7302031 C211.000568,59.2645076 213.140818,52.8185783 215.406965,47.4175946 C218.869134,39.0328506 222.520149,33.1471631 224.849244,29.7920066 C226.108215,28.0105632 226.989494,26.9467331 227.241289,26.606811 C227.367186,26.4872088 227.430134,26.3739015 227.556031,26.266889 C229.066796,24.6302272 229.129744,22.1689398 227.744877,20.4882141 C227.61898,20.362317 227.556031,20.23642 227.430134,20.1168178 C226.422958,19.1600001 225.101039,18.7571295 223.842068,18.908206 C222.89784,19.0152185 222.016561,19.4180891 221.324127,20.1105229 C221.324127,20.1357023 221.261178,20.1608817 221.261178,20.1860611 C221.19823,20.2553045 220.820539,20.5826369 220.31695,21.1680582 C218.1767,23.4279103 213.014921,29.5276228 207.538399,39.6182719 C204.139179,46.0264321 200.614061,54.0460746 197.718429,63.7149686 C193.81562,76.915275 191.171782,93.1811748 191.612421,112.657449 C192.178958,137.44658 197.529583,158.578401 204.453921,176.159925 C209.238009,188.246042 214.903377,198.63255 220.379899,207.313152 C225.541678,207.206139 230.892303,207.457933 236.17998,208.131483 C237.816641,207.999291 239.453303,207.930047 241.089965,207.930047 C243.796752,207.930047 246.503538,208.118893 249.210325,208.483994 Z M292.833655,320.570144 C298.436074,326.770574 305.04567,333.222798 312.788339,339.511356 C327.455346,351.452692 346.025162,362.89044 369.442014,370.916377 C387.885933,377.217525 404.189602,379.590684 417.97533,379.836184 C428.047094,380.01244 436.79694,379.068212 443.910124,377.721113 C443.406535,376.77059 442.965896,375.776004 442.588205,374.737353 C442.210513,373.856074 441.07744,371.382196 438.811293,367.913732 C433.020028,368.411026 426.221587,368.518038 418.604815,367.857079 C406.078058,366.774364 391.285154,363.582874 374.918536,356.67742 C354.208471,347.971639 338.093647,336.533891 325.629839,324.838054 C322.608309,322.036845 319.838574,319.223046 317.257684,316.421836 C307.626559,317.284231 299.380302,318.958662 292.833655,320.570144 Z M422.759418,349.230609 C422.129933,348.682957 421.500447,348.12901 420.870962,347.575063 C412.498808,340.449289 401.545764,333.298337 387.193499,327.324521 C372.085853,321.010784 357.796537,317.819293 344.703243,316.535144 C354.775007,324.938772 367.112919,332.920645 382.220566,339.265857 C396.509882,345.277442 409.288433,348.103831 420.241477,349.048058 C421.059808,349.117302 421.941087,349.18025 422.759418,349.230609 Z M185.317569,287.679538 C181.037069,299.016568 174.175679,314.344535 162.467253,330.188679 C152.269591,343.949228 138.483863,358.100057 119.725202,370.393904 C104.806401,380.150926 90.8947759,385.948486 78.7457099,389.278463 C71.3807321,391.305406 64.6452395,392.419595 58.8539749,392.986131 C49.7893868,393.861116 42.9279972,393.395297 38.8363428,392.891709 C36.6960929,392.627325 35.3112252,392.350351 34.8705855,392.255928 C34.7446885,392.224454 34.6187914,392.19298 34.4928944,392.148916 C32.2896959,391.588674 30.0864974,392.677684 29.2681665,394.673152 C29.205218,394.824228 29.1422695,394.987895 29.0793209,395.151561 C28.7016298,396.467185 28.9534239,397.820578 29.7088062,398.865524 C30.2123944,399.627201 30.9677768,400.231507 31.9120047,400.53366 C31.9749532,400.54625 32.0379018,400.558839 32.0379018,400.571429 C32.1637988,400.602903 32.6044385,400.747685 33.3598209,400.94912 C36.3184017,401.748567 44.1869678,403.492241 55.6435999,403.548894 C62.8826807,403.586664 71.6325262,402.938294 81.5154451,400.94912 C94.9864302,398.223449 110.660614,392.948362 127.593768,383.42425 C149.248062,371.294068 165.425834,356.7026 177.700797,342.312566 C186.135899,332.410762 192.682546,322.590792 197.781377,313.67728 C195.263436,309.151281 192.934341,304.28536 191.108833,299.306131 C188.779738,295.680296 186.828333,291.790077 185.317569,287.679538 Z M229.822178,325.580847 C237.313053,335.073485 246.881229,348.865508 254.435053,367.082812 C260.9817,382.914367 266.017582,401.987771 266.835913,424.422626 C267.528347,442.230765 265.325148,457.143272 261.925928,469.273453 C259.848626,476.638431 257.330685,482.958463 254.812744,488.23355 C250.909935,496.416858 246.944178,502.101111 244.426237,505.31778 C243.104318,507.02998 242.16009,508.049747 241.845347,508.370784 C241.782399,508.484091 241.656502,508.591104 241.530605,508.698116 C239.956891,510.24665 239.768046,512.701643 241.027016,514.451612 C241.152913,514.583804 241.215862,514.715996 241.341759,514.841893 C242.285987,515.849069 243.544957,516.321183 244.866877,516.23935 C245.748156,516.182696 246.692384,515.830185 247.447766,515.181815 C247.447766,515.156635 247.510715,515.131456 247.510715,515.106277 C247.573663,515.043328 247.951354,514.73488 248.517891,514.174638 C250.72109,512.034388 256.26056,506.224239 262.24067,496.442038 C266.017582,490.229018 269.983339,482.410811 273.319611,472.911878 C277.977803,459.938186 281.50292,443.842248 282.069457,424.372268 C282.824839,399.583137 278.670236,378.199522 272.690126,360.265486 C268.283729,347.04 262.744259,335.721855 257.393634,326.373999 C254.686847,326.386588 251.917112,326.304755 249.147376,326.10332 C246.503538,326.462126 243.796752,326.650972 241.089965,326.650972 C237.187156,326.650972 233.473193,326.285871 229.822178,325.580847 Z M64.0787028,175.656337 C64.6452395,176.241758 65.2747248,176.827179 65.9042101,177.418896 C73.8357247,184.979014 84.4110775,192.715388 98.3856508,199.457175 C113.115606,206.570359 127.279025,210.529822 140.246422,212.518995 C130.615297,203.586599 118.780974,194.950061 104.051018,187.799108 C90.076445,181.025846 77.4237908,177.513318 66.5966439,175.977374 C65.7153645,175.857772 64.8970336,175.75076 64.0787028,175.656337 Z M295.666339,243.924016 C299.254405,232.372961 305.297464,216.692482 316.187559,200.237737 C325.629839,185.948421 338.597235,171.073684 356.663463,157.78525 C371.015728,147.235076 384.61261,140.694724 396.57283,136.716377 C403.811911,134.292859 410.484455,132.813568 416.212771,131.938584 C425.214411,130.578896 432.138749,130.667023 436.230403,130.950292 C438.370653,131.101368 439.755521,131.309098 440.19616,131.372047 C440.322057,131.397226 440.510903,131.422406 440.6368,131.45388 C442.77705,131.900815 444.980249,130.692203 445.672682,128.658965 C445.735631,128.501594 445.798579,128.337928 445.861528,128.167967 C446.113322,126.833458 445.798579,125.498949 445.043197,124.491773 C444.47666,123.76157 443.658329,123.201328 442.714102,122.949534 C442.651153,122.936944 442.651153,122.930649 442.588205,122.91806 C442.525256,122.89288 442.021668,122.773278 441.266285,122.609612 C438.244756,121.973832 430.313241,120.658207 418.919558,121.218449 C411.617528,121.577256 402.930632,122.68515 393.17361,125.215681 C379.828522,128.66526 364.532029,134.771268 348.102463,145.201839 C327.140603,158.477683 311.781162,173.925252 300.261582,188.957361 C292.393016,199.299804 286.412905,209.459697 281.817663,218.631297 C284.524449,223.025104 287.105339,227.765129 289.245589,232.637345 C291.76353,236.137283 293.90378,239.914195 295.666339,243.924016 Z M71.3177835,371.703234 C72.1361144,371.501799 72.9544453,371.294068 73.7727761,371.067454 C84.2851804,368.171821 96.4342464,363.079285 109.401643,354.593824 C123.061474,345.629953 133.762724,335.551894 142.134878,325.473835 C129.545172,329.093375 116.011239,334.809101 102.28846,343.747792 C89.3210627,352.208075 79.7528864,361.222304 72.8914967,369.72665 C72.32496,370.393904 71.8213718,371.048569 71.3177835,371.703234 Z M167.943775,280.220137 C159.634569,281.422454 150.569981,283.285731 141.064753,286.149889 C122.935577,291.588642 103.043842,300.521038 83.2780039,315.439839 C67.6667689,327.160855 56.5878279,339.335101 48.6563133,350.590297 C42.8650487,358.836555 38.7104458,366.579224 35.877762,373.251768 C36.947887,373.365075 37.9550634,373.560215 39.088137,373.830894 C40.0323649,374.00715 42.6762031,374.4352 46.830806,374.554802 C49.6634897,369.449677 53.3774529,363.771719 58.2244896,357.829378 C66.1560042,348.047177 77.0460996,337.641785 92.0278494,327.922532 C110.786511,315.666454 129.293378,308.779885 145.974738,304.990383 C150.003444,304.083925 153.906253,303.360016 157.683165,302.787185 C162.341356,294.345787 165.614679,286.559054 167.943775,280.220137 Z M214.462737,336.622019 C211.189414,344.352098 208.104936,353.070469 205.649943,362.726774 C200.991752,381.044795 198.410863,402.680205 200.991752,427.343438 C203.006105,446.718995 207.664296,462.519076 213.266715,475.115076 C217.35837,484.337036 221.827715,491.846795 226.045267,497.763957 C226.7377,496.907857 227.430134,496.089526 228.248465,495.308964 C228.87795,494.591351 230.640509,492.50146 232.843708,489.039291 C229.948075,483.959345 226.989494,477.847043 224.408605,470.645731 C220.065156,458.805113 216.791833,444.094042 216.162348,426.279608 C215.344017,403.844753 218.995031,384.450311 224.345656,368.190706 C225.667575,364.294192 227.052443,360.586524 228.500259,357.067701 C223.653222,348.701842 218.680289,341.897106 214.462737,336.622019 Z M243.041369,466.579256 C243.293163,465.786105 243.482009,464.980363 243.733803,464.162032 C246.692384,453.611859 248.58084,440.631873 247.951354,425.14024 C247.384818,408.773622 244.237391,394.433947 239.956891,382.045677 C236.557671,394.710921 234.480369,409.252031 235.046906,425.612354 C235.613443,441.103987 238.383178,453.914012 242.16009,464.218686 C242.411884,465.024427 242.726627,465.811284 243.041369,466.579256 Z M228.374362,68.3983391 C228.122568,69.2040803 227.933722,70.0224111 227.744877,70.8533317 C225.352833,81.5482867 224.219759,94.6101064 225.667575,110.05138 C227.115392,126.355049 231.0182,140.505878 235.991134,152.642355 C238.697921,139.80715 240.01984,125.184207 238.509075,108.874243 C237.124208,93.4329689 233.662038,80.7929044 229.381539,70.7085501 C229.003847,69.9216935 228.689105,69.1537214 228.374362,68.3983391 Z M263.877332,196.624492 C266.710016,188.724451 269.353854,179.855004 271.24231,170.085392 C274.956273,151.534461 276.341141,129.792039 272.438332,105.305061 C269.416803,86.067991 263.877332,70.5448839 257.645428,58.2699209 C253.050185,49.280871 248.1402,42.0292005 243.607906,36.3449484 C242.978421,37.2325226 242.348935,38.0949175 241.593553,38.9132484 C240.964068,39.6623358 239.327406,41.8403549 237.313053,45.4221262 C240.46048,50.3384063 243.733803,56.2870422 246.755332,63.3309826 C251.665318,74.9261015 255.756972,89.4357373 257.330685,107.187222 C259.345038,129.552835 256.764148,149.110942 252.294803,165.641226 C251.224678,169.594393 250.028656,173.371305 248.769685,176.965666 C254.057362,185.060847 259.407987,191.582314 263.877332,196.624492 Z M194.885745,230.018686 C182.988473,232.21559 166.307113,234.229943 146.667172,232.341487 C129.608121,230.704825 110.40882,226.22289 90.1393935,216.459573 C74.1504673,208.710609 62.0014013,199.778213 52.8738647,191.085021 C47.3343942,185.80364 42.9279972,180.64186 39.4028796,175.9459 C33.9893061,168.662755 30.8418797,162.500094 29.205218,158.760952 C28.3239386,156.771778 27.8203504,155.468744 27.6944533,155.053283 C27.6315048,154.908502 27.6315048,154.76372 27.5685562,154.618939 C26.939071,152.491278 24.8617695,151.156769 22.7215195,151.465217 C22.5956225,151.490397 22.4067769,151.521871 22.2179313,151.565935 C20.8960122,151.918447 19.8888358,152.837495 19.3852475,154.002043 C19.0075564,154.845553 18.8816593,155.814961 19.0705049,156.784368 C19.0705049,156.815842 19.0705049,156.853611 19.1334534,156.89138 C19.1334534,156.985803 19.2593505,157.445327 19.4481961,158.2133 C20.3294755,161.178175 22.8474166,168.782357 28.7016298,178.621212 C32.4155929,184.878296 37.5144237,192.029249 44.3128648,199.47606 C53.5662985,209.635952 66.1560042,220.299433 83.0891584,229.949443 C104.617555,242.2307 125.453518,248.569617 144.086282,251.66039 C156.927782,253.78805 168.762106,254.335703 179.022716,254.109088 C181.603605,249.627153 184.562186,245.157807 187.83551,240.996909 C189.786914,237.068921 192.178958,233.392727 194.885745,230.018686 Z"></path>
                </g>
            </g>
        </g>
        <g id="Group" transform="translate(305.7914, 274.4446)" fill="#FFFFFF">
            <g id="Shape" transform="translate(0, 0)">
                <g transform="translate(251.9021, 274.8183) rotate(1.7321) translate(-251.9021, -274.8183)translate(7.9761, 7.2507)">
                    <path d="M133.133239,268.826454 C114.626371,265.018068 94.482842,258.188152 73.7098276,246.353829 C54.7623205,235.551862 40.7247987,223.585346 30.3382915,212.216842 C11.5166815,191.626378 4.15170365,172.71664 1.75965957,164.866959 C-1.07302422,157.974095 -0.380590403,150.464336 3.08157866,144.433867 C5.97721097,139.240613 10.8242477,135.161548 16.9932035,133.424169 C24.798821,130.434114 44.1240192,124.529542 71.8213718,126.518715 C87.2437612,127.62661 105.309989,131.214676 125.516467,139.372805 C149.814599,149.180186 168.950951,162.179057 184.121547,175.587093 C177.826694,157.78525 173.2944,136.980761 172.727863,113.098089 C172.224275,91.3053086 175.245804,73.1131839 179.652201,58.3454591 C187.583716,31.5923345 199.984576,15.5467546 205.461098,9.40927306 C209.867495,3.422868 216.728884,0.168429077 223.653222,0.0110577555 C229.570384,-0.171492977 235.613443,1.90580846 240.271634,6.27443634 C246.818281,11.3984466 261.862979,24.938675 274.452685,49.7215107 C281.439972,63.4568796 287.671876,80.8117889 291.134045,102.333891 C295.225699,128.218326 293.966729,151.326731 290.315714,171.212171 C302.338883,156.664766 317.761273,142.041823 337.96775,129.250682 C356.411669,117.580024 373.533669,110.787878 388.45247,106.929133 C415.457389,99.9418467 435.600918,102.308711 443.658329,103.832066 C451.086256,104.549679 457.381109,108.704282 461.095072,114.571085 C464.368395,119.575493 465.627366,125.801102 464.305447,132.045596 C463.29827,140.317033 459.45841,160.183588 444.728454,183.738928 C436.545146,196.800747 424.899668,211.096358 408.218308,225.13388 C388.137727,242.010381 367.679456,252.837528 348.794897,259.931827 C367.427662,262.733036 387.948882,268.467647 409.288433,279.162602 C428.802477,288.919624 443.469484,300.111872 454.422528,310.90125 C474.377211,330.446768 482.749366,348.934751 485.582049,356.639651 C488.792424,363.368849 488.477682,370.910082 485.393204,377.110512 C482.749366,382.454843 478.091175,386.791996 472.048116,388.863003 C464.431344,392.268518 445.420888,399.211741 417.660587,398.714447 C402.238198,398.443769 383.983124,395.8377 363.336007,388.78117 C337.464162,379.936901 317.068839,367.322016 300.891067,354.153184 C295.099802,349.444634 289.875074,344.660546 285.153935,339.939406 C287.105339,344.459111 288.930846,349.236904 290.567508,354.266491 C297.240052,374.038624 301.835295,397.619143 300.954015,424.951394 C300.32453,446.73788 296.295824,464.741159 291.134045,479.250795 C281.754714,505.531805 268.472575,520.891246 262.68131,526.72028 C257.96017,532.461186 250.972884,535.337934 244.048546,535.123909 C238.068435,534.985422 232.214222,532.580788 227.744877,527.966661 C221.512972,522.496434 207.223657,508.169349 195.95587,482.738143 C189.786914,468.650263 184.436289,450.986905 182.170142,429.307432 C179.463355,403.234152 181.981297,380.232759 186.765385,360.573934 C173.923885,374.44779 157.683165,388.214633 136.847202,399.89788 C117.836746,410.555066 100.337055,416.409279 85.2294083,419.455988 C57.909747,424.976574 37.8921149,421.526994 29.8976518,419.569295 C22.532674,418.448811 16.4896152,413.960581 13.0903947,407.904933 C10.1318139,402.736858 9.18758593,396.4483 10.8242477,390.279345 C12.2720638,382.077151 17.182049,362.4498 33.2339238,339.725381 C42.1096663,327.123086 54.4475779,313.475845 71.8843203,300.357372 C92.8461803,284.588765 113.80804,274.882102 133.133239,268.826454 Z M289.182641,302.012918 C300.954015,299.180234 317.509478,296.265717 337.275316,297.090343 C354.334368,297.801661 373.785463,301.238651 394.495529,309.900369 C410.925095,316.768053 423.577749,325.033195 433.145925,333.222798 C438.93719,338.195732 443.595381,343.112012 447.372293,347.612832 C453.163557,354.593824 456.625726,360.573934 458.514182,364.218654 C459.45841,366.157469 460.024947,367.435324 460.213792,367.844489 C460.213792,367.982976 460.276741,368.121463 460.33969,368.266244 C461.095072,370.356135 463.235322,371.577337 465.312623,371.155582 C465.501469,371.124107 465.690314,371.080043 465.816212,371.029685 C467.138131,370.607929 468.145307,369.632227 468.585947,368.4425 C468.900689,367.580105 468.963638,366.604403 468.711844,365.647585 C468.711844,365.616111 468.648895,365.578342 468.648895,365.546868 C468.648895,365.44615 468.522998,364.999216 468.271204,364.237538 C467.201079,361.329316 464.305447,353.876211 457.884697,344.358393 C453.855991,338.315334 448.442418,331.44765 441.203337,324.37853 C431.383366,314.734816 418.290073,304.770064 400.85333,296.045397 C378.695448,284.947572 357.544743,279.741729 338.723133,277.658132 C325.818684,276.229201 313.984361,276.323624 303.786699,277.104185 C301.457604,281.712018 298.687868,286.33244 295.666339,290.663298 C293.90378,294.698299 291.76353,298.50039 289.182641,302.012918 Z M241.089965,226.814606 C218.743237,226.814606 200.614061,244.950077 200.614061,267.29051 C200.614061,289.630942 218.743237,307.766413 241.089965,307.766413 C263.436692,307.766413 281.565869,289.630942 281.565869,267.29051 C281.565869,244.950077 263.436692,226.814606 241.089965,226.814606 Z M313.417824,250.432894 C321.601133,248.783642 330.539824,246.429367 339.919155,243.055326 C357.733588,236.653461 377.058786,226.65094 396.069242,210.687193 C410.988043,198.141551 421.37455,185.388179 428.739528,173.717522 C434.027205,165.169112 437.741168,157.225008 440.259109,150.401387 C439.188984,150.344733 438.118859,150.212542 437.048734,149.998517 C436.104506,149.87262 433.334771,149.589351 429.243116,149.696364 C426.662227,154.939976 423.263006,160.819369 418.793661,167.013504 C411.365734,177.204871 401.042176,188.183094 386.626963,198.701793 C368.497786,211.952458 350.431559,219.827319 333.939044,224.51069 C330.036236,225.631174 326.196375,226.562812 322.419464,227.337079 C318.201912,236.023976 315.369228,243.974375 313.417824,250.432894 Z M404.944984,153.863556 C404.126654,154.102761 403.371271,154.36085 402.55294,154.631528 C392.166433,158.093697 380.33211,163.828308 367.868301,173.006204 C354.64911,182.700277 344.514397,193.332284 336.70878,203.850983 C349.10964,199.557893 362.265882,193.118259 375.485073,183.455659 C388.01183,174.302943 397.076418,164.785126 403.497168,155.915678 C404.000757,155.229539 404.441396,154.5434 404.944984,153.863556 Z M192.304855,211.291499 C186.95423,204.795211 180.722326,198.003064 173.357348,191.299046 C159.319826,178.583443 141.442444,166.163699 118.466231,156.885086 C100.400004,149.595646 84.2222319,146.341207 70.4994527,145.35921 C60.4276881,144.635302 51.6778426,145.107416 44.5017104,146.064234 C44.9423501,147.039936 45.3200413,148.059702 45.6347839,149.117237 C45.9495266,150.017401 47.0196515,152.547932 49.0340045,156.129703 C54.8252691,155.953447 61.6237101,156.211536 69.2404821,157.281661 C81.7042907,159.04422 96.2454008,163.028862 112.297276,170.8093 C132.440805,180.616681 147.863194,192.910528 159.760466,205.267325 C162.59315,208.219611 165.236988,211.184486 167.629032,214.117888 C177.323105,213.777966 185.632311,212.550469 192.304855,211.291499 Z M249.210325,208.483994 C241.152913,199.413111 230.829355,186.156151 222.331303,168.366897 C214.966326,152.913033 208.860318,134.141782 206.845965,111.782465 C205.209304,94.0372747 206.594171,79.0240507 209.363906,66.7302031 C211.000568,59.2645076 213.140818,52.8185783 215.406965,47.4175946 C218.869134,39.0328506 222.520149,33.1471631 224.849244,29.7920066 C226.108215,28.0105632 226.989494,26.9467331 227.241289,26.606811 C227.367186,26.4872088 227.430134,26.3739015 227.556031,26.266889 C229.066796,24.6302272 229.129744,22.1689398 227.744877,20.4882141 C227.61898,20.362317 227.556031,20.23642 227.430134,20.1168178 C226.422958,19.1600001 225.101039,18.7571295 223.842068,18.908206 C222.89784,19.0152185 222.016561,19.4180891 221.324127,20.1105229 C221.324127,20.1357023 221.261178,20.1608817 221.261178,20.1860611 C221.19823,20.2553045 220.820539,20.5826369 220.31695,21.1680582 C218.1767,23.4279103 213.014921,29.5276228 207.538399,39.6182719 C204.139179,46.0264321 200.614061,54.0460746 197.718429,63.7149686 C193.81562,76.915275 191.171782,93.1811748 191.612421,112.657449 C192.178958,137.44658 197.529583,158.578401 204.453921,176.159925 C209.238009,188.246042 214.903377,198.63255 220.379899,207.313152 C225.541678,207.206139 230.892303,207.457933 236.17998,208.131483 C237.816641,207.999291 239.453303,207.930047 241.089965,207.930047 C243.796752,207.930047 246.503538,208.118893 249.210325,208.483994 Z M292.833655,320.570144 C298.436074,326.770574 305.04567,333.222798 312.788339,339.511356 C327.455346,351.452692 346.025162,362.89044 369.442014,370.916377 C387.885933,377.217525 404.189602,379.590684 417.97533,379.836184 C428.047094,380.01244 436.79694,379.068212 443.910124,377.721113 C443.406535,376.77059 442.965896,375.776004 442.588205,374.737353 C442.210513,373.856074 441.07744,371.382196 438.811293,367.913732 C433.020028,368.411026 426.221587,368.518038 418.604815,367.857079 C406.078058,366.774364 391.285154,363.582874 374.918536,356.67742 C354.208471,347.971639 338.093647,336.533891 325.629839,324.838054 C322.608309,322.036845 319.838574,319.223046 317.257684,316.421836 C307.626559,317.284231 299.380302,318.958662 292.833655,320.570144 Z M422.759418,349.230609 C422.129933,348.682957 421.500447,348.12901 420.870962,347.575063 C412.498808,340.449289 401.545764,333.298337 387.193499,327.324521 C372.085853,321.010784 357.796537,317.819293 344.703243,316.535144 C354.775007,324.938772 367.112919,332.920645 382.220566,339.265857 C396.509882,345.277442 409.288433,348.103831 420.241477,349.048058 C421.059808,349.117302 421.941087,349.18025 422.759418,349.230609 Z M185.317569,287.679538 C181.037069,299.016568 174.175679,314.344535 162.467253,330.188679 C152.269591,343.949228 138.483863,358.100057 119.725202,370.393904 C104.806401,380.150926 90.8947759,385.948486 78.7457099,389.278463 C71.3807321,391.305406 64.6452395,392.419595 58.8539749,392.986131 C49.7893868,393.861116 42.9279972,393.395297 38.8363428,392.891709 C36.6960929,392.627325 35.3112252,392.350351 34.8705855,392.255928 C34.7446885,392.224454 34.6187914,392.19298 34.4928944,392.148916 C32.2896959,391.588674 30.0864974,392.677684 29.2681665,394.673152 C29.205218,394.824228 29.1422695,394.987895 29.0793209,395.151561 C28.7016298,396.467185 28.9534239,397.820578 29.7088062,398.865524 C30.2123944,399.627201 30.9677768,400.231507 31.9120047,400.53366 C31.9749532,400.54625 32.0379018,400.558839 32.0379018,400.571429 C32.1637988,400.602903 32.6044385,400.747685 33.3598209,400.94912 C36.3184017,401.748567 44.1869678,403.492241 55.6435999,403.548894 C62.8826807,403.586664 71.6325262,402.938294 81.5154451,400.94912 C94.9864302,398.223449 110.660614,392.948362 127.593768,383.42425 C149.248062,371.294068 165.425834,356.7026 177.700797,342.312566 C186.135899,332.410762 192.682546,322.590792 197.781377,313.67728 C195.263436,309.151281 192.934341,304.28536 191.108833,299.306131 C188.779738,295.680296 186.828333,291.790077 185.317569,287.679538 Z M229.822178,325.580847 C237.313053,335.073485 246.881229,348.865508 254.435053,367.082812 C260.9817,382.914367 266.017582,401.987771 266.835913,424.422626 C267.528347,442.230765 265.325148,457.143272 261.925928,469.273453 C259.848626,476.638431 257.330685,482.958463 254.812744,488.23355 C250.909935,496.416858 246.944178,502.101111 244.426237,505.31778 C243.104318,507.02998 242.16009,508.049747 241.845347,508.370784 C241.782399,508.484091 241.656502,508.591104 241.530605,508.698116 C239.956891,510.24665 239.768046,512.701643 241.027016,514.451612 C241.152913,514.583804 241.215862,514.715996 241.341759,514.841893 C242.285987,515.849069 243.544957,516.321183 244.866877,516.23935 C245.748156,516.182696 246.692384,515.830185 247.447766,515.181815 C247.447766,515.156635 247.510715,515.131456 247.510715,515.106277 C247.573663,515.043328 247.951354,514.73488 248.517891,514.174638 C250.72109,512.034388 256.26056,506.224239 262.24067,496.442038 C266.017582,490.229018 269.983339,482.410811 273.319611,472.911878 C277.977803,459.938186 281.50292,443.842248 282.069457,424.372268 C282.824839,399.583137 278.670236,378.199522 272.690126,360.265486 C268.283729,347.04 262.744259,335.721855 257.393634,326.373999 C254.686847,326.386588 251.917112,326.304755 249.147376,326.10332 C246.503538,326.462126 243.796752,326.650972 241.089965,326.650972 C237.187156,326.650972 233.473193,326.285871 229.822178,325.580847 Z M64.0787028,175.656337 C64.6452395,176.241758 65.2747248,176.827179 65.9042101,177.418896 C73.8357247,184.979014 84.4110775,192.715388 98.3856508,199.457175 C113.115606,206.570359 127.279025,210.529822 140.246422,212.518995 C130.615297,203.586599 118.780974,194.950061 104.051018,187.799108 C90.076445,181.025846 77.4237908,177.513318 66.5966439,175.977374 C65.7153645,175.857772 64.8970336,175.75076 64.0787028,175.656337 Z M295.666339,243.924016 C299.254405,232.372961 305.297464,216.692482 316.187559,200.237737 C325.629839,185.948421 338.597235,171.073684 356.663463,157.78525 C371.015728,147.235076 384.61261,140.694724 396.57283,136.716377 C403.811911,134.292859 410.484455,132.813568 416.212771,131.938584 C425.214411,130.578896 432.138749,130.667023 436.230403,130.950292 C438.370653,131.101368 439.755521,131.309098 440.19616,131.372047 C440.322057,131.397226 440.510903,131.422406 440.6368,131.45388 C442.77705,131.900815 444.980249,130.692203 445.672682,128.658965 C445.735631,128.501594 445.798579,128.337928 445.861528,128.167967 C446.113322,126.833458 445.798579,125.498949 445.043197,124.491773 C444.47666,123.76157 443.658329,123.201328 442.714102,122.949534 C442.651153,122.936944 442.651153,122.930649 442.588205,122.91806 C442.525256,122.89288 442.021668,122.773278 441.266285,122.609612 C438.244756,121.973832 430.313241,120.658207 418.919558,121.218449 C411.617528,121.577256 402.930632,122.68515 393.17361,125.215681 C379.828522,128.66526 364.532029,134.771268 348.102463,145.201839 C327.140603,158.477683 311.781162,173.925252 300.261582,188.957361 C292.393016,199.299804 286.412905,209.459697 281.817663,218.631297 C284.524449,223.025104 287.105339,227.765129 289.245589,232.637345 C291.76353,236.137283 293.90378,239.914195 295.666339,243.924016 Z M71.3177835,371.703234 C72.1361144,371.501799 72.9544453,371.294068 73.7727761,371.067454 C84.2851804,368.171821 96.4342464,363.079285 109.401643,354.593824 C123.061474,345.629953 133.762724,335.551894 142.134878,325.473835 C129.545172,329.093375 116.011239,334.809101 102.28846,343.747792 C89.3210627,352.208075 79.7528864,361.222304 72.8914967,369.72665 C72.32496,370.393904 71.8213718,371.048569 71.3177835,371.703234 Z M167.943775,280.220137 C159.634569,281.422454 150.569981,283.285731 141.064753,286.149889 C122.935577,291.588642 103.043842,300.521038 83.2780039,315.439839 C67.6667689,327.160855 56.5878279,339.335101 48.6563133,350.590297 C42.8650487,358.836555 38.7104458,366.579224 35.877762,373.251768 C36.947887,373.365075 37.9550634,373.560215 39.088137,373.830894 C40.0323649,374.00715 42.6762031,374.4352 46.830806,374.554802 C49.6634897,369.449677 53.3774529,363.771719 58.2244896,357.829378 C66.1560042,348.047177 77.0460996,337.641785 92.0278494,327.922532 C110.786511,315.666454 129.293378,308.779885 145.974738,304.990383 C150.003444,304.083925 153.906253,303.360016 157.683165,302.787185 C162.341356,294.345787 165.614679,286.559054 167.943775,280.220137 Z M214.462737,336.622019 C211.189414,344.352098 208.104936,353.070469 205.649943,362.726774 C200.991752,381.044795 198.410863,402.680205 200.991752,427.343438 C203.006105,446.718995 207.664296,462.519076 213.266715,475.115076 C217.35837,484.337036 221.827715,491.846795 226.045267,497.763957 C226.7377,496.907857 227.430134,496.089526 228.248465,495.308964 C228.87795,494.591351 230.640509,492.50146 232.843708,489.039291 C229.948075,483.959345 226.989494,477.847043 224.408605,470.645731 C220.065156,458.805113 216.791833,444.094042 216.162348,426.279608 C215.344017,403.844753 218.995031,384.450311 224.345656,368.190706 C225.667575,364.294192 227.052443,360.586524 228.500259,357.067701 C223.653222,348.701842 218.680289,341.897106 214.462737,336.622019 Z M243.041369,466.579256 C243.293163,465.786105 243.482009,464.980363 243.733803,464.162032 C246.692384,453.611859 248.58084,440.631873 247.951354,425.14024 C247.384818,408.773622 244.237391,394.433947 239.956891,382.045677 C236.557671,394.710921 234.480369,409.252031 235.046906,425.612354 C235.613443,441.103987 238.383178,453.914012 242.16009,464.218686 C242.411884,465.024427 242.726627,465.811284 243.041369,466.579256 Z M228.374362,68.3983391 C228.122568,69.2040803 227.933722,70.0224111 227.744877,70.8533317 C225.352833,81.5482867 224.219759,94.6101064 225.667575,110.05138 C227.115392,126.355049 231.0182,140.505878 235.991134,152.642355 C238.697921,139.80715 240.01984,125.184207 238.509075,108.874243 C237.124208,93.4329689 233.662038,80.7929044 229.381539,70.7085501 C229.003847,69.9216935 228.689105,69.1537214 228.374362,68.3983391 Z M263.877332,196.624492 C266.710016,188.724451 269.353854,179.855004 271.24231,170.085392 C274.956273,151.534461 276.341141,129.792039 272.438332,105.305061 C269.416803,86.067991 263.877332,70.5448839 257.645428,58.2699209 C253.050185,49.280871 248.1402,42.0292005 243.607906,36.3449484 C242.978421,37.2325226 242.348935,38.0949175 241.593553,38.9132484 C240.964068,39.6623358 239.327406,41.8403549 237.313053,45.4221262 C240.46048,50.3384063 243.733803,56.2870422 246.755332,63.3309826 C251.665318,74.9261015 255.756972,89.4357373 257.330685,107.187222 C259.345038,129.552835 256.764148,149.110942 252.294803,165.641226 C251.224678,169.594393 250.028656,173.371305 248.769685,176.965666 C254.057362,185.060847 259.407987,191.582314 263.877332,196.624492 Z M194.885745,230.018686 C182.988473,232.21559 166.307113,234.229943 146.667172,232.341487 C129.608121,230.704825 110.40882,226.22289 90.1393935,216.459573 C74.1504673,208.710609 62.0014013,199.778213 52.8738647,191.085021 C47.3343942,185.80364 42.9279972,180.64186 39.4028796,175.9459 C33.9893061,168.662755 30.8418797,162.500094 29.205218,158.760952 C28.3239386,156.771778 27.8203504,155.468744 27.6944533,155.053283 C27.6315048,154.908502 27.6315048,154.76372 27.5685562,154.618939 C26.939071,152.491278 24.8617695,151.156769 22.7215195,151.465217 C22.5956225,151.490397 22.4067769,151.521871 22.2179313,151.565935 C20.8960122,151.918447 19.8888358,152.837495 19.3852475,154.002043 C19.0075564,154.845553 18.8816593,155.814961 19.0705049,156.784368 C19.0705049,156.815842 19.0705049,156.853611 19.1334534,156.89138 C19.1334534,156.985803 19.2593505,157.445327 19.4481961,158.2133 C20.3294755,161.178175 22.8474166,168.782357 28.7016298,178.621212 C32.4155929,184.878296 37.5144237,192.029249 44.3128648,199.47606 C53.5662985,209.635952 66.1560042,220.299433 83.0891584,229.949443 C104.617555,242.2307 125.453518,248.569617 144.086282,251.66039 C156.927782,253.78805 168.762106,254.335703 179.022716,254.109088 C181.603605,249.627153 184.562186,245.157807 187.83551,240.996909 C189.786914,237.068921 192.178958,233.392727 194.885745,230.018686 Z"></path>
                </g>
            </g>
        </g>
    </g>
</svg>