<?xml version="1.0" encoding="UTF-8"?>
<svg width="1129px" height="1080px" viewBox="0 0 1129 1080" version="1.1" xmlns="http://www.w3.org/2000/svg" xmlns:xlink="http://www.w3.org/1999/xlink">
    <title>feature7_fg@0.5x</title>
    <g id="feature7_fg" stroke="none" stroke-width="1" fill="none" fill-rule="evenodd">
        <g id="Group" transform="translate(339, 347)" fill-rule="nonzero">
            <g transform="translate(12, 24)" fill="#FFFFFF">
                <path d="M339.964555,-7.92171666e-15 L110.045425,-7.92171666e-15 C92.1360728,-7.92171666e-15 77.5408645,14.593674 77.5408645,32.5011437 L77.5408645,394.498856 C77.5408645,412.406326 92.1360728,427 110.045425,427 L339.964555,427 C357.873908,427 372.469116,412.406326 372.469116,394.498856 L372.469116,32.5011437 C372.469116,14.593674 357.873908,-7.92171666e-15 339.964555,-7.92171666e-15 L339.964555,-7.92171666e-15 Z M349.442895,394.49948 C349.442895,399.737685 345.203124,404.049798 339.891573,404.049798 L110.041059,404.049798 C104.802303,404.049798 100.489737,399.810472 100.489737,394.49948 L100.489737,32.5017674 C100.489737,27.2635628 104.729508,22.9514496 110.041059,22.9514496 L339.960189,22.9514496 C345.198944,22.9514496 349.511511,27.1907753 349.511511,32.5017674 L349.511511,394.49948 L349.442895,394.49948 Z" id="Shape"></path>
                <path d="M236.672798,170.910273 L172.055411,133.609022 C168.010571,131.294479 162.942607,134.169392 162.942607,138.847226 L162.942607,288.152025 C162.942607,292.829885 167.986431,295.753859 172.055411,293.39023 L301.296423,218.787728 C305.341263,216.473185 305.341263,210.625798 301.296423,208.238219 L236.672798,170.910273 Z" id="Path"></path>
                <path d="M432.090648,37.1047811 L398.903672,37.1047811 C389.059797,37.1047811 380.994319,45.3883346 380.994319,55.4993719 L380.994319,371.398339 C380.994319,381.558026 389.03547,389.79293 398.903672,389.79293 L432.090648,389.79293 C441.934522,389.79293 450,381.509376 450,371.398339 L450,55.5180833 C450,45.3340715 441.95885,37.0991677 432.090648,37.0991677 L432.090648,37.1047811 Z M427.046824,366.943769 L404.020603,366.943769 L404.020603,60.0574781 L426.973841,60.0574781 L426.973841,366.943769 L427.046824,366.943769 Z" id="Shape"></path>
                <path d="M51.023346,37.1047811 L17.9093523,37.1047811 C8.06547751,37.1047811 0,45.3883346 0,55.4993719 L0,371.398339 C0,381.558026 8.04115008,389.79293 17.9093523,389.79293 L51.0963283,389.79293 C60.940203,389.79293 69.0056806,381.509376 69.0056806,371.398339 L68.9813095,55.5180833 C68.9325798,45.3340715 60.8915045,37.0991677 51.0233023,37.0991677 L51.023346,37.1047811 Z M45.979522,366.943769 L23.0262833,366.943769 L23.0262833,60.0574781 L45.979522,60.0574781 L45.979522,366.943769 Z" id="Shape"></path>
            </g>
            <path d="M339.964555,0 L110.045425,0 C92.1360728,0 77.5408645,14.593674 77.5408645,32.5011437 L77.5408645,394.498856 C77.5408645,412.406326 92.1360728,427 110.045425,427 L339.964555,427 C357.873908,427 372.469116,412.406326 372.469116,394.498856 L372.469116,32.5011437 C372.469116,14.593674 357.873908,0 339.964555,0 L339.964555,0 Z M349.442895,394.49948 C349.442895,399.737685 345.203124,404.049798 339.891573,404.049798 L110.041059,404.049798 C104.802303,404.049798 100.489737,399.810472 100.489737,394.49948 L100.489737,32.5017674 C100.489737,27.2635628 104.729508,22.9514496 110.041059,22.9514496 L339.960189,22.9514496 C345.198944,22.9514496 349.511511,27.1907753 349.511511,32.5017674 L349.511511,394.49948 L349.442895,394.49948 Z" id="Shape" fill="#000000"></path>
            <path d="M236.672798,170.910273 L172.055411,133.609022 C168.010571,131.294479 162.942607,134.169392 162.942607,138.847226 L162.942607,288.152025 C162.942607,292.829885 167.986431,295.753859 172.055411,293.39023 L301.296423,218.787728 C305.341263,216.473185 305.341263,210.625798 301.296423,208.238219 L236.672798,170.910273 Z" id="Path" fill="#000000"></path>
            <path d="M432.090648,37.1047811 L398.903672,37.1047811 C389.059797,37.1047811 380.994319,45.3883346 380.994319,55.4993719 L380.994319,371.398339 C380.994319,381.558026 389.03547,389.79293 398.903672,389.79293 L432.090648,389.79293 C441.934522,389.79293 450,381.509376 450,371.398339 L450,55.5180833 C450,45.3340715 441.95885,37.0991677 432.090648,37.0991677 L432.090648,37.1047811 Z M427.046824,366.943769 L404.020603,366.943769 L404.020603,60.0574781 L426.973841,60.0574781 L426.973841,366.943769 L427.046824,366.943769 Z" id="Shape" fill="#000000"></path>
            <path d="M51.023346,37.1047811 L17.9093523,37.1047811 C8.06547751,37.1047811 0,45.3883346 0,55.4993719 L0,371.398339 C0,381.558026 8.04115008,389.79293 17.9093523,389.79293 L51.0963283,389.79293 C60.940203,389.79293 69.0056806,381.509376 69.0056806,371.398339 L68.9813095,55.5180833 C68.9325798,45.3340715 60.8915045,37.0991677 51.0233023,37.0991677 L51.023346,37.1047811 Z M45.979522,366.943769 L23.0262833,366.943769 L23.0262833,60.0574781 L45.979522,60.0574781 L45.979522,366.943769 Z" id="Shape" fill="#000000"></path>
        </g>
    </g>
</svg>