<?xml version="1.0" encoding="UTF-8"?>
<svg width="1129px" height="1080px" viewBox="0 0 1129 1080" version="1.1" xmlns="http://www.w3.org/2000/svg" xmlns:xlink="http://www.w3.org/1999/xlink">
    <title>feature2_fg@0.5x</title>
    <g id="feature2_fg" stroke="none" stroke-width="1" fill="none" fill-rule="evenodd">
        <path d="M887.939173,589.910521 C887.617977,589.724679 887.261093,589.667497 886.918485,589.524541 C876.254798,581.583369 813.043543,535.94486 731.388534,504.630481 C744.707436,425.075805 743.558271,356.35 742.944431,338.273291 C743.886604,336.936658 744.464755,335.32841 744.464755,333.59865 C744.464755,329.960435 742.052221,326.765382 738.55476,325.764694 L582.382418,281.305567 C580.926332,280.898144 579.391732,280.898144 577.935646,281.305567 L421.763304,325.764694 C418.82972,326.600983 416.759794,329.009782 416.131678,331.904628 L415.096715,332.597962 C414.65418,336.171847 404.654296,419.150304 419.836132,512.164231 C340.229636,542.091942 279.238198,579.860757 268.567373,586.64399 C267.703715,586.815536 266.854331,587.122891 266.054911,587.580348 C262.914334,589.403029 261.365459,593.08413 262.243393,596.607981 L301.621949,754.116232 C301.993108,755.595821 302.771115,756.946749 303.870317,758.004619 L420.871095,870.739242 C422.427108,872.240273 424.454208,873.01938 426.509859,873.01938 C427.901705,873.01938 429.307828,872.661992 430.585471,871.918624 C430.842428,871.76852 431.02087,871.539792 431.256413,871.361098 C444.246983,865.707212 514.795768,833.763829 582.168288,778.933288 C644.34458,830.247127 704.579424,863.53429 720.96039,872.211682 C721.645607,873.2767 722.49499,874.241649 723.637018,874.906391 C724.907524,875.635464 726.306509,876 727.698356,876 C729.761144,876 731.809657,875.213745 733.36567,873.705566 L849.895362,760.484895 C850.980288,759.427025 851.751157,758.090392 852.115179,756.625099 L891.750691,598.952449 C892.642901,595.421451 891.086887,591.733202 887.939173,589.910521 Z M580.162601,297.616777 L706.599387,333.605798 L580.526623,369.501897 L509.185555,349.395221 L453.732953,333.605798 L580.162601,297.616777 Z M430.292827,344.084428 L504.474689,364.991654 L571.062065,383.947539 C570.412536,391.238264 569.556015,404.626037 569.855798,421.802127 C569.413262,429.96488 568.892211,437.820279 568.292647,443.774371 C567.250546,454.017125 565.865837,463.452181 564.723809,470.428404 C564.366925,472.39404 564.052867,474.31679 563.660295,476.318166 C519.406707,480.878443 475.431487,492.479273 435.403403,506.538936 C424.118737,434.761033 428.180075,368.122377 430.292827,344.084428 Z M316.825198,747.883377 L284.891237,620.145586 L378.972939,710.807896 L411.142443,838.767268 L316.825198,747.883377 Z M469.393014,644.369378 C443.961476,666.012824 418.351496,681.28046 401.813501,690.100808 C395.76789,693.281565 391.057024,695.54026 388.037787,696.934075 L283.727796,596.429287 C304.962381,583.584745 367.317115,547.731532 443.019302,521.284785 C443.411875,521.148977 443.797309,521.013169 444.197019,520.870214 C447.323321,519.783753 450.485311,518.725883 453.654439,517.675161 C482.940322,508.018524 520.198989,498.054533 559.577545,493.329858 C552.782478,521.692207 544.195854,545.7516 533.432239,566.587348 C517.058411,598.294855 493.311365,624.176928 469.564318,644.390821 L469.393014,644.369378 Z M490.491983,658.793577 C489.357092,657.178181 488.250753,655.70574 487.151551,654.240447 C486.680464,653.539966 486.195102,652.825189 485.752566,652.153299 C491.833866,646.735289 497.886615,640.959891 503.79661,634.798514 C522.147574,615.856924 536.465751,596.357809 547.136576,575.71505 C561.725985,547.509951 571.154855,517.925333 577.236154,490.770956 C583.431657,521.191864 594.452228,554.093047 613.602611,584.056497 C660.953951,658.135982 735.856719,702.81669 757.77652,714.817795 L722.644881,854.563839 C700.525225,842.341153 644.194689,809.40423 587.542958,761.928745 L587.685711,761.757198 C547.429221,728.026873 514.724391,693.374486 490.491983,658.793577 Z M765.906333,699.893252 C754.657356,693.024245 728.640529,676.948911 715.457242,667.356605 C704.508048,659.386841 695.450337,651.331305 690.461102,646.692403 C708.605073,606.221731 720.574955,562.51312 728.469225,520.941692 C795.934534,547.274075 851.258658,584.163714 870.894403,598.044683 L765.906333,699.893252 Z" id="Shape-Copy" fill="#FFFFFF" fill-rule="nonzero"></path>
        <path d="M879.939173,575.910521 C879.617977,575.724679 879.261093,575.667497 878.918485,575.524541 C868.254798,567.583369 805.043543,521.94486 723.388534,490.630481 C736.707436,411.075805 735.558271,342.35 734.944431,324.273291 C735.886604,322.936658 736.464755,321.32841 736.464755,319.59865 C736.464755,315.960435 734.052221,312.765382 730.55476,311.764694 L574.382418,267.305567 C572.926332,266.898144 571.391732,266.898144 569.935646,267.305567 L413.763304,311.764694 C410.82972,312.600983 408.759794,315.009782 408.131678,317.904628 L407.096715,318.597962 C406.65418,322.171847 396.654296,405.150304 411.836132,498.164231 C332.229636,528.091942 271.238198,565.860757 260.567373,572.64399 C259.703715,572.815536 258.854331,573.122891 258.054911,573.580348 C254.914334,575.403029 253.365459,579.08413 254.243393,582.607981 L293.621949,740.116232 C293.993108,741.595821 294.771115,742.946749 295.870317,744.004619 L412.871095,856.739242 C414.427108,858.240273 416.454208,859.01938 418.509859,859.01938 C419.901705,859.01938 421.307828,858.661992 422.585471,857.918624 C422.842428,857.76852 423.02087,857.539792 423.256413,857.361098 C436.246983,851.707212 506.795768,819.763829 574.168288,764.933288 C636.34458,816.247127 696.579424,849.53429 712.96039,858.211682 C713.645607,859.2767 714.49499,860.241649 715.637018,860.906391 C716.907524,861.635464 718.306509,862 719.698356,862 C721.761144,862 723.809657,861.213745 725.36567,859.705566 L841.895362,746.484895 C842.980288,745.427025 843.751157,744.090392 844.115179,742.625099 L883.750691,584.952449 C884.642901,581.421451 883.086887,577.733202 879.939173,575.910521 Z M572.162601,283.616777 L698.599387,319.605798 L572.526623,355.501897 L501.185555,335.395221 L445.732953,319.605798 L572.162601,283.616777 Z M422.292827,330.084428 L496.474689,350.991654 L563.062065,369.947539 C562.412536,377.238264 561.556015,390.626037 561.855798,407.802127 C561.413262,415.96488 560.892211,423.820279 560.292647,429.774371 C559.250546,440.017125 557.865837,449.452181 556.723809,456.428404 C556.366925,458.39404 556.052867,460.31679 555.660295,462.318166 C511.406707,466.878443 467.431487,478.479273 427.403403,492.538936 C416.118737,420.761033 420.180075,354.122377 422.292827,330.084428 Z M308.825198,733.883377 L276.891237,606.145586 L370.972939,696.807896 L403.142443,824.767268 L308.825198,733.883377 Z M461.393014,630.369378 C435.961476,652.012824 410.351496,667.28046 393.813501,676.100808 C387.76789,679.281565 383.057024,681.54026 380.037787,682.934075 L275.727796,582.429287 C296.962381,569.584745 359.317115,533.731532 435.019302,507.284785 C435.411875,507.148977 435.797309,507.013169 436.197019,506.870214 C439.323321,505.783753 442.485311,504.725883 445.654439,503.675161 C474.940322,494.018524 512.198989,484.054533 551.577545,479.329858 C544.782478,507.692207 536.195854,531.7516 525.432239,552.587348 C509.058411,584.294855 485.311365,610.176928 461.564318,630.390821 L461.393014,630.369378 Z M482.491983,644.793577 C481.357092,643.178181 480.250753,641.70574 479.151551,640.240447 C478.680464,639.539966 478.195102,638.825189 477.752566,638.153299 C483.833866,632.735289 489.886615,626.959891 495.79661,620.798514 C514.147574,601.856924 528.465751,582.357809 539.136576,561.71505 C553.725985,533.509951 563.154855,503.925333 569.236154,476.770956 C575.431657,507.191864 586.452228,540.093047 605.602611,570.056497 C652.953951,644.135982 727.856719,688.81669 749.77652,700.817795 L714.644881,840.563839 C692.525225,828.341153 636.194689,795.40423 579.542958,747.928745 L579.685711,747.757198 C539.429221,714.026873 506.724391,679.374486 482.491983,644.793577 Z M757.906333,685.893252 C746.657356,679.024245 720.640529,662.948911 707.457242,653.356605 C696.508048,645.386841 687.450337,637.331305 682.461102,632.692403 C700.605073,592.221731 712.574955,548.51312 720.469225,506.941692 C787.934534,533.274075 843.258658,570.163714 862.894403,584.044683 L757.906333,685.893252 Z" id="Shape" fill="#000000" fill-rule="nonzero"></path>
    </g>
</svg>