<?xml version="1.0" encoding="UTF-8"?>
<svg width="1129px" height="1080px" viewBox="0 0 1129 1080" version="1.1" xmlns="http://www.w3.org/2000/svg" xmlns:xlink="http://www.w3.org/1999/xlink">
    <title>feature3_fg@0.5x</title>
    <g id="feature3_fg" stroke="none" stroke-width="1" fill="none" fill-rule="evenodd">
        <g id="Group" transform="translate(376, 279)" fill="#FFFFFF" fill-rule="nonzero">
            <path d="M356.362527,557 L96.260738,557 C81.0963752,557 65.9320124,550.079127 56.0422105,538.544338 C47.800709,528.657377 44.1744483,516.793022 46.1524086,504.599103 L116.699662,51.1171273 C121.314903,22.115373 141.753827,2.67101508 167.137651,2.67101508 L285.485613,2.67101508 C310.539778,2.67101508 331.308362,22.7745038 335.593943,51.1171273 L406.470856,504.599103 C408.448817,516.463457 404.822556,528.657377 396.581054,538.544338 C386.691252,550.079127 371.52689,557 356.362527,557 Z M167.137651,29.3658116 C153.291929,29.3658116 145.050427,42.5484272 143.072467,55.4014774 L72.1955535,508.883453 C71.2065733,514.486065 73.8438538,518.770415 76.1514743,521.406938 C80.7667151,527.00955 88.6785566,530.634769 96.260738,530.634769 L356.362527,530.634769 C363.615048,530.634769 371.52689,527.00955 376.471791,521.406938 C378.779411,518.770415 381.416691,514.156499 380.427711,508.883453 L309.550798,55.4014774 C307.572838,42.5484272 299.331336,29.3658116 285.485613,29.3658116 L167.137651,29.3658116 Z" id="Shape"></path>
            <path d="M49.4490093,555.681738 C42.855808,555.681738 37.581247,550.408692 37.581247,543.817384 C37.581247,537.226077 43.1854681,531.95303 49.4490093,531.95303 L49.4490093,555.681738 Z M49.4490093,531.95303 L98.2386984,531.95303 L98.2386984,556.011304 L49.4490093,556.011304 L49.4490093,531.95303 Z M98.2386984,531.95303 C104.8319,531.95303 110.106461,537.226077 110.106461,543.817384 C110.106461,550.408692 104.50224,555.681738 98.2386984,555.681738 L98.2386984,531.95303 Z" id="Shape"></path>
            <path d="M12.1974223,555.681738 C5.60422105,555.681738 0,550.408692 0,543.817384 C0,537.226077 5.60422105,532.282596 12.1974223,532.282596 L12.1974223,555.681738 Z M12.1974223,532.282596 L14.1753827,532.282596 L14.1753827,555.681738 L12.1974223,555.681738 L12.1974223,532.282596 Z M13.8457226,532.282596 C20.4389238,532.282596 25.7134848,537.226077 25.7134848,543.817384 C25.7134848,550.408692 20.1092638,555.681738 13.8457226,555.681738 L13.8457226,532.282596 Z" id="Shape"></path>
            <path d="M222.520542,412.979925 C216.916321,412.979925 211.97142,409.354706 209.993459,404.081659 L78.7887548,17.5014576 C76.4811343,10.5805844 80.107395,3.00058046 87.0302563,0.693622739 C93.9531176,-1.61333499 101.535299,2.0118843 103.842919,8.93275747 L235.047624,395.512959 C237.355244,402.433832 233.728984,410.013836 226.806122,412.320794 C225.487482,412.650359 223.839182,412.979925 222.520542,412.979925 Z" id="Path"></path>
            <path d="M149.336008,183.602414 L149.336008,183.602414 C162.52241,178.988498 177.027453,186.238937 181.642694,199.421553 L189.224875,222.161564 C193.840116,235.34418 186.587595,249.845057 173.401192,254.458973 L173.401192,254.458973 C160.21479,259.072888 145.380087,251.822449 141.094506,238.639834 L133.512325,215.899822 C128.897084,202.387641 136.149606,188.216329 149.336008,183.602414 L149.336008,183.602414 Z" id="Path"></path>
            <path d="M376.14213,423.526017 L76.1514743,423.526017 C68.8989529,423.526017 62.9650718,417.59384 62.9650718,410.343402 C62.9650718,403.092963 68.8989529,397.160786 76.1514743,397.160786 L376.14213,397.160786 C383.394652,397.160786 389.328533,403.092963 389.328533,410.343402 C389.328533,417.59384 383.724312,423.526017 376.14213,423.526017 Z" id="Path"></path>
            <path d="M303.287257,486.143441 L149.336008,486.143441 C142.083487,486.143441 136.149606,480.211264 136.149606,472.960826 C136.149606,465.710387 142.083487,459.77821 149.336008,459.77821 L303.287257,459.77821 C310.539778,459.77821 316.473659,465.710387 316.473659,472.960826 C316.473659,480.211264 310.539778,486.143441 303.287257,486.143441 Z" id="Path"></path>
            <path d="M239.333205,16.183196 L285.485613,16.183196 C305.924537,16.183196 319.4406,33.3205963 322.40754,53.424085 L393.284454,506.906061 C396.581054,527.00955 376.471791,543.817384 356.362527,543.817384 L310.210118,543.817384 C330.649042,543.817384 350.428646,527.00955 347.461705,506.906061 L276.584792,53.424085 C273.617851,33.3205963 260.101789,16.183196 239.333205,16.183196 L239.333205,16.183196 Z" id="Path"></path>
        </g>
        <g id="Group-Copy" transform="translate(360, 262)" fill="#000000" fill-rule="nonzero">
            <path d="M356.362527,557 L96.260738,557 C81.0963752,557 65.9320124,550.079127 56.0422105,538.544338 C47.800709,528.657377 44.1744483,516.793022 46.1524086,504.599103 L116.699662,51.1171273 C121.314903,22.115373 141.753827,2.67101508 167.137651,2.67101508 L285.485613,2.67101508 C310.539778,2.67101508 331.308362,22.7745038 335.593943,51.1171273 L406.470856,504.599103 C408.448817,516.463457 404.822556,528.657377 396.581054,538.544338 C386.691252,550.079127 371.52689,557 356.362527,557 Z M167.137651,29.3658116 C153.291929,29.3658116 145.050427,42.5484272 143.072467,55.4014774 L72.1955535,508.883453 C71.2065733,514.486065 73.8438538,518.770415 76.1514743,521.406938 C80.7667151,527.00955 88.6785566,530.634769 96.260738,530.634769 L356.362527,530.634769 C363.615048,530.634769 371.52689,527.00955 376.471791,521.406938 C378.779411,518.770415 381.416691,514.156499 380.427711,508.883453 L309.550798,55.4014774 C307.572838,42.5484272 299.331336,29.3658116 285.485613,29.3658116 L167.137651,29.3658116 Z" id="Shape"></path>
            <path d="M49.4490093,555.681738 C42.855808,555.681738 37.581247,550.408692 37.581247,543.817384 C37.581247,537.226077 43.1854681,531.95303 49.4490093,531.95303 L49.4490093,555.681738 Z M49.4490093,531.95303 L98.2386984,531.95303 L98.2386984,556.011304 L49.4490093,556.011304 L49.4490093,531.95303 Z M98.2386984,531.95303 C104.8319,531.95303 110.106461,537.226077 110.106461,543.817384 C110.106461,550.408692 104.50224,555.681738 98.2386984,555.681738 L98.2386984,531.95303 Z" id="Shape"></path>
            <path d="M12.1974223,555.681738 C5.60422105,555.681738 0,550.408692 0,543.817384 C0,537.226077 5.60422105,532.282596 12.1974223,532.282596 L12.1974223,555.681738 Z M12.1974223,532.282596 L14.1753827,532.282596 L14.1753827,555.681738 L12.1974223,555.681738 L12.1974223,532.282596 Z M13.8457226,532.282596 C20.4389238,532.282596 25.7134848,537.226077 25.7134848,543.817384 C25.7134848,550.408692 20.1092638,555.681738 13.8457226,555.681738 L13.8457226,532.282596 Z" id="Shape"></path>
            <path d="M222.520542,412.979925 C216.916321,412.979925 211.97142,409.354706 209.993459,404.081659 L78.7887548,17.5014576 C76.4811343,10.5805844 80.107395,3.00058046 87.0302563,0.693622739 C93.9531176,-1.61333499 101.535299,2.0118843 103.842919,8.93275747 L235.047624,395.512959 C237.355244,402.433832 233.728984,410.013836 226.806122,412.320794 C225.487482,412.650359 223.839182,412.979925 222.520542,412.979925 Z" id="Path"></path>
            <path d="M149.336008,183.602414 L149.336008,183.602414 C162.52241,178.988498 177.027453,186.238937 181.642694,199.421553 L189.224875,222.161564 C193.840116,235.34418 186.587595,249.845057 173.401192,254.458973 L173.401192,254.458973 C160.21479,259.072888 145.380087,251.822449 141.094506,238.639834 L133.512325,215.899822 C128.897084,202.387641 136.149606,188.216329 149.336008,183.602414 L149.336008,183.602414 Z" id="Path"></path>
            <path d="M376.14213,423.526017 L76.1514743,423.526017 C68.8989529,423.526017 62.9650718,417.59384 62.9650718,410.343402 C62.9650718,403.092963 68.8989529,397.160786 76.1514743,397.160786 L376.14213,397.160786 C383.394652,397.160786 389.328533,403.092963 389.328533,410.343402 C389.328533,417.59384 383.724312,423.526017 376.14213,423.526017 Z" id="Path"></path>
            <path d="M303.287257,486.143441 L149.336008,486.143441 C142.083487,486.143441 136.149606,480.211264 136.149606,472.960826 C136.149606,465.710387 142.083487,459.77821 149.336008,459.77821 L303.287257,459.77821 C310.539778,459.77821 316.473659,465.710387 316.473659,472.960826 C316.473659,480.211264 310.539778,486.143441 303.287257,486.143441 Z" id="Path"></path>
            <path d="M239.333205,16.183196 L285.485613,16.183196 C305.924537,16.183196 319.4406,33.3205963 322.40754,53.424085 L393.284454,506.906061 C396.581054,527.00955 376.471791,543.817384 356.362527,543.817384 L310.210118,543.817384 C330.649042,543.817384 350.428646,527.00955 347.461705,506.906061 L276.584792,53.424085 C273.617851,33.3205963 260.101789,16.183196 239.333205,16.183196 L239.333205,16.183196 Z" id="Path"></path>
        </g>
    </g>
</svg>