<?xml version="1.0" encoding="UTF-8"?>
<svg width="1129px" height="1080px" viewBox="0 0 1129 1080" version="1.1" xmlns="http://www.w3.org/2000/svg" xmlns:xlink="http://www.w3.org/1999/xlink">
    <title>feature6_fg@0.5x</title>
    <g id="feature6_fg" stroke="none" stroke-width="1" fill="none" fill-rule="evenodd">
        <path d="M1157,548.578373 C1156.98721,548.578373 1156.93606,548.578373 1156.89769,548.578373 C1156.89769,534.947989 1156.98721,521.317605 1157,507.687221 L1157,475.311862 C1156.98721,467.563257 1156.92327,459.789079 1156.82096,452.066047 C1156.38613,422.567645 1155.33744,393.08203 1154.18644,363.609201 C1153.91788,357.727421 1152.19138,351.871215 1150.68229,346.130087 C1150.14516,343.981959 1148.32913,342.12792 1147.08861,340.146016 C1146.4108,340.184375 1145.75857,340.248308 1145.04239,340.286667 C1144.42852,343.483286 1143.49493,346.641546 1143.25194,349.863738 C1142.8427,355.361923 1142.62529,360.323076 1135.84718,362.586283 C1133.85211,363.225606 1132.39418,368.046108 1132.18956,371.025357 C1131.03856,386.867802 1130.00266,402.710247 1129.67014,418.578264 C1128.94118,454.482691 1128.62146,490.361545 1128.14827,526.253185 C1128.13548,528.107224 1128.14827,529.97405 1127.8797,531.789729 C1125.02778,515.116164 1126.89496,497.803274 1121.4341,481.526089 C1120.64119,481.423797 1119.87386,481.321506 1119.08094,481.232 C1117.4056,488.533079 1115.74304,495.834157 1114.08049,503.109662 C1113.28758,503.032943 1112.53303,502.930651 1111.77849,502.841146 C1106.67572,493.980118 1108.01856,483.725363 1106.73967,474.046 C1106.20253,474.046 1105.6654,474.046 1105.17942,474.033214 C1103.92611,494.376498 1102.64722,514.69421 1101.35554,535.037494 C1101.07419,535.011922 1100.79283,534.999135 1100.4859,534.973562 C1099.65462,511.804466 1098.82334,488.686516 1097.9537,465.51742 C1097.44214,465.504634 1096.9178,465.504634 1096.40624,465.479061 C1095.05062,476.51379 1093.65663,487.522947 1092.28822,498.557676 C1092.04523,498.557676 1091.81503,498.557676 1091.53368,498.557676 C1090.74077,479.71041 1089.97343,460.914289 1089.16773,442.092595 C1088.75849,442.092595 1088.38761,442.092595 1088.00394,442.105382 C1086.9041,450.020211 1085.85541,457.883894 1084.79393,465.798723 C1084.09054,465.811509 1083.42552,465.811509 1082.73492,465.837082 C1081.68623,434.113834 1080.67591,402.352225 1079.64001,370.641763 C1079.47376,370.641763 1079.37144,370.641763 1079.20519,370.641763 C1077.78562,395.933414 1076.35327,421.199492 1074.94649,446.491143 C1074.69071,446.491143 1074.49888,446.491143 1074.23031,446.491143 C1073.45019,421.161133 1072.70843,395.831122 1071.95389,370.501112 C1071.37839,370.501112 1070.76452,370.513898 1070.20181,370.513898 C1067.23479,442.361111 1064.25498,514.195537 1061.88903,571.504526 C1059.90676,494.210274 1057.56639,402.492877 1055.11092,310.762692 C1054.99582,306.760525 1053.44837,302.758358 1051.65792,298.730618 C1050.9929,308.499486 1050.63481,318.3195 1049.54776,328.050009 C1048.4607,337.997888 1046.67026,347.869048 1045.22511,357.740208 C1044.39383,357.727421 1043.56256,357.676276 1042.73128,357.637916 C1041.88721,347.0635 1041.04314,336.527443 1040.19908,325.953027 C1040.02003,325.953027 1039.86657,325.965813 1039.70031,325.965813 C1038.40863,338.31755 1037.09138,350.720432 1035.77412,363.059382 C1035.32651,363.021023 1034.82774,362.982663 1034.39292,362.944304 C1033.48491,337.524788 1032.56411,312.105272 1031.68168,286.698543 C1031.18291,286.698543 1030.67136,286.698543 1030.1598,286.698543 C1027.3974,376.357318 1024.64779,466.028879 1021.91097,554.946039 C1020.52977,527.135452 1019.09741,498.493744 1017.67784,469.890395 C1017.11513,469.877609 1016.52684,469.852036 1015.96413,469.852036 C1014.99218,478.751424 1014.03301,487.701958 1013.02269,496.844288 C1011.93563,479.825488 1011.14272,463.113563 1009.63363,446.439997 C1009.31391,442.693559 1006.50036,439.241211 1005.04242,435.545919 C1003.36708,431.415887 1001.94751,427.19635 999.926867,421.621446 C996.307611,456.426235 999.172322,490.514982 990.782811,524.795527 C988.391289,501.831014 986.140444,480.14515 983.838444,458.472072 C983.160633,458.472072 982.533978,458.459285 981.843378,458.459285 C980.794689,467.844559 979.771578,477.217047 978.735678,486.602321 C974.771122,455.531182 978.403167,424.012517 972.047089,393.26104 C971.292544,392.903019 970.461267,392.557784 969.668356,392.199763 C969.169589,393.2994 968.325522,394.347891 968.159267,395.498674 C966.496711,408.118926 958.196722,418.654983 958.426922,432.208649 C958.848956,454.457118 957.173611,476.718374 956.470222,499.005203 C956.367911,502.483125 956.470222,505.973833 955.319222,509.477327 C954.014756,454.009591 952.710289,398.516282 951.393033,343.074119 C951.150044,343.074119 950.919844,343.074119 950.702433,343.074119 C949.666533,399.973941 948.617844,456.873762 947.594733,513.78637 C947.364533,513.78637 947.1727,513.78637 946.955289,513.78637 C945.586878,460.927075 944.1801,408.042207 942.7989,355.195699 C942.555911,355.195699 942.325711,355.195699 942.057144,355.195699 C941.046822,391.470934 940.062078,427.746168 939.077333,464.034189 C938.604144,464.046976 938.143744,464.085335 937.696133,464.110908 C936.736967,453.741075 935.790589,443.396816 934.831422,433.065342 C934.243133,433.03977 933.642056,433.03977 933.066556,433.014197 C932.0946,476.628869 931.135433,520.256327 930.150689,563.83264 C929.9077,563.83264 929.651922,563.83264 929.408933,563.858213 C924.945611,474.020427 920.520656,384.182642 916.0957,294.33207 C915.763189,294.33207 915.4051,294.319283 915.072589,294.319283 C914.215733,351.410902 913.346089,408.502521 912.514811,465.606926 C912.310189,465.606926 912.169511,465.606926 912.041622,465.632499 C911.171978,437.796339 910.417433,409.960179 909.3048,382.149592 C908.217744,354.428511 906.734233,326.707429 904.163667,298.999134 C898.766756,351.653845 899.713133,404.410848 898.459822,457.142278 C897.040256,407.735332 895.595111,358.341172 894.162756,308.934226 C893.740722,308.92144 893.293111,308.895867 892.832711,308.88308 C892.640878,310.839411 892.564144,312.821315 892.142111,314.713714 C890.338878,323.088856 888.024089,331.374493 886.732411,339.813568 C885.146589,350.375197 883.931644,361.064692 883.394511,371.715827 C881.898211,400.331962 881.143667,428.986456 879.455533,457.589805 C878.816089,468.24094 876.5013,478.789783 874.762011,489.351413 C874.391133,491.614619 873.176189,493.78832 870.835822,495.962022 C869.646456,491.79363 868.4443,487.612452 867.267722,483.418488 C866.8329,483.418488 866.359711,483.431274 865.937678,483.431274 C865.937678,486.333805 866.155089,489.223548 865.873733,492.087719 C865.400544,497.406893 864.351856,501.984452 857.752789,503.646694 C855.489156,504.196513 853.468511,508.313758 852.624444,511.190715 C851.4095,515.269601 851.4095,519.693722 849.887622,524.053911 C848.237856,509.28553 846.677611,494.51715 844.938322,479.761556 C842.572378,460.134314 840.513367,440.455926 837.418456,420.91819 C836.433711,414.806254 832.469156,409.19299 828.312767,403.375143 C827.059456,421.263424 825.780567,439.151705 824.501678,457.039986 C821.611389,412.261745 823.5553,367.342852 817.455,322.781981 C810.139756,329.392589 814.1171,338.53492 810.945456,346.615973 C808.975967,344.928158 807.262256,343.444927 804.614956,341.181721 C803.822044,346.168447 803.144233,350.285692 802.466422,354.402938 C802.159489,354.46687 801.814189,354.518016 801.481678,354.594735 C799.998167,345.056023 798.501867,335.542884 796.954411,325.991386 C796.609111,325.991386 796.2766,325.991386 795.9313,325.991386 C795.291856,332.141682 794.652411,338.253617 794.038544,344.391126 C793.603722,344.429486 793.232844,344.467845 792.798022,344.506205 C791.877222,336.97497 790.930844,329.456521 789.984467,321.938073 C789.383389,321.9125 788.756733,321.886927 788.181233,321.874141 C786.851189,379.272635 785.508356,436.658342 784.178311,494.04405 C783.564444,494.056837 782.925,494.107982 782.285556,494.120769 C781.415911,482.804737 780.559056,471.475919 779.714989,460.172673 C779.216222,460.198246 778.704667,460.236606 778.231478,460.249392 C775.852744,483.111612 773.512378,505.961046 771.133644,528.797694 C770.660456,528.81048 770.187267,528.836053 769.714078,528.84884 C768.8828,507.047897 768.051522,485.246954 767.220244,463.446011 C766.862156,463.407652 766.542433,463.369292 766.2355,463.343719 C763.178956,476.437072 760.122411,489.530424 757.117022,502.623776 C756.272956,502.521484 755.4161,502.444765 754.559244,502.342473 C748.241533,475.823321 748.714722,448.383542 743.509644,421.506367 C742.5249,431.594898 741.514578,441.696214 740.529833,451.771958 C740.299633,451.797531 740.095011,451.810317 739.852022,451.83589 C738.560344,441.888011 737.281456,431.978492 736.028144,422.030613 C735.529378,422.0434 735.030611,422.0434 734.544633,422.068972 C733.636622,444.828901 732.690244,467.58883 731.769444,490.348758 C731.066056,490.361545 730.388244,490.361545 729.710433,490.387118 C727.4468,464.059762 725.183167,437.745193 722.970689,411.405051 C722.587022,411.366691 722.177778,411.328332 721.819689,411.289973 C720.553589,436.888499 719.287489,462.461452 717.983022,488.034406 C717.381944,488.034406 716.7425,488.034406 716.154211,488.034406 C716.154211,474.889908 716.422778,461.681477 716.026322,448.536979 C715.757756,438.665819 714.875322,428.769086 713.762689,418.974645 C713.379022,415.701307 710.9875,412.722058 710.169011,409.487079 C708.749444,403.745951 707.214778,397.902531 706.716011,392.033539 C706.114933,385.090482 706.549756,378.045133 706.549756,371.05093 C705.999833,370.999784 705.424333,370.961425 704.848833,370.884706 C702.316633,391.164058 699.758856,411.430624 697.213867,431.709976 C696.267489,431.633257 695.321111,431.569325 694.361944,431.505392 C693.581822,410.126403 692.788911,388.772987 692.008789,367.393998 C691.868111,367.381211 691.753011,367.342852 691.599544,367.291706 C690.052089,380.858158 688.517422,394.450183 686.739767,409.88346 C685.013267,406.674054 684.1692,405.152464 683.337922,403.592514 C682.877522,403.6053 682.4427,403.6053 682.007878,403.630873 C680.984767,426.058353 679.974444,448.524193 678.964122,470.977246 C671.866289,430.418542 671.431467,389.45067 668.963211,348.559518 C667.633167,395.920628 666.290333,443.281737 664.973078,490.630061 C664.768456,490.630061 664.551044,490.630061 664.346422,490.630061 C663.297733,450.633961 662.274622,410.676222 661.225933,370.680122 C660.982944,370.680122 660.752744,370.667336 660.471389,370.667336 C659.039033,401.111937 657.568311,431.569325 656.148744,462.013926 C655.944122,462.013926 655.726711,462.026712 655.547667,462.026712 C654.524556,412.901069 653.450289,363.762639 652.427178,314.636995 C652.107456,314.611422 651.787733,314.598635 651.429644,314.598635 C650.163544,349.31392 648.884656,384.067564 647.592978,418.808421 C647.260467,418.821207 646.915167,418.821207 646.595444,418.821207 C645.636278,377.751044 644.677111,336.629735 643.717944,295.559572 C643.0785,295.559572 642.426267,295.559572 641.799611,295.572358 C635.072656,373.889528 636.811944,452.500787 633.653089,530.945822 C632.4893,459.661214 631.299933,388.389393 630.123356,317.117571 C627.066811,386.011108 629.637378,455.134801 624.457878,523.977192 C623.8568,524.168989 623.268511,524.386359 622.654644,524.552584 C621.593167,522.417242 619.892244,520.358619 619.585311,518.133772 C617.398411,502.662135 615.377767,487.164926 613.472222,471.642143 C613.075767,468.509456 613.433856,465.312837 611.975922,462.013926 C611.246956,465.568566 610.594722,469.097634 609.865756,472.601129 C608.765911,477.958662 605.760522,480.784474 600.082256,481.040203 C594.097056,481.308719 589.9023,479.314029 588.559467,473.240452 C586.807389,465.619712 585.4134,457.922253 583.802,450.250367 C583.405544,448.357969 582.868411,446.46557 580.911711,444.739396 C579.581667,467.090157 578.251622,489.440918 576.921578,511.79168 C576.691378,511.79168 576.473967,511.79168 576.243767,511.804466 C573.711567,439.381862 571.179367,366.946471 568.621589,294.54944 C568.097244,294.575013 567.560111,294.575013 566.9974,294.587799 C566.127756,341.232867 565.258111,387.877934 564.362889,434.510214 C563.825756,434.510214 563.288622,434.523001 562.7387,434.548574 C557.431311,386.036681 556.676767,337.281845 555.730389,288.552582 C554.822378,288.552582 553.939944,288.527009 553.044722,288.527009 C550.550889,345.887144 548.044267,403.234492 545.7039,457.781602 C544.540111,425.840983 543.299589,391.036193 542.046278,356.256977 C541.637033,356.256977 541.240578,356.28255 540.831333,356.28255 C539.846589,424.102022 538.836267,491.921495 537.838733,559.702608 C537.723633,559.702608 537.570167,559.702608 537.429489,559.702608 C535.319322,511.216288 533.221944,462.742755 531.111778,414.243649 C530.101456,414.230862 529.065556,414.205289 528.055233,414.192503 C527.275111,426.851115 526.290367,439.484154 525.842756,452.142766 C525.382356,465.133826 525.382356,478.124886 525.305622,491.115947 C525.2161,504.107007 525.292833,517.059708 524.461556,530.037982 C521.635211,499.772392 522.044456,469.238285 515.227978,439.356289 C510.879756,460.236606 515.394233,481.986402 507.836,502.470338 C502.566978,490.399904 503.743556,477.600641 502.336778,465.005961 C497.413056,484.86336 498.423378,505.756463 492.578856,525.383705 C491.734789,525.383705 490.852356,525.370918 489.982711,525.345345 C489.023544,516.663327 487.4633,508.006883 487.245889,499.273719 C486.465767,471.846726 486.261144,444.406947 485.7368,416.967168 C485.596122,409.972965 485.058989,403.017122 484.048667,395.997346 C478.434344,439.803816 477.654222,483.95552 474.329111,527.953786 C473.395522,493.583737 472.449144,459.175328 471.489978,424.805278 C470.748222,424.741346 470.006467,424.702987 469.264711,424.639054 C468.433433,428.06583 467.602156,431.492606 466.783667,434.919382 C466.182589,434.970527 465.568722,435.03446 464.967644,435.072819 C462.627278,411.980442 460.2997,388.900852 457.959333,365.795688 C457.716344,365.718969 457.473356,365.655037 457.230367,365.603891 C455.977056,376.753699 454.455178,387.877934 453.5088,399.040528 C452.549633,410.53557 451.999711,422.081759 451.603256,433.627947 C451.2068,445.174136 451.488156,456.758684 450.9766,468.266513 C450.477833,479.71041 449.339622,491.115947 447.4085,502.534271 C440.873378,493.264075 442.4592,482.600153 439.620067,472.460477 C438.3156,494.095196 437.023922,515.78106 435.732244,537.454139 C435.604356,537.454139 435.476467,537.466925 435.386944,537.466925 C434.210367,499.708459 433.008211,461.937207 431.844422,424.191528 C431.307289,424.089236 430.770156,423.986944 430.245811,423.884652 C429.478478,425.035435 428.698356,426.173431 426.946278,428.769086 C421.485422,400.063446 421.088967,372.022702 416.855844,344.480632 C416.050144,363.148888 415.231656,381.817144 414.425956,400.498186 C414.042289,400.498186 413.671411,400.472613 413.300533,400.472613 C411.893756,377.009428 410.499767,353.55903 409.092989,330.083059 C408.85,330.108632 408.581433,330.121418 408.325656,330.121418 C407.430433,355.451429 406.496844,380.807012 405.601622,406.137022 C405.307478,406.137022 405.000544,406.137022 404.719189,406.162595 C403.747233,393.2994 402.7497,380.461777 401.777744,367.624154 C401.240611,367.636941 400.6779,367.636941 400.1024,367.636941 C399.462956,398.92545 398.861878,430.226745 398.1457,461.515253 C397.391156,492.982772 396.495933,524.463078 395.690233,555.943384 C394.667122,555.943384 393.644011,555.930597 392.633689,555.930597 C387.825067,480.989057 389.871289,405.804574 386.162511,330.722383 C382.415367,384.77082 378.681011,438.819257 374.933867,492.880481 C374.358367,492.893267 373.821233,492.893267 373.245733,492.91884 C371.954056,481.807392 370.624011,470.721516 369.319544,459.597282 C367.720933,473.700766 369.345122,488.085552 364.7667,501.741509 C364.088889,501.869374 363.436656,501.997239 362.758844,502.112317 C361.710156,498.826192 360.201067,495.604 359.753456,492.241157 C357.899067,478.342257 356.556233,464.417783 354.663478,450.518883 C354.151922,446.670154 352.348689,442.974862 350.021111,439.305143 C341.657178,457.0272 346.887833,476.181342 342.603556,495.808584 C341.797856,493.148997 341.107256,491.870349 341.017733,490.540555 C339.367967,459.674001 337.679833,428.769086 336.170744,397.902531 C335.390622,382.26467 334.968589,366.601236 334.329144,349.160482 C332.257344,351.500407 331.490011,352.382674 329.188011,355.003902 C328.075378,336.399578 327.065056,319.367991 326.029156,302.323618 C325.696644,302.323618 325.351344,302.323618 325.031622,302.323618 C323.663211,342.383649 322.307589,382.405322 320.926389,422.452567 C320.772922,422.452567 320.5683,422.452567 320.402044,422.452567 C319.366144,359.888336 318.317456,297.311319 317.268767,234.747088 C316.8851,234.747088 316.488644,234.734302 316.143344,234.734302 C314.864456,265.396273 313.572778,296.045458 312.293889,326.707429 C312.063689,326.707429 311.846278,326.720215 311.603289,326.720215 C311.603289,324.533728 311.667233,322.308881 311.603289,320.122393 C310.298822,275.382511 309.147822,230.668202 307.549211,185.941106 C307.229489,176.92664 305.196056,167.96332 303.942744,159 C303.111467,159 302.280189,159 301.4617,159 C301.039667,213.253021 300.528111,267.506042 300.208389,321.746276 C300.042133,351.027308 300.182811,380.321126 300.182811,409.589371 C299.556156,409.589371 298.942289,409.589371 298.341211,409.589371 C297.139056,346.475322 295.962478,283.310127 294.811478,220.196078 C289.248311,314.227828 289.6064,408.579239 279.093933,502.393619 C271.970522,481.05299 277.329067,458.446499 270.9602,437.06751 C263.376389,459.942517 266.496878,483.840442 263.235711,507.278053 C262.800889,504.145367 262.404433,500.987107 261.931244,497.867207 C260.959289,491.448395 260.6012,484.991224 255.805367,479.556972 C253.771933,477.229833 253.592889,472.997509 253.222011,469.570734 C252.352367,461.246737 251.866389,452.897168 251.086267,442.859784 C248.924944,447.948801 247.454222,451.337218 246.021867,454.725634 C245.267322,454.687275 244.499989,454.648915 243.745444,454.610556 C236.967333,442.770278 239.243756,429.152681 237.824189,415.228207 C235.368722,428.781873 236.992911,442.054236 231.506478,453.996805 C230.803089,454.08631 230.086911,454.188602 229.370733,454.265321 C228.219733,449.342527 226.812956,444.43252 225.981678,439.445794 C225.124822,434.139406 224.830678,428.794659 223.283222,423.38598 C222.311267,438.780898 221.339311,454.163029 220.354567,469.442869 C216.875989,462.602104 212.694022,456.439022 210.5327,449.636616 C208.2307,442.450616 207.872611,434.676439 205.736867,427.030125 C204.035944,462.282442 202.347811,497.573118 200.646889,532.825434 C199.815611,532.812648 199.0227,532.812648 198.204211,532.787075 C194.035033,477.229833 195.6848,421.468008 192.602678,365.795688 C191.323789,393.26104 190.0449,420.713606 188.753222,448.178958 C188.305611,448.191744 187.858,448.230104 187.3976,448.268463 C186.886044,442.859784 186.387278,437.438317 185.862933,432.004065 C185.3258,431.991278 184.775878,431.965705 184.238744,431.952919 C182.7936,467.102944 181.335667,502.240182 179.890522,537.402993 C179.711478,537.402993 179.506856,537.402993 179.327811,537.402993 C178.227967,499.23536 177.1537,461.042154 176.041067,422.861734 C175.836444,422.861734 175.631822,422.861734 175.465567,422.861734 C174.033211,474.723684 172.613644,526.585633 171.206867,578.447583 C171.117344,578.447583 171.015033,578.447583 170.9383,578.447583 C169.633833,511.778893 168.354944,445.110204 167.063267,378.467087 C166.347089,378.403154 165.6437,378.352008 164.927522,378.288076 C164.352022,379.323781 163.789311,380.359485 163.213811,381.39519 C162.574367,381.369617 161.973289,381.356831 161.346633,381.331258 C160.374678,356.551066 159.402722,331.796447 158.417978,307.016255 C158.2773,307.003468 158.136622,307.003468 157.995944,307.003468 C156.640322,347.71561 155.259122,388.414966 153.877922,429.114321 C153.634933,429.139894 153.391944,429.139894 153.148956,429.139894 C150.527233,382.021727 147.9183,334.903561 145.296578,287.772607 C145.053589,287.772607 144.8106,287.772607 144.567611,287.772607 C143.160833,385.819311 141.741267,483.853228 140.347278,581.912718 C140.155444,581.912718 139.9764,581.912718 139.810144,581.912718 C138.659144,513.019182 137.520933,444.100072 136.382722,375.206535 C135.858378,375.206535 135.321244,375.206535 134.758533,375.206535 C133.569167,391.91846 132.392589,408.643172 131.216011,425.367883 C130.793978,425.431816 130.346367,425.495748 129.911544,425.559681 C129.182578,423.871866 128.479189,422.209624 127.763011,420.521809 C127.3154,420.483449 126.855,420.44509 126.3946,420.40673 C125.384278,437.783552 124.399533,455.185947 123.427578,472.588342 C123.018333,472.652274 122.621878,472.70342 122.212633,472.805712 C121.279044,470.043833 120.319878,467.307527 119.3735,464.558435 C118.836367,464.558435 118.312022,464.571221 117.749311,464.596794 C116.687833,486.321018 115.600778,508.045242 114.513722,529.743893 C114.194,529.75668 113.887067,529.75668 113.580133,529.75668 C112.672122,523.504092 111.917578,517.213146 110.766578,510.960559 C110.0504,507.047897 108.464578,503.940783 103.822211,502.483125 C101.558578,501.792655 99.9727556,498.148509 98.5531889,495.591214 C97.6451778,493.903399 97.6196,491.755271 96.0209889,489.824513 C94.6014222,499.861897 93.1818556,509.899281 91.6727667,520.512057 C89.2045111,500.028121 86.7746222,480.10679 84.3575222,460.172673 C83.6925,460.211033 83.0274778,460.223819 82.3496667,460.249392 C80.0348778,474.007641 83.117,488.520292 77.9502889,501.856587 C77.2341111,501.856587 76.5435111,501.856587 75.8401222,501.856587 C74.7402778,489.287481 73.3590778,476.705588 72.6556889,464.098122 C70.8013,431.773908 69.305,399.436909 67.5017667,367.112695 C67.1181,360.323076 66.2228778,353.546244 65.0718778,346.871703 C64.6114778,344.212116 62.7187222,341.833831 61.6828222,339.238176 C60.5701889,336.412365 59.5598667,333.56098 58.7541667,330.632877 C58.1147222,328.40803 57.8077889,326.055319 56.2219667,323.817685 C49.1113444,392.033539 50.0833,460.505122 47.0523333,528.797694 C45.2746778,440.992958 46.285,353.111503 40.6834667,265.421846 C39.8905556,265.396273 39.1232222,265.383486 38.3558889,265.357914 C37.3072,292.222301 36.2457222,319.099475 35.1970333,346.002222 C34.6854778,346.066155 34.1739222,346.117301 33.6751556,346.181233 C32.8183,341.91055 31.9870222,337.62708 31.1557444,333.34361 C22.6383444,404.999026 20.5409667,477.025249 16.8321889,548.898035 C15.9881222,548.885249 15.1568444,548.885249 14.2999889,548.859676 C14.2999889,531.96874 14.4150889,515.065018 14.2232556,498.174082 C14.1848889,494.069623 13.5198667,489.914018 12.4456,485.962997 C11.9340444,484.134531 9.51694444,481.334292 8.32757778,481.48773 C7.59861111,481.602808 6.79291111,481.948043 6,482.459502 L6,674.179934 C6.47318889,691.659048 6.93358889,709.202094 7.41956667,726.706781 C7.6114,726.706781 7.80323333,726.732354 7.98227778,726.732354 C9.36347778,697.157233 10.7446778,667.582112 12.1386667,638.032565 C12.5607,638.006992 12.9827333,637.994205 13.4175556,637.968632 C14.2616222,654.348109 15.1184778,670.727586 15.9753333,687.132635 C16.1799556,687.145422 16.3973667,687.170995 16.6019889,687.196568 C17.8169333,670.983315 19.0446667,654.782849 20.2596111,638.582383 C20.7711667,638.59517 21.2699333,638.59517 21.7687,638.620743 C22.9069111,686.953625 24.0451222,735.260934 25.1833333,783.568243 C25.7588333,783.606602 26.3471222,783.670535 26.8842556,783.747254 C27.4341778,780.269332 27.9968889,776.816983 28.5468111,773.364634 C29.3013556,773.364634 30.0303222,773.390207 30.7720778,773.402994 C31.7184556,823.06567 32.6264667,872.715559 33.5600556,922.391021 C37.1793111,832.450943 36.7700667,742.383001 42.1797667,652.532429 C42.9854667,652.545216 43.7783778,652.545216 44.5968667,652.545216 C45.5688222,699.573877 46.5279889,746.628112 47.4999444,793.669559 C47.7685111,793.669559 48.0242889,793.669559 48.3056444,793.643987 C49.4438556,753.878044 50.5564889,714.086528 51.6947,674.295013 C52.0783667,674.295013 52.4492444,674.26944 52.8073333,674.243867 C55.2500111,731.194834 57.7310556,788.133015 60.1865222,845.096769 C60.5574,845.122342 60.9027,845.122342 61.2607889,845.135128 C64.0487667,802.249285 66.8623222,759.376229 69.6503,716.43924 C70.1618556,716.490386 70.6862,716.490386 71.1977556,716.490386 C71.8755667,726.233681 72.5150111,736.028122 73.2056111,745.796991 C73.9217889,745.796991 74.6251778,745.83535 75.3541444,745.83535 C77.9375,715.198952 80.5208556,684.562553 83.117,653.913369 C83.3983556,653.887796 83.7052889,653.887796 84.0122222,653.887796 C84.8435,669.781386 85.6875667,685.623831 86.5188444,701.517422 C86.9536667,701.606927 87.3884889,701.670859 87.8361,701.747578 C88.7057444,700.456144 89.6009667,699.12635 91.5065111,696.338899 C93.0923333,706.657585 94.4351667,715.467468 95.7652111,724.290137 C96.1744556,724.290137 96.5709111,724.264564 97.0057333,724.251777 C97.9521111,702.131173 98.9368556,679.972208 99.9471778,656.649675 C110.983989,671.993447 110.983989,671.993447 113.439456,688.986674 C114.232367,686.160863 115.025278,683.347838 115.818189,680.50924 C123.7473,752.906272 121.982433,825.725257 129.489511,898.096715 C135.474711,811.289324 133.1855,724.31571 136.280411,637.444387 C137.456989,698.755543 138.659144,760.117845 139.822933,821.441787 C140.257756,821.441787 140.705367,821.441787 141.1274,821.46736 C142.060989,765.884546 142.994578,710.340091 143.928167,654.770063 C144.196733,654.770063 144.439722,654.770063 144.682711,654.782849 C146.281322,706.964461 147.892722,759.133286 149.465756,811.327684 C150.514444,811.34047 151.537556,811.366043 152.586244,811.37883 C161.001333,751.167311 164.339233,690.546625 166.7947,629.708568 C168.214267,651.765241 169.659411,673.847486 171.066189,695.916945 C171.539378,695.916945 172.012567,695.916945 172.472967,695.916945 C173.061256,689.677144 173.675122,683.462916 174.263411,677.261475 C174.608711,677.223116 174.954011,677.17197 175.299311,677.13361 C176.092222,685.713336 177.230433,694.293062 177.575733,702.847215 C179.366178,746.359596 180.862478,789.846403 182.652922,833.33321 C182.947067,840.570356 184.187589,847.794716 185.006078,854.993502 C185.875722,854.993502 186.758156,854.993502 187.6278,854.993502 C188.4335,848.063232 189.737967,841.132961 189.9298,834.202691 C190.940122,799.973293 191.694667,765.743894 192.474789,731.527283 C192.615467,724.942247 192.487578,718.357211 193.306067,711.72103 C194.636111,762.035816 195.991733,812.376175 197.360144,862.690961 C197.8717,862.72932 198.370467,862.72932 198.882022,862.72932 C201.4398,793.733492 203.972,724.71209 206.529778,655.741835 C206.785556,655.741835 207.015756,655.729048 207.271533,655.729048 C208.256278,694.331422 209.241022,732.984941 210.225767,771.600101 C210.379233,771.600101 210.571067,771.600101 210.737322,771.625674 C212.156889,742.907247 213.576456,714.214393 214.996022,685.508753 C215.609889,685.495966 216.198178,685.470393 216.812044,685.44482 C217.451489,694.216343 218.116511,702.911148 218.755956,711.682671 C218.960578,711.695457 219.177989,711.695457 219.408189,711.695457 C220.866122,699.765674 222.311267,687.835892 223.7692,675.893322 C223.961033,675.918895 224.152867,675.931682 224.306333,675.957255 C226.723433,719.674219 229.140533,763.391183 231.557633,807.120933 C232.363333,807.108147 233.169033,807.108147 233.961944,807.082574 C234.371189,801.558816 234.780433,795.996698 235.189678,790.421794 C235.637289,784.169207 238.450844,780.525061 245.2929,780.64014 C250.5875,780.678499 251.661767,776.586827 251.879178,772.559086 C252.441889,761.626649 252.365156,750.681425 253.132489,739.800133 C254.027711,727.090375 255.511222,714.393404 256.828478,701.709219 C257.020311,699.995831 257.826011,698.359162 259.424622,696.811998 C260.447733,704.253728 261.458056,711.72103 262.468378,719.188332 C266.867756,690.700062 264.271611,661.777052 270.026611,633.442219 C276.062967,652.442924 271.126456,672.8885 278.288233,691.774126 C283.787456,684.767137 283.480522,676.4815 285.322122,668.489952 C285.693,673.694048 286.281289,678.898144 286.396389,684.127813 C287.329978,723.510162 288.135678,762.930869 289.094844,802.300431 C289.337833,812.171591 289.631978,822.106684 290.488833,831.965057 C290.770189,835.072171 293.903467,838.025847 293.9802,841.094602 C295.003311,886.090213 295.745067,931.034679 296.5124,975.979145 C296.640289,983.612671 297.036744,991.271771 296.550767,998.879725 C296.141522,1005.27296 298.648144,1006.93521 303.635811,1005.54148 C299.824722,890.514334 302.088356,775.691773 306.231956,660.881999 C309.211767,775.512763 310.567389,890.194672 307.114389,1005.05559 C313.956444,1006.89685 314.429633,1006.55161 314.506367,998.854152 C315.069078,935.957473 315.606211,873.022434 316.181711,810.100182 C316.207289,806.814058 316.181711,803.515147 317.383867,800.216236 C318.445344,826.530805 319.519611,852.819801 320.581089,879.13437 C320.900811,879.13437 321.207744,879.147156 321.527467,879.172729 C322.576156,843.153224 323.624844,807.069787 324.635167,771.011923 C325.121144,771.011923 325.607122,771.011923 326.067522,770.98635 C327.384778,786.956659 328.689244,802.914182 330.0065,818.884492 C330.249489,818.884492 330.505267,818.884492 330.735467,818.884492 C331.541167,799.845428 332.359656,780.755218 333.152567,761.728941 C333.536233,761.716154 333.945478,761.716154 334.329144,761.690581 C335.787078,775.563908 337.2578,789.38609 338.702944,803.246631 C339.009878,803.246631 339.304022,803.246631 339.610956,803.246631 C342.232678,759.721464 344.8544,716.145151 347.527278,671.660998 C350.123422,716.0045 352.6812,759.350656 355.238978,802.696812 C355.609856,802.696812 355.980733,802.658453 356.338822,802.658453 C358.883811,752.778407 361.416011,702.898361 363.948211,653.043888 C364.523711,653.043888 365.124789,653.043888 365.6875,653.043888 C365.828178,655.255949 365.994433,657.519155 366.109533,659.731216 C366.787344,672.492119 367.145433,685.291383 368.258067,698.013927 C368.667311,702.527553 371.2123,706.823809 372.324933,711.299076 C373.360833,715.697624 374.281633,720.185678 374.396733,724.686517 C375.343111,765.078997 376.084867,805.49705 376.992878,845.940676 C377.146344,853.714854 377.862522,861.514605 379.282089,869.224851 C385.3696,814.7161 384.640633,759.836542 387.518133,705.148781 C388.784233,755.143905 387.083311,805.215748 392.2756,855.057434 C393.042933,855.095794 393.784689,855.134153 394.564811,855.172513 C395.293778,849.405812 396.470356,843.651897 396.662189,837.859623 C397.723667,800.740481 398.593311,763.621339 399.399011,726.502197 C399.616422,716.400881 399.4118,706.299564 400.856944,696.198247 C402.186989,731.130902 403.529822,766.037983 404.872656,800.970638 C405.409789,800.970638 405.985289,800.970638 406.535211,800.932278 C407.097922,791.291275 407.660633,781.663058 408.210556,772.009268 C408.427967,771.970908 408.658167,771.932549 408.85,771.932549 C409.988211,783.223008 411.126422,794.50068 412.239056,805.765566 C412.891289,805.765566 413.543522,805.727207 414.208544,805.688848 C415.218867,768.799862 416.229189,731.89809 417.2523,695.009105 C417.674333,695.009105 418.083578,694.996318 418.492822,694.996318 C419.6694,727.499542 420.8204,760.015553 421.9714,792.54435 C422.239967,792.54435 422.482956,792.54435 422.751522,792.54435 C423.889733,743.725581 425.002367,694.842881 426.140578,645.99854 C426.703289,645.947394 427.278789,645.909034 427.828711,645.870675 C429.030867,657.340144 430.233022,668.835187 431.4096,680.304657 C431.818844,680.33023 432.202511,680.368589 432.611756,680.406949 C433.187256,676.711657 433.749967,673.054724 434.312678,669.385006 C434.824233,669.244354 435.335789,669.103703 435.834556,668.975838 C436.832089,673.502251 438.507433,677.951945 438.724844,682.529504 C440.1572,716.336948 441.512822,750.11882 442.471989,783.913478 C442.957967,801.213581 442.548722,818.488111 442.548722,835.813787 C443.533467,835.826573 444.556578,835.852146 445.528533,835.877719 C447.984,790.536873 450.426678,745.170453 452.894933,699.81682 C452.997244,699.791247 453.099556,699.791247 453.214656,699.778461 C454.723744,716.413667 456.220044,733.087233 457.729133,749.748012 C457.984911,749.748012 458.266267,749.748012 458.534833,749.748012 C459.442844,729.68603 460.363644,709.598475 461.271656,689.549279 C461.514644,689.549279 461.757633,689.549279 462.0262,689.549279 C463.484133,709.03587 464.954856,728.535247 466.4,747.996265 C466.655778,747.996265 466.873189,748.021838 467.116178,748.021838 C468.113711,715.927781 469.111244,683.859297 470.0832,651.790814 C470.364556,651.765241 470.645911,651.765241 470.927267,651.739668 C472.346833,676.967386 473.791978,702.143959 475.185967,727.384464 C475.863778,727.384464 476.516011,727.384464 477.193822,727.384464 C477.193822,708.409333 477.040356,689.472561 477.270556,670.510216 C477.321711,664.14255 477.897211,657.710952 479.048211,651.471152 C479.5214,648.913856 482.130333,646.740155 483.7801,644.374657 C485.749589,646.663436 489.023544,648.747632 489.42,651.279355 C490.724467,659.373194 490.941878,667.671618 491.581322,675.867749 C491.747578,677.913586 491.888256,679.921062 492.6428,681.992472 C495.136633,662.863902 497.617678,643.722547 500.085933,624.606764 C500.878844,624.645123 501.684544,624.683483 502.490244,624.709056 C504.894556,657.889963 507.298867,691.045297 509.715967,724.226204 C510.240311,724.251777 510.777444,724.290137 511.314578,724.328496 C512.721356,705.033703 510.585611,685.291383 516.251089,666.520835 C517.095156,666.431329 517.939222,666.380184 518.808867,666.316251 C519.704089,670.113835 520.906244,673.860272 521.430589,677.721788 C522.006089,681.723956 521.916567,685.853988 522.185133,690.559411 C524.077889,689.958447 525.318411,689.523706 527.505311,688.807664 C528.068022,695.060251 529.027189,701.095468 529.155078,707.156258 C530.088667,752.970204 530.728111,798.733004 531.751222,844.508591 C532.339511,870.286128 533.413778,896.038092 534.347367,921.815629 C534.449678,924.846024 535.063544,927.901992 535.408844,930.932387 C536.125022,930.932387 536.815622,930.881241 537.506222,930.881241 C538.721167,846.311484 539.923322,761.703368 541.125478,677.120824 C541.342889,677.108038 541.573089,677.108038 541.803289,677.108038 C543.043811,736.6163 544.335489,796.162922 545.614378,855.696758 C545.857367,855.696758 546.087567,855.696758 546.317767,855.696758 C547.4304,779.195268 548.530244,702.668205 549.642878,626.166714 C549.8475,626.153928 550.064911,626.153928 550.295111,626.153928 C551.816989,677.734575 553.313289,729.328009 554.835167,780.921442 C555.3723,780.947015 555.871067,780.972588 556.4082,780.985375 C556.945333,776.82977 557.508044,772.674165 558.032389,768.544133 C558.377689,768.544133 558.722989,768.544133 559.042711,768.544133 C560.270444,790.882108 561.498178,813.181723 562.725911,835.532484 C563.211889,835.532484 563.723444,835.532484 564.196633,835.532484 C566.728833,774.36198 569.2994,713.229834 571.857178,652.046543 C571.997856,652.046543 572.151322,652.02097 572.304789,652.008184 C573.737144,679.678119 575.182289,707.348055 576.614644,735.05635 C577.164567,735.05635 577.7017,735.017991 578.264411,735.017991 C578.827122,728.56082 579.415411,722.06529 579.990911,715.56976 C580.374578,715.518614 580.783822,715.441895 581.167489,715.403535 C582.497533,720.671564 583.853156,725.952379 585.195989,731.207621 C585.605233,731.220407 586.014478,731.220407 586.4493,731.24598 C587.242211,720.108959 588.009544,708.959151 588.789667,697.860489 C589.365167,697.732625 589.979033,697.617546 590.580111,697.540827 C592.063622,701.504635 593.559922,705.506802 595.567778,710.774831 C596.2328,704.087503 596.821089,698.90898 597.319856,693.75603 C597.614,693.717671 597.895356,693.653738 598.1895,693.653738 C599.621856,697.579187 601.105367,701.517422 602.524933,705.468443 C603.074856,705.417297 603.7143,705.378938 604.2898,705.340578 C605.044344,694.254703 605.773311,683.1944 606.515067,672.108525 C606.962678,672.082952 607.461444,672.044593 607.909056,672.01902 C609.341411,678.067023 610.786556,684.089454 612.487478,691.416105 C613.472222,682.695728 614.277922,675.330717 615.096411,667.99128 C616.093944,668.055212 617.091478,668.119144 618.050644,668.183077 C623.409189,727.128735 623.230144,786.394054 626.094856,845.531509 C627.054022,769.093951 628.025978,692.66918 629.023511,616.257195 C629.3816,616.269981 629.739689,616.269981 630.059411,616.269981 C631.210411,687.835892 632.323044,759.401802 633.422889,830.954926 C633.908867,830.967712 634.394844,830.967712 634.893611,830.993285 C635.7121,794.679691 636.594533,758.378884 637.464178,722.052503 C641.543833,749.223766 640.405622,777.034353 649.894978,803.374495 C656.046433,781.701417 650.9053,758.877556 657.632256,737.293984 C664.090644,751.346321 662.031633,766.626161 665.241644,781.228318 C666.597267,717.935258 668.016833,654.642198 669.398033,591.336352 C669.564289,591.336352 669.756122,591.336352 669.8968,591.336352 C670.779233,643.313379 671.661667,695.31598 672.531311,747.293008 C672.914978,747.318581 673.324222,747.318581 673.720678,747.331368 C676.726067,720.773856 679.744244,694.241916 682.711267,667.658831 C682.979833,667.684404 683.261189,667.697191 683.516967,667.722764 C684.450556,729.813895 685.396933,791.892239 686.330522,853.996157 C686.599089,853.996157 686.829289,853.996157 687.085067,853.996157 C688.338378,808.028773 689.630056,762.086962 690.921733,716.145151 C691.330978,716.145151 691.740222,716.18351 692.175044,716.18351 C693.083056,743.278055 694.016644,770.410958 694.924656,797.505503 C695.231589,797.505503 695.500156,797.467143 695.7943,797.467143 C697.137133,773.67151 698.531122,749.811944 699.848378,726.003525 C701.766711,744.070816 700.347144,762.355478 706.2684,780.000816 C713.366233,756.154037 710.961922,731.476137 713.992889,707.117898 C714.888111,715.390749 715.834489,723.612453 716.7425,731.885304 C717.177322,731.923663 717.573778,731.962023 718.021389,731.987596 C719.440956,720.479767 720.898889,708.920792 722.331244,697.400176 C723.840333,721.694482 724.313522,745.912069 729.5186,769.630983 C730.311511,769.630983 731.091633,769.630983 731.910122,769.592624 C733.009967,736.552368 734.033078,703.550471 735.107344,670.510216 C735.222444,670.510216 735.363122,670.510216 735.5038,670.510216 C736.961733,717.717888 738.445244,764.912773 739.903178,812.107659 C740.056644,812.107659 740.171744,812.107659 740.312422,812.107659 C741.437844,775.538335 742.512111,739.007371 743.624744,702.425261 C744.059567,702.450834 744.532756,702.450834 744.967578,702.463621 C746.297622,705.302219 747.614878,708.064098 748.957711,710.877123 C749.750622,710.877123 750.517956,710.902696 751.323656,710.902696 C752.372344,705.455656 754.0349,700.098123 754.392989,694.625511 C755.147533,683.117682 755.211478,671.533134 755.697456,659.999732 C755.863711,656.52181 756.055544,652.916024 757.065867,649.629899 C757.679733,647.609636 759.905,646.088045 761.362933,644.349084 C763.076644,646.113618 765.66,647.622422 766.273867,649.732191 C767.476022,653.823863 767.910844,658.260771 768.064311,662.557027 C768.831644,683.987162 769.381567,705.417297 770.519778,726.911364 C771.900978,701.018749 773.320544,675.062201 774.714533,649.144013 C782.0042,708.332614 781.927467,767.879236 784.267833,827.374712 C785.610667,759.005421 786.9535,690.63613 788.283544,622.241266 C788.3347,622.241266 788.398644,622.241266 788.437011,622.241266 C789.741478,696.69692 791.020367,771.088642 792.273678,845.518723 C792.989856,845.557082 793.667667,845.608228 794.383844,845.684947 C795.598789,839.163844 796.775367,832.629954 797.964733,826.121637 C798.834378,826.032132 799.755178,825.917054 800.663189,825.827548 C802.926822,835.596417 805.241611,845.378071 807.518033,855.159726 C813.912478,783.734467 811.034978,712.040692 818.056078,640.794444 C822.8647,693.883895 821.176567,747.152357 823.3251,800.38246 C826.969933,775.576695 830.563611,750.809289 834.208444,726.003525 C834.8351,726.041884 835.500122,726.05467 836.113989,726.080243 C837.866067,750.745357 839.605356,775.410471 841.306278,800.050011 C841.523689,800.011652 841.715522,800.011652 841.907356,799.973293 C842.8921,768.876581 843.838478,737.77987 844.836011,706.644799 C845.270833,706.606439 845.667289,706.580866 846.1149,706.555293 C847.444944,720.914507 848.813356,735.27372 850.105033,749.185407 C852.739544,716.388094 855.425211,683.181614 858.0853,649.949561 C858.6608,649.949561 859.274667,649.949561 859.875744,649.936774 C860.208256,655.639543 860.5024,661.393458 860.898856,667.121799 C861.295311,673.10587 861.5383,679.089941 862.241689,684.997294 C862.881133,690.789568 864.032133,696.492336 864.940144,702.28461 C865.963256,702.259037 866.973578,702.246251 867.958322,702.220678 C868.623344,693.640952 869.288367,685.112372 869.876656,676.545433 C870.439367,667.748337 870.874189,658.9896 872.370489,650.218077 C877.102378,676.583792 877.920867,703.154091 878.317322,729.724389 C878.6882,756.345834 878.394056,782.928919 878.394056,809.524791 C879.225333,809.550364 880.0694,809.550364 880.887889,809.56315 C882.2563,775.602268 883.624711,741.615813 885.005911,707.69329 C885.274478,707.69329 885.543044,707.65493 885.837189,707.65493 C886.898667,760.974538 887.972933,814.294146 889.0472,867.613754 C889.482022,867.613754 889.904056,867.6649 890.351667,867.70326 C890.620233,864.225338 890.7737,860.721844 891.144578,857.282281 C892.973389,841.695566 890.978322,825.559032 898.2552,810.777865 C899.431778,776.35667 900.544411,741.922688 901.797722,707.514279 C902.987089,674.959909 904.329922,642.379967 905.647178,609.85117 C905.762278,607.677469 906.248256,605.529341 908.025911,603.445145 C909.125756,666.584767 910.212811,729.724389 911.274289,792.838438 C911.709111,792.838438 912.105567,792.838438 912.553178,792.838438 C913.6786,766.779599 914.816811,740.746332 915.942233,714.687493 C916.441,714.649133 916.978133,714.649133 917.464111,714.649133 C918.180289,726.284827 918.845311,737.894948 919.5487,749.556215 C919.842844,749.581788 920.085833,749.620147 920.341611,749.632934 C921.825122,732.882649 923.334211,716.145151 924.8433,699.343721 C925.239756,699.343721 925.610633,699.343721 926.019878,699.343721 C926.595378,705.66024 927.209244,712.015119 927.810322,718.357211 C928.2963,718.357211 928.833433,718.369998 929.3322,718.395571 C930.649456,696.019237 931.941133,673.694048 933.220022,651.343287 C933.603689,651.343287 933.974567,651.317714 934.371022,651.317714 C935.458078,711.97676 936.532344,772.597446 937.6194,833.269278 C937.913544,833.269278 938.1949,833.269278 938.489044,833.269278 C939.588889,786.48356 940.739889,739.723414 941.890889,692.924909 C942.300133,692.924909 942.6838,692.924909 943.105833,692.899336 C944.269622,767.316631 945.420622,841.733926 946.571622,916.125647 C946.737878,916.125647 946.891344,916.125647 947.006444,916.125647 C948.3237,828.678933 949.666533,741.168286 950.971,653.721572 C951.341878,653.721572 951.674389,653.721572 952.0069,653.721572 C952.556822,681.302002 953.017222,708.882432 953.669456,736.514008 C954.347267,764.23509 954.8844,792.007318 958.426922,819.574961 C959.232622,819.574961 960.0639,819.574961 960.895178,819.574961 C961.982233,794.641332 963.018133,769.669343 964.079611,744.722927 C964.169133,744.722927 964.220289,744.722927 964.309811,744.735713 C965.767744,768.416268 967.251256,792.096823 968.773133,815.790164 C969.681144,815.790164 970.640311,815.815737 971.586689,815.815737 C972.660956,805.829499 974.2212,795.88162 974.719967,785.882595 C976.216267,756.652709 977.162644,727.358891 978.620578,698.129005 C979.029822,688.948315 980.411022,679.844344 981.331822,670.702013 C982.1631,670.574148 982.956011,670.45907 983.761711,670.356778 C985.718411,676.622151 988.416867,682.75966 989.491133,689.178472 C991.281578,699.701742 992.023333,710.404023 993.2127,721.042372 C993.570789,724.111126 993.455689,727.358891 994.466011,730.171916 C995.335656,732.601347 997.407456,736.18156 999.159533,736.322211 C1001.28249,736.514008 1004.46692,734.046218 1005.7586,731.885304 C1013.49588,718.868671 1014.64688,704.215368 1015.56768,689.574852 C1015.96413,683.501276 1015.63162,677.427699 1015.63162,671.354123 C1016.28386,671.354123 1016.96167,671.32855 1017.66506,671.302977 C1018.86721,675.714312 1020.031,680.11286 1021.23316,684.498621 C1021.57846,684.460262 1021.94933,684.421902 1022.30742,684.383543 C1024.03392,659.4627 1025.76042,634.580216 1027.47413,609.659373 C1028.12637,609.659373 1028.76581,609.659373 1029.40526,609.621013 C1029.77613,614.224145 1030.41558,618.81449 1030.49231,623.417622 C1031.40032,670.228913 1032.20602,717.027418 1033.02451,763.864282 C1033.85579,811.698492 1034.69986,859.571061 1035.55671,907.40527 C1035.64623,912.085121 1036.27289,916.752185 1036.63098,921.419249 C1037.34716,921.393676 1038.05054,921.393676 1038.80509,921.393676 C1040.0584,894.490929 1041.19661,867.562609 1042.64176,840.634289 C1044.03574,813.884979 1045.82619,787.148456 1047.45038,760.42472 C1048.05146,760.42472 1048.66532,760.386361 1049.27919,760.386361 C1049.957,772.022054 1050.66039,783.670535 1051.37657,795.357374 C1051.88812,795.357374 1052.45083,795.357374 1052.96239,795.357374 C1054.34359,749.658507 1055.73758,703.959639 1056.9781,661.917703 C1059.30568,726.591703 1061.78672,794.948207 1064.24219,863.330285 C1065.07347,863.330285 1065.86638,863.330285 1066.69766,863.330285 C1068.66714,814.204641 1066.77439,764.733763 1078.29718,716.528745 C1079.01336,716.490386 1079.72953,716.43924 1080.39456,716.43924 C1081.2642,719.277838 1082.10827,722.103649 1082.92676,724.955033 C1083.34879,724.980606 1083.71967,725.018966 1084.10333,725.044539 C1085.19039,709.304386 1086.26466,693.513087 1087.33892,677.772934 C1087.7098,677.709002 1088.09347,677.619497 1088.46434,677.555564 C1089.33399,680.50924 1089.71766,683.757005 1091.26511,686.378233 C1092.64631,688.782091 1095.22967,690.533838 1097.28868,692.592461 C1098.95123,690.20139 1101.79037,687.95097 1101.99499,685.457607 C1103.27388,672.760635 1103.86217,659.986945 1104.55277,647.238828 C1104.77018,643.543536 1104.59113,639.822671 1105.72934,636.076234 C1106.63736,642.878639 1107.12333,649.796123 1108.67079,656.470664 C1109.51486,660.242675 1112.32841,663.541586 1113.79913,667.185732 C1115.53842,671.507561 1116.76616,676.033973 1118.64612,681.647237 C1119.88664,670.523002 1121.01207,660.204315 1122.15028,649.911201 C1122.75136,649.936774 1123.33964,649.962347 1123.94072,649.975134 C1125.13009,711.900041 1126.30667,773.812161 1127.45767,835.762641 C1127.58556,835.762641 1127.66229,835.762641 1127.77739,835.762641 C1129.10743,766.357645 1130.48863,696.991009 1131.84426,627.611586 C1132.08724,627.611586 1132.34302,627.611586 1132.61159,627.624373 C1133.67307,697.233952 1134.72176,766.843531 1135.75766,836.440324 C1136.3971,836.478684 1137.04933,836.478684 1137.67599,836.517043 C1138.78862,812.056513 1139.8501,787.57041 1140.96273,763.097094 C1141.16736,763.10988 1141.35919,763.10988 1141.56381,763.10988 C1142.62529,791.956172 1143.69956,820.77689 1144.72267,849.610395 C1145.10633,849.610395 1145.45163,849.610395 1145.82251,849.610395 C1146.43638,817.976652 1147.02467,786.381268 1147.68969,754.747524 C1148.3675,723.15214 1148.68722,691.582329 1152.21696,660.178742 C1153.04823,660.178742 1153.84114,660.178742 1154.67242,660.178742 C1155.46533,680.828902 1156.1943,701.466276 1156.94884,722.116436 L1156.94884,548.578373 L1157,548.578373 Z" id="Path" fill="#FFFFFF" fill-rule="nonzero"></path>
        <path d="M1151,519.578373 C1150.98721,519.578373 1150.93606,519.578373 1150.89769,519.578373 C1150.89769,505.947989 1150.98721,492.317605 1151,478.687221 L1151,446.311862 C1150.98721,438.563257 1150.92327,430.789079 1150.82096,423.066047 C1150.38613,393.567645 1149.33744,364.08203 1148.18644,334.609201 C1147.91788,328.727421 1146.19138,322.871215 1144.68229,317.130087 C1144.14516,314.981959 1142.32913,313.12792 1141.08861,311.146016 C1140.4108,311.184375 1139.75857,311.248308 1139.04239,311.286667 C1138.42852,314.483286 1137.49493,317.641546 1137.25194,320.863738 C1136.8427,326.361923 1136.62529,331.323076 1129.84718,333.586283 C1127.85211,334.225606 1126.39418,339.046108 1126.18956,342.025357 C1125.03856,357.867802 1124.00266,373.710247 1123.67014,389.578264 C1122.94118,425.482691 1122.62146,461.361545 1122.14827,497.253185 C1122.13548,499.107224 1122.14827,500.97405 1121.8797,502.789729 C1119.02778,486.116164 1120.89496,468.803274 1115.4341,452.526089 C1114.64119,452.423797 1113.87386,452.321506 1113.08094,452.232 C1111.4056,459.533079 1109.74304,466.834157 1108.08049,474.109662 C1107.28758,474.032943 1106.53303,473.930651 1105.77849,473.841146 C1100.67572,464.980118 1102.01856,454.725363 1100.73967,445.046 C1100.20253,445.046 1099.6654,445.046 1099.17942,445.033214 C1097.92611,465.376498 1096.64722,485.69421 1095.35554,506.037494 C1095.07419,506.011922 1094.79283,505.999135 1094.4859,505.973562 C1093.65462,482.804466 1092.82334,459.686516 1091.9537,436.51742 C1091.44214,436.504634 1090.9178,436.504634 1090.40624,436.479061 C1089.05062,447.51379 1087.65663,458.522947 1086.28822,469.557676 C1086.04523,469.557676 1085.81503,469.557676 1085.53368,469.557676 C1084.74077,450.71041 1083.97343,431.914289 1083.16773,413.092595 C1082.75849,413.092595 1082.38761,413.092595 1082.00394,413.105382 C1080.9041,421.020211 1079.85541,428.883894 1078.79393,436.798723 C1078.09054,436.811509 1077.42552,436.811509 1076.73492,436.837082 C1075.68623,405.113834 1074.67591,373.352225 1073.64001,341.641763 C1073.47376,341.641763 1073.37144,341.641763 1073.20519,341.641763 C1071.78562,366.933414 1070.35327,392.199492 1068.94649,417.491143 C1068.69071,417.491143 1068.49888,417.491143 1068.23031,417.491143 C1067.45019,392.161133 1066.70843,366.831122 1065.95389,341.501112 C1065.37839,341.501112 1064.76452,341.513898 1064.20181,341.513898 C1061.23479,413.361111 1058.25498,485.195537 1055.88903,542.504526 C1053.90676,465.210274 1051.56639,373.492877 1049.11092,281.762692 C1048.99582,277.760525 1047.44837,273.758358 1045.65792,269.730618 C1044.9929,279.499486 1044.63481,289.3195 1043.54776,299.050009 C1042.4607,308.997888 1040.67026,318.869048 1039.22511,328.740208 C1038.39383,328.727421 1037.56256,328.676276 1036.73128,328.637916 C1035.88721,318.0635 1035.04314,307.527443 1034.19908,296.953027 C1034.02003,296.953027 1033.86657,296.965813 1033.70031,296.965813 C1032.40863,309.31755 1031.09138,321.720432 1029.77412,334.059382 C1029.32651,334.021023 1028.82774,333.982663 1028.39292,333.944304 C1027.48491,308.524788 1026.56411,283.105272 1025.68168,257.698543 C1025.18291,257.698543 1024.67136,257.698543 1024.1598,257.698543 C1021.3974,347.357318 1018.64779,437.028879 1015.91097,525.946039 C1014.52977,498.135452 1013.09741,469.493744 1011.67784,440.890395 C1011.11513,440.877609 1010.52684,440.852036 1009.96413,440.852036 C1008.99218,449.751424 1008.03301,458.701958 1007.02269,467.844288 C1005.93563,450.825488 1005.14272,434.113563 1003.63363,417.439997 C1003.31391,413.693559 1000.50036,410.241211 999.042422,406.545919 C997.367078,402.415887 995.947511,398.19635 993.926867,392.621446 C990.307611,427.426235 993.172322,461.514982 984.782811,495.795527 C982.391289,472.831014 980.140444,451.14515 977.838444,429.472072 C977.160633,429.472072 976.533978,429.459285 975.843378,429.459285 C974.794689,438.844559 973.771578,448.217047 972.735678,457.602321 C968.771122,426.531182 972.403167,395.012517 966.047089,364.26104 C965.292544,363.903019 964.461267,363.557784 963.668356,363.199763 C963.169589,364.2994 962.325522,365.347891 962.159267,366.498674 C960.496711,379.118926 952.196722,389.654983 952.426922,403.208649 C952.848956,425.457118 951.173611,447.718374 950.470222,470.005203 C950.367911,473.483125 950.470222,476.973833 949.319222,480.477327 C948.014756,425.009591 946.710289,369.516282 945.393033,314.074119 C945.150044,314.074119 944.919844,314.074119 944.702433,314.074119 C943.666533,370.973941 942.617844,427.873762 941.594733,484.78637 C941.364533,484.78637 941.1727,484.78637 940.955289,484.78637 C939.586878,431.927075 938.1801,379.042207 936.7989,326.195699 C936.555911,326.195699 936.325711,326.195699 936.057144,326.195699 C935.046822,362.470934 934.062078,398.746168 933.077333,435.034189 C932.604144,435.046976 932.143744,435.085335 931.696133,435.110908 C930.736967,424.741075 929.790589,414.396816 928.831422,404.065342 C928.243133,404.03977 927.642056,404.03977 927.066556,404.014197 C926.0946,447.628869 925.135433,491.256327 924.150689,534.83264 C923.9077,534.83264 923.651922,534.83264 923.408933,534.858213 C918.945611,445.020427 914.520656,355.182642 910.0957,265.33207 C909.763189,265.33207 909.4051,265.319283 909.072589,265.319283 C908.215733,322.410902 907.346089,379.502521 906.514811,436.606926 C906.310189,436.606926 906.169511,436.606926 906.041622,436.632499 C905.171978,408.796339 904.417433,380.960179 903.3048,353.149592 C902.217744,325.428511 900.734233,297.707429 898.163667,269.999134 C892.766756,322.653845 893.713133,375.410848 892.459822,428.142278 C891.040256,378.735332 889.595111,329.341172 888.162756,279.934226 C887.740722,279.92144 887.293111,279.895867 886.832711,279.88308 C886.640878,281.839411 886.564144,283.821315 886.142111,285.713714 C884.338878,294.088856 882.024089,302.374493 880.732411,310.813568 C879.146589,321.375197 877.931644,332.064692 877.394511,342.715827 C875.898211,371.331962 875.143667,399.986456 873.455533,428.589805 C872.816089,439.24094 870.5013,449.789783 868.762011,460.351413 C868.391133,462.614619 867.176189,464.78832 864.835822,466.962022 C863.646456,462.79363 862.4443,458.612452 861.267722,454.418488 C860.8329,454.418488 860.359711,454.431274 859.937678,454.431274 C859.937678,457.333805 860.155089,460.223548 859.873733,463.087719 C859.400544,468.406893 858.351856,472.984452 851.752789,474.646694 C849.489156,475.196513 847.468511,479.313758 846.624444,482.190715 C845.4095,486.269601 845.4095,490.693722 843.887622,495.053911 C842.237856,480.28553 840.677611,465.51715 838.938322,450.761556 C836.572378,431.134314 834.513367,411.455926 831.418456,391.91819 C830.433711,385.806254 826.469156,380.19299 822.312767,374.375143 C821.059456,392.263424 819.780567,410.151705 818.501678,428.039986 C815.611389,383.261745 817.5553,338.342852 811.455,293.781981 C804.139756,300.392589 808.1171,309.53492 804.945456,317.615973 C802.975967,315.928158 801.262256,314.444927 798.614956,312.181721 C797.822044,317.168447 797.144233,321.285692 796.466422,325.402938 C796.159489,325.46687 795.814189,325.518016 795.481678,325.594735 C793.998167,316.056023 792.501867,306.542884 790.954411,296.991386 C790.609111,296.991386 790.2766,296.991386 789.9313,296.991386 C789.291856,303.141682 788.652411,309.253617 788.038544,315.391126 C787.603722,315.429486 787.232844,315.467845 786.798022,315.506205 C785.877222,307.97497 784.930844,300.456521 783.984467,292.938073 C783.383389,292.9125 782.756733,292.886927 782.181233,292.874141 C780.851189,350.272635 779.508356,407.658342 778.178311,465.04405 C777.564444,465.056837 776.925,465.107982 776.285556,465.120769 C775.415911,453.804737 774.559056,442.475919 773.714989,431.172673 C773.216222,431.198246 772.704667,431.236606 772.231478,431.249392 C769.852744,454.111612 767.512378,476.961046 765.133644,499.797694 C764.660456,499.81048 764.187267,499.836053 763.714078,499.84884 C762.8828,478.047897 762.051522,456.246954 761.220244,434.446011 C760.862156,434.407652 760.542433,434.369292 760.2355,434.343719 C757.178956,447.437072 754.122411,460.530424 751.117022,473.623776 C750.272956,473.521484 749.4161,473.444765 748.559244,473.342473 C742.241533,446.823321 742.714722,419.383542 737.509644,392.506367 C736.5249,402.594898 735.514578,412.696214 734.529833,422.771958 C734.299633,422.797531 734.095011,422.810317 733.852022,422.83589 C732.560344,412.888011 731.281456,402.978492 730.028144,393.030613 C729.529378,393.0434 729.030611,393.0434 728.544633,393.068972 C727.636622,415.828901 726.690244,438.58883 725.769444,461.348758 C725.066056,461.361545 724.388244,461.361545 723.710433,461.387118 C721.4468,435.059762 719.183167,408.745193 716.970689,382.405051 C716.587022,382.366691 716.177778,382.328332 715.819689,382.289973 C714.553589,407.888499 713.287489,433.461452 711.983022,459.034406 C711.381944,459.034406 710.7425,459.034406 710.154211,459.034406 C710.154211,445.889908 710.422778,432.681477 710.026322,419.536979 C709.757756,409.665819 708.875322,399.769086 707.762689,389.974645 C707.379022,386.701307 704.9875,383.722058 704.169011,380.487079 C702.749444,374.745951 701.214778,368.902531 700.716011,363.033539 C700.114933,356.090482 700.549756,349.045133 700.549756,342.05093 C699.999833,341.999784 699.424333,341.961425 698.848833,341.884706 C696.316633,362.164058 693.758856,382.430624 691.213867,402.709976 C690.267489,402.633257 689.321111,402.569325 688.361944,402.505392 C687.581822,381.126403 686.788911,359.772987 686.008789,338.393998 C685.868111,338.381211 685.753011,338.342852 685.599544,338.291706 C684.052089,351.858158 682.517422,365.450183 680.739767,380.88346 C679.013267,377.674054 678.1692,376.152464 677.337922,374.592514 C676.877522,374.6053 676.4427,374.6053 676.007878,374.630873 C674.984767,397.058353 673.974444,419.524193 672.964122,441.977246 C665.866289,401.418542 665.431467,360.45067 662.963211,319.559518 C661.633167,366.920628 660.290333,414.281737 658.973078,461.630061 C658.768456,461.630061 658.551044,461.630061 658.346422,461.630061 C657.297733,421.633961 656.274622,381.676222 655.225933,341.680122 C654.982944,341.680122 654.752744,341.667336 654.471389,341.667336 C653.039033,372.111937 651.568311,402.569325 650.148744,433.013926 C649.944122,433.013926 649.726711,433.026712 649.547667,433.026712 C648.524556,383.901069 647.450289,334.762639 646.427178,285.636995 C646.107456,285.611422 645.787733,285.598635 645.429644,285.598635 C644.163544,320.31392 642.884656,355.067564 641.592978,389.808421 C641.260467,389.821207 640.915167,389.821207 640.595444,389.821207 C639.636278,348.751044 638.677111,307.629735 637.717944,266.559572 C637.0785,266.559572 636.426267,266.559572 635.799611,266.572358 C629.072656,344.889528 630.811944,423.500787 627.653089,501.945822 C626.4893,430.661214 625.299933,359.389393 624.123356,288.117571 C621.066811,357.011108 623.637378,426.134801 618.457878,494.977192 C617.8568,495.168989 617.268511,495.386359 616.654644,495.552584 C615.593167,493.417242 613.892244,491.358619 613.585311,489.133772 C611.398411,473.662135 609.377767,458.164926 607.472222,442.642143 C607.075767,439.509456 607.433856,436.312837 605.975922,433.013926 C605.246956,436.568566 604.594722,440.097634 603.865756,443.601129 C602.765911,448.958662 599.760522,451.784474 594.082256,452.040203 C588.097056,452.308719 583.9023,450.314029 582.559467,444.240452 C580.807389,436.619712 579.4134,428.922253 577.802,421.250367 C577.405544,419.357969 576.868411,417.46557 574.911711,415.739396 C573.581667,438.090157 572.251622,460.440918 570.921578,482.79168 C570.691378,482.79168 570.473967,482.79168 570.243767,482.804466 C567.711567,410.381862 565.179367,337.946471 562.621589,265.54944 C562.097244,265.575013 561.560111,265.575013 560.9974,265.587799 C560.127756,312.232867 559.258111,358.877934 558.362889,405.510214 C557.825756,405.510214 557.288622,405.523001 556.7387,405.548574 C551.431311,357.036681 550.676767,308.281845 549.730389,259.552582 C548.822378,259.552582 547.939944,259.527009 547.044722,259.527009 C544.550889,316.887144 542.044267,374.234492 539.7039,428.781602 C538.540111,396.840983 537.299589,362.036193 536.046278,327.256977 C535.637033,327.256977 535.240578,327.28255 534.831333,327.28255 C533.846589,395.102022 532.836267,462.921495 531.838733,530.702608 C531.723633,530.702608 531.570167,530.702608 531.429489,530.702608 C529.319322,482.216288 527.221944,433.742755 525.111778,385.243649 C524.101456,385.230862 523.065556,385.205289 522.055233,385.192503 C521.275111,397.851115 520.290367,410.484154 519.842756,423.142766 C519.382356,436.133826 519.382356,449.124886 519.305622,462.115947 C519.2161,475.107007 519.292833,488.059708 518.461556,501.037982 C515.635211,470.772392 516.044456,440.238285 509.227978,410.356289 C504.879756,431.236606 509.394233,452.986402 501.836,473.470338 C496.566978,461.399904 497.743556,448.600641 496.336778,436.005961 C491.413056,455.86336 492.423378,476.756463 486.578856,496.383705 C485.734789,496.383705 484.852356,496.370918 483.982711,496.345345 C483.023544,487.663327 481.4633,479.006883 481.245889,470.273719 C480.465767,442.846726 480.261144,415.406947 479.7368,387.967168 C479.596122,380.972965 479.058989,374.017122 478.048667,366.997346 C472.434344,410.803816 471.654222,454.95552 468.329111,498.953786 C467.395522,464.583737 466.449144,430.175328 465.489978,395.805278 C464.748222,395.741346 464.006467,395.702987 463.264711,395.639054 C462.433433,399.06583 461.602156,402.492606 460.783667,405.919382 C460.182589,405.970527 459.568722,406.03446 458.967644,406.072819 C456.627278,382.980442 454.2997,359.900852 451.959333,336.795688 C451.716344,336.718969 451.473356,336.655037 451.230367,336.603891 C449.977056,347.753699 448.455178,358.877934 447.5088,370.040528 C446.549633,381.53557 445.999711,393.081759 445.603256,404.627947 C445.2068,416.174136 445.488156,427.758684 444.9766,439.266513 C444.477833,450.71041 443.339622,462.115947 441.4085,473.534271 C434.873378,464.264075 436.4592,453.600153 433.620067,443.460477 C432.3156,465.095196 431.023922,486.78106 429.732244,508.454139 C429.604356,508.454139 429.476467,508.466925 429.386944,508.466925 C428.210367,470.708459 427.008211,432.937207 425.844422,395.191528 C425.307289,395.089236 424.770156,394.986944 424.245811,394.884652 C423.478478,396.035435 422.698356,397.173431 420.946278,399.769086 C415.485422,371.063446 415.088967,343.022702 410.855844,315.480632 C410.050144,334.148888 409.231656,352.817144 408.425956,371.498186 C408.042289,371.498186 407.671411,371.472613 407.300533,371.472613 C405.893756,348.009428 404.499767,324.55903 403.092989,301.083059 C402.85,301.108632 402.581433,301.121418 402.325656,301.121418 C401.430433,326.451429 400.496844,351.807012 399.601622,377.137022 C399.307478,377.137022 399.000544,377.137022 398.719189,377.162595 C397.747233,364.2994 396.7497,351.461777 395.777744,338.624154 C395.240611,338.636941 394.6779,338.636941 394.1024,338.636941 C393.462956,369.92545 392.861878,401.226745 392.1457,432.515253 C391.391156,463.982772 390.495933,495.463078 389.690233,526.943384 C388.667122,526.943384 387.644011,526.930597 386.633689,526.930597 C381.825067,451.989057 383.871289,376.804574 380.162511,301.722383 C376.415367,355.77082 372.681011,409.819257 368.933867,463.880481 C368.358367,463.893267 367.821233,463.893267 367.245733,463.91884 C365.954056,452.807392 364.624011,441.721516 363.319544,430.597282 C361.720933,444.700766 363.345122,459.085552 358.7667,472.741509 C358.088889,472.869374 357.436656,472.997239 356.758844,473.112317 C355.710156,469.826192 354.201067,466.604 353.753456,463.241157 C351.899067,449.342257 350.556233,435.417783 348.663478,421.518883 C348.151922,417.670154 346.348689,413.974862 344.021111,410.305143 C335.657178,428.0272 340.887833,447.181342 336.603556,466.808584 C335.797856,464.148997 335.107256,462.870349 335.017733,461.540555 C333.367967,430.674001 331.679833,399.769086 330.170744,368.902531 C329.390622,353.26467 328.968589,337.601236 328.329144,320.160482 C326.257344,322.500407 325.490011,323.382674 323.188011,326.003902 C322.075378,307.399578 321.065056,290.367991 320.029156,273.323618 C319.696644,273.323618 319.351344,273.323618 319.031622,273.323618 C317.663211,313.383649 316.307589,353.405322 314.926389,393.452567 C314.772922,393.452567 314.5683,393.452567 314.402044,393.452567 C313.366144,330.888336 312.317456,268.311319 311.268767,205.747088 C310.8851,205.747088 310.488644,205.734302 310.143344,205.734302 C308.864456,236.396273 307.572778,267.045458 306.293889,297.707429 C306.063689,297.707429 305.846278,297.720215 305.603289,297.720215 C305.603289,295.533728 305.667233,293.308881 305.603289,291.122393 C304.298822,246.382511 303.147822,201.668202 301.549211,156.941106 C301.229489,147.92664 299.196056,138.96332 297.942744,130 C297.111467,130 296.280189,130 295.4617,130 C295.039667,184.253021 294.528111,238.506042 294.208389,292.746276 C294.042133,322.027308 294.182811,351.321126 294.182811,380.589371 C293.556156,380.589371 292.942289,380.589371 292.341211,380.589371 C291.139056,317.475322 289.962478,254.310127 288.811478,191.196078 C283.248311,285.227828 283.6064,379.579239 273.093933,473.393619 C265.970522,452.05299 271.329067,429.446499 264.9602,408.06751 C257.376389,430.942517 260.496878,454.840442 257.235711,478.278053 C256.800889,475.145367 256.404433,471.987107 255.931244,468.867207 C254.959289,462.448395 254.6012,455.991224 249.805367,450.556972 C247.771933,448.229833 247.592889,443.997509 247.222011,440.570734 C246.352367,432.246737 245.866389,423.897168 245.086267,413.859784 C242.924944,418.948801 241.454222,422.337218 240.021867,425.725634 C239.267322,425.687275 238.499989,425.648915 237.745444,425.610556 C230.967333,413.770278 233.243756,400.152681 231.824189,386.228207 C229.368722,399.781873 230.992911,413.054236 225.506478,424.996805 C224.803089,425.08631 224.086911,425.188602 223.370733,425.265321 C222.219733,420.342527 220.812956,415.43252 219.981678,410.445794 C219.124822,405.139406 218.830678,399.794659 217.283222,394.38598 C216.311267,409.780898 215.339311,425.163029 214.354567,440.442869 C210.875989,433.602104 206.694022,427.439022 204.5327,420.636616 C202.2307,413.450616 201.872611,405.676439 199.736867,398.030125 C198.035944,433.282442 196.347811,468.573118 194.646889,503.825434 C193.815611,503.812648 193.0227,503.812648 192.204211,503.787075 C188.035033,448.229833 189.6848,392.468008 186.602678,336.795688 C185.323789,364.26104 184.0449,391.713606 182.753222,419.178958 C182.305611,419.191744 181.858,419.230104 181.3976,419.268463 C180.886044,413.859784 180.387278,408.438317 179.862933,403.004065 C179.3258,402.991278 178.775878,402.965705 178.238744,402.952919 C176.7936,438.102944 175.335667,473.240182 173.890522,508.402993 C173.711478,508.402993 173.506856,508.402993 173.327811,508.402993 C172.227967,470.23536 171.1537,432.042154 170.041067,393.861734 C169.836444,393.861734 169.631822,393.861734 169.465567,393.861734 C168.033211,445.723684 166.613644,497.585633 165.206867,549.447583 C165.117344,549.447583 165.015033,549.447583 164.9383,549.447583 C163.633833,482.778893 162.354944,416.110204 161.063267,349.467087 C160.347089,349.403154 159.6437,349.352008 158.927522,349.288076 C158.352022,350.323781 157.789311,351.359485 157.213811,352.39519 C156.574367,352.369617 155.973289,352.356831 155.346633,352.331258 C154.374678,327.551066 153.402722,302.796447 152.417978,278.016255 C152.2773,278.003468 152.136622,278.003468 151.995944,278.003468 C150.640322,318.71561 149.259122,359.414966 147.877922,400.114321 C147.634933,400.139894 147.391944,400.139894 147.148956,400.139894 C144.527233,353.021727 141.9183,305.903561 139.296578,258.772607 C139.053589,258.772607 138.8106,258.772607 138.567611,258.772607 C137.160833,356.819311 135.741267,454.853228 134.347278,552.912718 C134.155444,552.912718 133.9764,552.912718 133.810144,552.912718 C132.659144,484.019182 131.520933,415.100072 130.382722,346.206535 C129.858378,346.206535 129.321244,346.206535 128.758533,346.206535 C127.569167,362.91846 126.392589,379.643172 125.216011,396.367883 C124.793978,396.431816 124.346367,396.495748 123.911544,396.559681 C123.182578,394.871866 122.479189,393.209624 121.763011,391.521809 C121.3154,391.483449 120.855,391.44509 120.3946,391.40673 C119.384278,408.783552 118.399533,426.185947 117.427578,443.588342 C117.018333,443.652274 116.621878,443.70342 116.212633,443.805712 C115.279044,441.043833 114.319878,438.307527 113.3735,435.558435 C112.836367,435.558435 112.312022,435.571221 111.749311,435.596794 C110.687833,457.321018 109.600778,479.045242 108.513722,500.743893 C108.194,500.75668 107.887067,500.75668 107.580133,500.75668 C106.672122,494.504092 105.917578,488.213146 104.766578,481.960559 C104.0504,478.047897 102.464578,474.940783 97.8222111,473.483125 C95.5585778,472.792655 93.9727556,469.148509 92.5531889,466.591214 C91.6451778,464.903399 91.6196,462.755271 90.0209889,460.824513 C88.6014222,470.861897 87.1818556,480.899281 85.6727667,491.512057 C83.2045111,471.028121 80.7746222,451.10679 78.3575222,431.172673 C77.6925,431.211033 77.0274778,431.223819 76.3496667,431.249392 C74.0348778,445.007641 77.117,459.520292 71.9502889,472.856587 C71.2341111,472.856587 70.5435111,472.856587 69.8401222,472.856587 C68.7402778,460.287481 67.3590778,447.705588 66.6556889,435.098122 C64.8013,402.773908 63.305,370.436909 61.5017667,338.112695 C61.1181,331.323076 60.2228778,324.546244 59.0718778,317.871703 C58.6114778,315.212116 56.7187222,312.833831 55.6828222,310.238176 C54.5701889,307.412365 53.5598667,304.56098 52.7541667,301.632877 C52.1147222,299.40803 51.8077889,297.055319 50.2219667,294.817685 C43.1113444,363.033539 44.0833,431.505122 41.0523333,499.797694 C39.2746778,411.992958 40.285,324.111503 34.6834667,236.421846 C33.8905556,236.396273 33.1232222,236.383486 32.3558889,236.357914 C31.3072,263.222301 30.2457222,290.099475 29.1970333,317.002222 C28.6854778,317.066155 28.1739222,317.117301 27.6751556,317.181233 C26.8183,312.91055 25.9870222,308.62708 25.1557444,304.34361 C16.6383444,375.999026 14.5409667,448.025249 10.8321889,519.898035 C9.98812222,519.885249 9.15684444,519.885249 8.29998889,519.859676 C8.29998889,502.96874 8.41508889,486.065018 8.22325556,469.174082 C8.18488889,465.069623 7.51986667,460.914018 6.4456,456.962997 C5.93404444,455.134531 3.51694444,452.334292 2.32757778,452.48773 C1.59861111,452.602808 0.792911111,452.948043 0,453.459502 L0,645.179934 C0.473188889,662.659048 0.933588889,680.202094 1.41956667,697.706781 C1.6114,697.706781 1.80323333,697.732354 1.98227778,697.732354 C3.36347778,668.157233 4.74467778,638.582112 6.13866667,609.032565 C6.5607,609.006992 6.98273333,608.994205 7.41755556,608.968632 C8.26162222,625.348109 9.11847778,641.727586 9.97533333,658.132635 C10.1799556,658.145422 10.3973667,658.170995 10.6019889,658.196568 C11.8169333,641.983315 13.0446667,625.782849 14.2596111,609.582383 C14.7711667,609.59517 15.2699333,609.59517 15.7687,609.620743 C16.9069111,657.953625 18.0451222,706.260934 19.1833333,754.568243 C19.7588333,754.606602 20.3471222,754.670535 20.8842556,754.747254 C21.4341778,751.269332 21.9968889,747.816983 22.5468111,744.364634 C23.3013556,744.364634 24.0303222,744.390207 24.7720778,744.402994 C25.7184556,794.06567 26.6264667,843.715559 27.5600556,893.391021 C31.1793111,803.450943 30.7700667,713.383001 36.1797667,623.532429 C36.9854667,623.545216 37.7783778,623.545216 38.5968667,623.545216 C39.5688222,670.573877 40.5279889,717.628112 41.4999444,764.669559 C41.7685111,764.669559 42.0242889,764.669559 42.3056444,764.643987 C43.4438556,724.878044 44.5564889,685.086528 45.6947,645.295013 C46.0783667,645.295013 46.4492444,645.26944 46.8073333,645.243867 C49.2500111,702.194834 51.7310556,759.133015 54.1865222,816.096769 C54.5574,816.122342 54.9027,816.122342 55.2607889,816.135128 C58.0487667,773.249285 60.8623222,730.376229 63.6503,687.43924 C64.1618556,687.490386 64.6862,687.490386 65.1977556,687.490386 C65.8755667,697.233681 66.5150111,707.028122 67.2056111,716.796991 C67.9217889,716.796991 68.6251778,716.83535 69.3541444,716.83535 C71.9375,686.198952 74.5208556,655.562553 77.117,624.913369 C77.3983556,624.887796 77.7052889,624.887796 78.0122222,624.887796 C78.8435,640.781386 79.6875667,656.623831 80.5188444,672.517422 C80.9536667,672.606927 81.3884889,672.670859 81.8361,672.747578 C82.7057444,671.456144 83.6009667,670.12635 85.5065111,667.338899 C87.0923333,677.657585 88.4351667,686.467468 89.7652111,695.290137 C90.1744556,695.290137 90.5709111,695.264564 91.0057333,695.251777 C91.9521111,673.131173 92.9368556,650.972208 93.9471778,627.649675 C104.983989,642.993447 104.983989,642.993447 107.439456,659.986674 C108.232367,657.160863 109.025278,654.347838 109.818189,651.50924 C117.7473,723.906272 115.982433,796.725257 123.489511,869.096715 C129.474711,782.289324 127.1855,695.31571 130.280411,608.444387 C131.456989,669.755543 132.659144,731.117845 133.822933,792.441787 C134.257756,792.441787 134.705367,792.441787 135.1274,792.46736 C136.060989,736.884546 136.994578,681.340091 137.928167,625.770063 C138.196733,625.770063 138.439722,625.770063 138.682711,625.782849 C140.281322,677.964461 141.892722,730.133286 143.465756,782.327684 C144.514444,782.34047 145.537556,782.366043 146.586244,782.37883 C155.001333,722.167311 158.339233,661.546625 160.7947,600.708568 C162.214267,622.765241 163.659411,644.847486 165.066189,666.916945 C165.539378,666.916945 166.012567,666.916945 166.472967,666.916945 C167.061256,660.677144 167.675122,654.462916 168.263411,648.261475 C168.608711,648.223116 168.954011,648.17197 169.299311,648.13361 C170.092222,656.713336 171.230433,665.293062 171.575733,673.847215 C173.366178,717.359596 174.862478,760.846403 176.652922,804.33321 C176.947067,811.570356 178.187589,818.794716 179.006078,825.993502 C179.875722,825.993502 180.758156,825.993502 181.6278,825.993502 C182.4335,819.063232 183.737967,812.132961 183.9298,805.202691 C184.940122,770.973293 185.694667,736.743894 186.474789,702.527283 C186.615467,695.942247 186.487578,689.357211 187.306067,682.72103 C188.636111,733.035816 189.991733,783.376175 191.360144,833.690961 C191.8717,833.72932 192.370467,833.72932 192.882022,833.72932 C195.4398,764.733492 197.972,695.71209 200.529778,626.741835 C200.785556,626.741835 201.015756,626.729048 201.271533,626.729048 C202.256278,665.331422 203.241022,703.984941 204.225767,742.600101 C204.379233,742.600101 204.571067,742.600101 204.737322,742.625674 C206.156889,713.907247 207.576456,685.214393 208.996022,656.508753 C209.609889,656.495966 210.198178,656.470393 210.812044,656.44482 C211.451489,665.216343 212.116511,673.911148 212.755956,682.682671 C212.960578,682.695457 213.177989,682.695457 213.408189,682.695457 C214.866122,670.765674 216.311267,658.835892 217.7692,646.893322 C217.961033,646.918895 218.152867,646.931682 218.306333,646.957255 C220.723433,690.674219 223.140533,734.391183 225.557633,778.120933 C226.363333,778.108147 227.169033,778.108147 227.961944,778.082574 C228.371189,772.558816 228.780433,766.996698 229.189678,761.421794 C229.637289,755.169207 232.450844,751.525061 239.2929,751.64014 C244.5875,751.678499 245.661767,747.586827 245.879178,743.559086 C246.441889,732.626649 246.365156,721.681425 247.132489,710.800133 C248.027711,698.090375 249.511222,685.393404 250.828478,672.709219 C251.020311,670.995831 251.826011,669.359162 253.424622,667.811998 C254.447733,675.253728 255.458056,682.72103 256.468378,690.188332 C260.867756,661.700062 258.271611,632.777052 264.026611,604.442219 C270.062967,623.442924 265.126456,643.8885 272.288233,662.774126 C277.787456,655.767137 277.480522,647.4815 279.322122,639.489952 C279.693,644.694048 280.281289,649.898144 280.396389,655.127813 C281.329978,694.510162 282.135678,733.930869 283.094844,773.300431 C283.337833,783.171591 283.631978,793.106684 284.488833,802.965057 C284.770189,806.072171 287.903467,809.025847 287.9802,812.094602 C289.003311,857.090213 289.745067,902.034679 290.5124,946.979145 C290.640289,954.612671 291.036744,962.271771 290.550767,969.879725 C290.141522,976.272963 292.648144,977.935205 297.635811,976.541479 C293.824722,861.514334 296.088356,746.691773 300.231956,631.881999 C303.211767,746.512763 304.567389,861.194672 301.114389,976.055593 C307.956444,977.896846 308.429633,977.551611 308.506367,969.854152 C309.069078,906.957473 309.606211,844.022434 310.181711,781.100182 C310.207289,777.814058 310.181711,774.515147 311.383867,771.216236 C312.445344,797.530805 313.519611,823.819801 314.581089,850.13437 C314.900811,850.13437 315.207744,850.147156 315.527467,850.172729 C316.576156,814.153224 317.624844,778.069787 318.635167,742.011923 C319.121144,742.011923 319.607122,742.011923 320.067522,741.98635 C321.384778,757.956659 322.689244,773.914182 324.0065,789.884492 C324.249489,789.884492 324.505267,789.884492 324.735467,789.884492 C325.541167,770.845428 326.359656,751.755218 327.152567,732.728941 C327.536233,732.716154 327.945478,732.716154 328.329144,732.690581 C329.787078,746.563908 331.2578,760.38609 332.702944,774.246631 C333.009878,774.246631 333.304022,774.246631 333.610956,774.246631 C336.232678,730.721464 338.8544,687.145151 341.527278,642.660998 C344.123422,687.0045 346.6812,730.350656 349.238978,773.696812 C349.609856,773.696812 349.980733,773.658453 350.338822,773.658453 C352.883811,723.778407 355.416011,673.898361 357.948211,624.043888 C358.523711,624.043888 359.124789,624.043888 359.6875,624.043888 C359.828178,626.255949 359.994433,628.519155 360.109533,630.731216 C360.787344,643.492119 361.145433,656.291383 362.258067,669.013927 C362.667311,673.527553 365.2123,677.823809 366.324933,682.299076 C367.360833,686.697624 368.281633,691.185678 368.396733,695.686517 C369.343111,736.078997 370.084867,776.49705 370.992878,816.940676 C371.146344,824.714854 371.862522,832.514605 373.282089,840.224851 C379.3696,785.7161 378.640633,730.836542 381.518133,676.148781 C382.784233,726.143905 381.083311,776.215748 386.2756,826.057434 C387.042933,826.095794 387.784689,826.134153 388.564811,826.172513 C389.293778,820.405812 390.470356,814.651897 390.662189,808.859623 C391.723667,771.740481 392.593311,734.621339 393.399011,697.502197 C393.616422,687.400881 393.4118,677.299564 394.856944,667.198247 C396.186989,702.130902 397.529822,737.037983 398.872656,771.970638 C399.409789,771.970638 399.985289,771.970638 400.535211,771.932278 C401.097922,762.291275 401.660633,752.663058 402.210556,743.009268 C402.427967,742.970908 402.658167,742.932549 402.85,742.932549 C403.988211,754.223008 405.126422,765.50068 406.239056,776.765566 C406.891289,776.765566 407.543522,776.727207 408.208544,776.688848 C409.218867,739.799862 410.229189,702.89809 411.2523,666.009105 C411.674333,666.009105 412.083578,665.996318 412.492822,665.996318 C413.6694,698.499542 414.8204,731.015553 415.9714,763.54435 C416.239967,763.54435 416.482956,763.54435 416.751522,763.54435 C417.889733,714.725581 419.002367,665.842881 420.140578,616.99854 C420.703289,616.947394 421.278789,616.909034 421.828711,616.870675 C423.030867,628.340144 424.233022,639.835187 425.4096,651.304657 C425.818844,651.33023 426.202511,651.368589 426.611756,651.406949 C427.187256,647.711657 427.749967,644.054724 428.312678,640.385006 C428.824233,640.244354 429.335789,640.103703 429.834556,639.975838 C430.832089,644.502251 432.507433,648.951945 432.724844,653.529504 C434.1572,687.336948 435.512822,721.11882 436.471989,754.913478 C436.957967,772.213581 436.548722,789.488111 436.548722,806.813787 C437.533467,806.826573 438.556578,806.852146 439.528533,806.877719 C441.984,761.536873 444.426678,716.170453 446.894933,670.81682 C446.997244,670.791247 447.099556,670.791247 447.214656,670.778461 C448.723744,687.413667 450.220044,704.087233 451.729133,720.748012 C451.984911,720.748012 452.266267,720.748012 452.534833,720.748012 C453.442844,700.68603 454.363644,680.598475 455.271656,660.549279 C455.514644,660.549279 455.757633,660.549279 456.0262,660.549279 C457.484133,680.03587 458.954856,699.535247 460.4,718.996265 C460.655778,718.996265 460.873189,719.021838 461.116178,719.021838 C462.113711,686.927781 463.111244,654.859297 464.0832,622.790814 C464.364556,622.765241 464.645911,622.765241 464.927267,622.739668 C466.346833,647.967386 467.791978,673.143959 469.185967,698.384464 C469.863778,698.384464 470.516011,698.384464 471.193822,698.384464 C471.193822,679.409333 471.040356,660.472561 471.270556,641.510216 C471.321711,635.14255 471.897211,628.710952 473.048211,622.471152 C473.5214,619.913856 476.130333,617.740155 477.7801,615.374657 C479.749589,617.663436 483.023544,619.747632 483.42,622.279355 C484.724467,630.373194 484.941878,638.671618 485.581322,646.867749 C485.747578,648.913586 485.888256,650.921062 486.6428,652.992472 C489.136633,633.863902 491.617678,614.722547 494.085933,595.606764 C494.878844,595.645123 495.684544,595.683483 496.490244,595.709056 C498.894556,628.889963 501.298867,662.045297 503.715967,695.226204 C504.240311,695.251777 504.777444,695.290137 505.314578,695.328496 C506.721356,676.033703 504.585611,656.291383 510.251089,637.520835 C511.095156,637.431329 511.939222,637.380184 512.808867,637.316251 C513.704089,641.113835 514.906244,644.860272 515.430589,648.721788 C516.006089,652.723956 515.916567,656.853988 516.185133,661.559411 C518.077889,660.958447 519.318411,660.523706 521.505311,659.807664 C522.068022,666.060251 523.027189,672.095468 523.155078,678.156258 C524.088667,723.970204 524.728111,769.733004 525.751222,815.508591 C526.339511,841.286128 527.413778,867.038092 528.347367,892.815629 C528.449678,895.846024 529.063544,898.901992 529.408844,901.932387 C530.125022,901.932387 530.815622,901.881241 531.506222,901.881241 C532.721167,817.311484 533.923322,732.703368 535.125478,648.120824 C535.342889,648.108038 535.573089,648.108038 535.803289,648.108038 C537.043811,707.6163 538.335489,767.162922 539.614378,826.696758 C539.857367,826.696758 540.087567,826.696758 540.317767,826.696758 C541.4304,750.195268 542.530244,673.668205 543.642878,597.166714 C543.8475,597.153928 544.064911,597.153928 544.295111,597.153928 C545.816989,648.734575 547.313289,700.328009 548.835167,751.921442 C549.3723,751.947015 549.871067,751.972588 550.4082,751.985375 C550.945333,747.82977 551.508044,743.674165 552.032389,739.544133 C552.377689,739.544133 552.722989,739.544133 553.042711,739.544133 C554.270444,761.882108 555.498178,784.181723 556.725911,806.532484 C557.211889,806.532484 557.723444,806.532484 558.196633,806.532484 C560.728833,745.36198 563.2994,684.229834 565.857178,623.046543 C565.997856,623.046543 566.151322,623.02097 566.304789,623.008184 C567.737144,650.678119 569.182289,678.348055 570.614644,706.05635 C571.164567,706.05635 571.7017,706.017991 572.264411,706.017991 C572.827122,699.56082 573.415411,693.06529 573.990911,686.56976 C574.374578,686.518614 574.783822,686.441895 575.167489,686.403535 C576.497533,691.671564 577.853156,696.952379 579.195989,702.207621 C579.605233,702.220407 580.014478,702.220407 580.4493,702.24598 C581.242211,691.108959 582.009544,679.959151 582.789667,668.860489 C583.365167,668.732625 583.979033,668.617546 584.580111,668.540827 C586.063622,672.504635 587.559922,676.506802 589.567778,681.774831 C590.2328,675.087503 590.821089,669.90898 591.319856,664.75603 C591.614,664.717671 591.895356,664.653738 592.1895,664.653738 C593.621856,668.579187 595.105367,672.517422 596.524933,676.468443 C597.074856,676.417297 597.7143,676.378938 598.2898,676.340578 C599.044344,665.254703 599.773311,654.1944 600.515067,643.108525 C600.962678,643.082952 601.461444,643.044593 601.909056,643.01902 C603.341411,649.067023 604.786556,655.089454 606.487478,662.416105 C607.472222,653.695728 608.277922,646.330717 609.096411,638.99128 C610.093944,639.055212 611.091478,639.119144 612.050644,639.183077 C617.409189,698.128735 617.230144,757.394054 620.094856,816.531509 C621.054022,740.093951 622.025978,663.66918 623.023511,587.257195 C623.3816,587.269981 623.739689,587.269981 624.059411,587.269981 C625.210411,658.835892 626.323044,730.401802 627.422889,801.954926 C627.908867,801.967712 628.394844,801.967712 628.893611,801.993285 C629.7121,765.679691 630.594533,729.378884 631.464178,693.052503 C635.543833,720.223766 634.405622,748.034353 643.894978,774.374495 C650.046433,752.701417 644.9053,729.877556 651.632256,708.293984 C658.090644,722.346321 656.031633,737.626161 659.241644,752.228318 C660.597267,688.935258 662.016833,625.642198 663.398033,562.336352 C663.564289,562.336352 663.756122,562.336352 663.8968,562.336352 C664.779233,614.313379 665.661667,666.31598 666.531311,718.293008 C666.914978,718.318581 667.324222,718.318581 667.720678,718.331368 C670.726067,691.773856 673.744244,665.241916 676.711267,638.658831 C676.979833,638.684404 677.261189,638.697191 677.516967,638.722764 C678.450556,700.813895 679.396933,762.892239 680.330522,824.996157 C680.599089,824.996157 680.829289,824.996157 681.085067,824.996157 C682.338378,779.028773 683.630056,733.086962 684.921733,687.145151 C685.330978,687.145151 685.740222,687.18351 686.175044,687.18351 C687.083056,714.278055 688.016644,741.410958 688.924656,768.505503 C689.231589,768.505503 689.500156,768.467143 689.7943,768.467143 C691.137133,744.67151 692.531122,720.811944 693.848378,697.003525 C695.766711,715.070816 694.347144,733.355478 700.2684,751.000816 C707.366233,727.154037 704.961922,702.476137 707.992889,678.117898 C708.888111,686.390749 709.834489,694.612453 710.7425,702.885304 C711.177322,702.923663 711.573778,702.962023 712.021389,702.987596 C713.440956,691.479767 714.898889,679.920792 716.331244,668.400176 C717.840333,692.694482 718.313522,716.912069 723.5186,740.630983 C724.311511,740.630983 725.091633,740.630983 725.910122,740.592624 C727.009967,707.552368 728.033078,674.550471 729.107344,641.510216 C729.222444,641.510216 729.363122,641.510216 729.5038,641.510216 C730.961733,688.717888 732.445244,735.912773 733.903178,783.107659 C734.056644,783.107659 734.171744,783.107659 734.312422,783.107659 C735.437844,746.538335 736.512111,710.007371 737.624744,673.425261 C738.059567,673.450834 738.532756,673.450834 738.967578,673.463621 C740.297622,676.302219 741.614878,679.064098 742.957711,681.877123 C743.750622,681.877123 744.517956,681.902696 745.323656,681.902696 C746.372344,676.455656 748.0349,671.098123 748.392989,665.625511 C749.147533,654.117682 749.211478,642.533134 749.697456,630.999732 C749.863711,627.52181 750.055544,623.916024 751.065867,620.629899 C751.679733,618.609636 753.905,617.088045 755.362933,615.349084 C757.076644,617.113618 759.66,618.622422 760.273867,620.732191 C761.476022,624.823863 761.910844,629.260771 762.064311,633.557027 C762.831644,654.987162 763.381567,676.417297 764.519778,697.911364 C765.900978,672.018749 767.320544,646.062201 768.714533,620.144013 C776.0042,679.332614 775.927467,738.879236 778.267833,798.374712 C779.610667,730.005421 780.9535,661.63613 782.283544,593.241266 C782.3347,593.241266 782.398644,593.241266 782.437011,593.241266 C783.741478,667.69692 785.020367,742.088642 786.273678,816.518723 C786.989856,816.557082 787.667667,816.608228 788.383844,816.684947 C789.598789,810.163844 790.775367,803.629954 791.964733,797.121637 C792.834378,797.032132 793.755178,796.917054 794.663189,796.827548 C796.926822,806.596417 799.241611,816.378071 801.518033,826.159726 C807.912478,754.734467 805.034978,683.040692 812.056078,611.794444 C816.8647,664.883895 815.176567,718.152357 817.3251,771.38246 C820.969933,746.576695 824.563611,721.809289 828.208444,697.003525 C828.8351,697.041884 829.500122,697.05467 830.113989,697.080243 C831.866067,721.745357 833.605356,746.410471 835.306278,771.050011 C835.523689,771.011652 835.715522,771.011652 835.907356,770.973293 C836.8921,739.876581 837.838478,708.77987 838.836011,677.644799 C839.270833,677.606439 839.667289,677.580866 840.1149,677.555293 C841.444944,691.914507 842.813356,706.27372 844.105033,720.185407 C846.739544,687.388094 849.425211,654.181614 852.0853,620.949561 C852.6608,620.949561 853.274667,620.949561 853.875744,620.936774 C854.208256,626.639543 854.5024,632.393458 854.898856,638.121799 C855.295311,644.10587 855.5383,650.089941 856.241689,655.997294 C856.881133,661.789568 858.032133,667.492336 858.940144,673.28461 C859.963256,673.259037 860.973578,673.246251 861.958322,673.220678 C862.623344,664.640952 863.288367,656.112372 863.876656,647.545433 C864.439367,638.748337 864.874189,629.9896 866.370489,621.218077 C871.102378,647.583792 871.920867,674.154091 872.317322,700.724389 C872.6882,727.345834 872.394056,753.928919 872.394056,780.524791 C873.225333,780.550364 874.0694,780.550364 874.887889,780.56315 C876.2563,746.602268 877.624711,712.615813 879.005911,678.69329 C879.274478,678.69329 879.543044,678.65493 879.837189,678.65493 C880.898667,731.974538 881.972933,785.294146 883.0472,838.613754 C883.482022,838.613754 883.904056,838.6649 884.351667,838.70326 C884.620233,835.225338 884.7737,831.721844 885.144578,828.282281 C886.973389,812.695566 884.978322,796.559032 892.2552,781.777865 C893.431778,747.35667 894.544411,712.922688 895.797722,678.514279 C896.987089,645.959909 898.329922,613.379967 899.647178,580.85117 C899.762278,578.677469 900.248256,576.529341 902.025911,574.445145 C903.125756,637.584767 904.212811,700.724389 905.274289,763.838438 C905.709111,763.838438 906.105567,763.838438 906.553178,763.838438 C907.6786,737.779599 908.816811,711.746332 909.942233,685.687493 C910.441,685.649133 910.978133,685.649133 911.464111,685.649133 C912.180289,697.284827 912.845311,708.894948 913.5487,720.556215 C913.842844,720.581788 914.085833,720.620147 914.341611,720.632934 C915.825122,703.882649 917.334211,687.145151 918.8433,670.343721 C919.239756,670.343721 919.610633,670.343721 920.019878,670.343721 C920.595378,676.66024 921.209244,683.015119 921.810322,689.357211 C922.2963,689.357211 922.833433,689.369998 923.3322,689.395571 C924.649456,667.019237 925.941133,644.694048 927.220022,622.343287 C927.603689,622.343287 927.974567,622.317714 928.371022,622.317714 C929.458078,682.97676 930.532344,743.597446 931.6194,804.269278 C931.913544,804.269278 932.1949,804.269278 932.489044,804.269278 C933.588889,757.48356 934.739889,710.723414 935.890889,663.924909 C936.300133,663.924909 936.6838,663.924909 937.105833,663.899336 C938.269622,738.316631 939.420622,812.733926 940.571622,887.125647 C940.737878,887.125647 940.891344,887.125647 941.006444,887.125647 C942.3237,799.678933 943.666533,712.168286 944.971,624.721572 C945.341878,624.721572 945.674389,624.721572 946.0069,624.721572 C946.556822,652.302002 947.017222,679.882432 947.669456,707.514008 C948.347267,735.23509 948.8844,763.007318 952.426922,790.574961 C953.232622,790.574961 954.0639,790.574961 954.895178,790.574961 C955.982233,765.641332 957.018133,740.669343 958.079611,715.722927 C958.169133,715.722927 958.220289,715.722927 958.309811,715.735713 C959.767744,739.416268 961.251256,763.096823 962.773133,786.790164 C963.681144,786.790164 964.640311,786.815737 965.586689,786.815737 C966.660956,776.829499 968.2212,766.88162 968.719967,756.882595 C970.216267,727.652709 971.162644,698.358891 972.620578,669.129005 C973.029822,659.948315 974.411022,650.844344 975.331822,641.702013 C976.1631,641.574148 976.956011,641.45907 977.761711,641.356778 C979.718411,647.622151 982.416867,653.75966 983.491133,660.178472 C985.281578,670.701742 986.023333,681.404023 987.2127,692.042372 C987.570789,695.111126 987.455689,698.358891 988.466011,701.171916 C989.335656,703.601347 991.407456,707.18156 993.159533,707.322211 C995.282489,707.514008 998.466922,705.046218 999.7586,702.885304 C1007.49588,689.868671 1008.64688,675.215368 1009.56768,660.574852 C1009.96413,654.501276 1009.63162,648.427699 1009.63162,642.354123 C1010.28386,642.354123 1010.96167,642.32855 1011.66506,642.302977 C1012.86721,646.714312 1014.031,651.11286 1015.23316,655.498621 C1015.57846,655.460262 1015.94933,655.421902 1016.30742,655.383543 C1018.03392,630.4627 1019.76042,605.580216 1021.47413,580.659373 C1022.12637,580.659373 1022.76581,580.659373 1023.40526,580.621013 C1023.77613,585.224145 1024.41558,589.81449 1024.49231,594.417622 C1025.40032,641.228913 1026.20602,688.027418 1027.02451,734.864282 C1027.85579,782.698492 1028.69986,830.571061 1029.55671,878.40527 C1029.64623,883.085121 1030.27289,887.752185 1030.63098,892.419249 C1031.34716,892.393676 1032.05054,892.393676 1032.80509,892.393676 C1034.0584,865.490929 1035.19661,838.562609 1036.64176,811.634289 C1038.03574,784.884979 1039.82619,758.148456 1041.45038,731.42472 C1042.05146,731.42472 1042.66532,731.386361 1043.27919,731.386361 C1043.957,743.022054 1044.66039,754.670535 1045.37657,766.357374 C1045.88812,766.357374 1046.45083,766.357374 1046.96239,766.357374 C1048.34359,720.658507 1049.73758,674.959639 1050.9781,632.917703 C1053.30568,697.591703 1055.78672,765.948207 1058.24219,834.330285 C1059.07347,834.330285 1059.86638,834.330285 1060.69766,834.330285 C1062.66714,785.204641 1060.77439,735.733763 1072.29718,687.528745 C1073.01336,687.490386 1073.72953,687.43924 1074.39456,687.43924 C1075.2642,690.277838 1076.10827,693.103649 1076.92676,695.955033 C1077.34879,695.980606 1077.71967,696.018966 1078.10333,696.044539 C1079.19039,680.304386 1080.26466,664.513087 1081.33892,648.772934 C1081.7098,648.709002 1082.09347,648.619497 1082.46434,648.555564 C1083.33399,651.50924 1083.71766,654.757005 1085.26511,657.378233 C1086.64631,659.782091 1089.22967,661.533838 1091.28868,663.592461 C1092.95123,661.20139 1095.79037,658.95097 1095.99499,656.457607 C1097.27388,643.760635 1097.86217,630.986945 1098.55277,618.238828 C1098.77018,614.543536 1098.59113,610.822671 1099.72934,607.076234 C1100.63736,613.878639 1101.12333,620.796123 1102.67079,627.470664 C1103.51486,631.242675 1106.32841,634.541586 1107.79913,638.185732 C1109.53842,642.507561 1110.76616,647.033973 1112.64612,652.647237 C1113.88664,641.523002 1115.01207,631.204315 1116.15028,620.911201 C1116.75136,620.936774 1117.33964,620.962347 1117.94072,620.975134 C1119.13009,682.900041 1120.30667,744.812161 1121.45767,806.762641 C1121.58556,806.762641 1121.66229,806.762641 1121.77739,806.762641 C1123.10743,737.357645 1124.48863,667.991009 1125.84426,598.611586 C1126.08724,598.611586 1126.34302,598.611586 1126.61159,598.624373 C1127.67307,668.233952 1128.72176,737.843531 1129.75766,807.440324 C1130.3971,807.478684 1131.04933,807.478684 1131.67599,807.517043 C1132.78862,783.056513 1133.8501,758.57041 1134.96273,734.097094 C1135.16736,734.10988 1135.35919,734.10988 1135.56381,734.10988 C1136.62529,762.956172 1137.69956,791.77689 1138.72267,820.610395 C1139.10633,820.610395 1139.45163,820.610395 1139.82251,820.610395 C1140.43638,788.976652 1141.02467,757.381268 1141.68969,725.747524 C1142.3675,694.15214 1142.68722,662.582329 1146.21696,631.178742 C1147.04823,631.178742 1147.84114,631.178742 1148.67242,631.178742 C1149.46533,651.828902 1150.1943,672.466276 1150.94884,693.116436 L1150.94884,519.578373 L1151,519.578373 Z" id="Path-Copy" fill="#000000" fill-rule="nonzero"></path>
    </g>
</svg>